<svg width="170px" height="170px" xmlns="http://www.w3.org/2000/svg"><path d="M8,8l2,0 0,2 -2,0 0,-2z M10,8l2,0 0,2 -2,0 0,-2z M12,8l2,0 0,2 -2,0 0,-2z M14,8l2,0 0,2 -2,0 0,-2z M16,8l2,0 0,2 -2,0 0,-2z M18,8l2,0 0,2 -2,0 0,-2z M20,8l2,0 0,2 -2,0 0,-2z M28,8l2,0 0,2 -2,0 0,-2z M30,8l2,0 0,2 -2,0 0,-2z M34,8l2,0 0,2 -2,0 0,-2z M42,8l2,0 0,2 -2,0 0,-2z M48,8l2,0 0,2 -2,0 0,-2z M52,8l2,0 0,2 -2,0 0,-2z M62,8l2,0 0,2 -2,0 0,-2z M64,8l2,0 0,2 -2,0 0,-2z M66,8l2,0 0,2 -2,0 0,-2z M68,8l2,0 0,2 -2,0 0,-2z M70,8l2,0 0,2 -2,0 0,-2z M72,8l2,0 0,2 -2,0 0,-2z M74,8l2,0 0,2 -2,0 0,-2z M76,8l2,0 0,2 -2,0 0,-2z M78,8l2,0 0,2 -2,0 0,-2z M80,8l2,0 0,2 -2,0 0,-2z M82,8l2,0 0,2 -2,0 0,-2z M84,8l2,0 0,2 -2,0 0,-2z M92,8l2,0 0,2 -2,0 0,-2z M96,8l2,0 0,2 -2,0 0,-2z M102,8l2,0 0,2 -2,0 0,-2z M104,8l2,0 0,2 -2,0 0,-2z M108,8l2,0 0,2 -2,0 0,-2z M112,8l2,0 0,2 -2,0 0,-2z M116,8l2,0 0,2 -2,0 0,-2z M120,8l2,0 0,2 -2,0 0,-2z M124,8l2,0 0,2 -2,0 0,-2z M134,8l2,0 0,2 -2,0 0,-2z M136,8l2,0 0,2 -2,0 0,-2z M138,8l2,0 0,2 -2,0 0,-2z M148,8l2,0 0,2 -2,0 0,-2z M150,8l2,0 0,2 -2,0 0,-2z M152,8l2,0 0,2 -2,0 0,-2z M154,8l2,0 0,2 -2,0 0,-2z M156,8l2,0 0,2 -2,0 0,-2z M158,8l2,0 0,2 -2,0 0,-2z M160,8l2,0 0,2 -2,0 0,-2z M8,10l2,0 0,2 -2,0 0,-2z M20,10l2,0 0,2 -2,0 0,-2z M24,10l2,0 0,2 -2,0 0,-2z M26,10l2,0 0,2 -2,0 0,-2z M34,10l2,0 0,2 -2,0 0,-2z M40,10l2,0 0,2 -2,0 0,-2z M48,10l2,0 0,2 -2,0 0,-2z M52,10l2,0 0,2 -2,0 0,-2z M54,10l2,0 0,2 -2,0 0,-2z M56,10l2,0 0,2 -2,0 0,-2z M66,10l2,0 0,2 -2,0 0,-2z M68,10l2,0 0,2 -2,0 0,-2z M70,10l2,0 0,2 -2,0 0,-2z M72,10l2,0 0,2 -2,0 0,-2z M74,10l2,0 0,2 -2,0 0,-2z M84,10l2,0 0,2 -2,0 0,-2z M92,10l2,0 0,2 -2,0 0,-2z M98,10l2,0 0,2 -2,0 0,-2z M102,10l2,0 0,2 -2,0 0,-2z M106,10l2,0 0,2 -2,0 0,-2z M108,10l2,0 0,2 -2,0 0,-2z M118,10l2,0 0,2 -2,0 0,-2z M128,10l2,0 0,2 -2,0 0,-2z M130,10l2,0 0,2 -2,0 0,-2z M132,10l2,0 0,2 -2,0 0,-2z M134,10l2,0 0,2 -2,0 0,-2z M136,10l2,0 0,2 -2,0 0,-2z M138,10l2,0 0,2 -2,0 0,-2z M140,10l2,0 0,2 -2,0 0,-2z M144,10l2,0 0,2 -2,0 0,-2z M148,10l2,0 0,2 -2,0 0,-2z M160,10l2,0 0,2 -2,0 0,-2z M8,12l2,0 0,2 -2,0 0,-2z M12,12l2,0 0,2 -2,0 0,-2z M14,12l2,0 0,2 -2,0 0,-2z M16,12l2,0 0,2 -2,0 0,-2z M20,12l2,0 0,2 -2,0 0,-2z M24,12l2,0 0,2 -2,0 0,-2z M26,12l2,0 0,2 -2,0 0,-2z M32,12l2,0 0,2 -2,0 0,-2z M36,12l2,0 0,2 -2,0 0,-2z M46,12l2,0 0,2 -2,0 0,-2z M52,12l2,0 0,2 -2,0 0,-2z M56,12l2,0 0,2 -2,0 0,-2z M60,12l2,0 0,2 -2,0 0,-2z M62,12l2,0 0,2 -2,0 0,-2z M72,12l2,0 0,2 -2,0 0,-2z M78,12l2,0 0,2 -2,0 0,-2z M86,12l2,0 0,2 -2,0 0,-2z M90,12l2,0 0,2 -2,0 0,-2z M92,12l2,0 0,2 -2,0 0,-2z M94,12l2,0 0,2 -2,0 0,-2z M96,12l2,0 0,2 -2,0 0,-2z M102,12l2,0 0,2 -2,0 0,-2z M104,12l2,0 0,2 -2,0 0,-2z M106,12l2,0 0,2 -2,0 0,-2z M108,12l2,0 0,2 -2,0 0,-2z M118,12l2,0 0,2 -2,0 0,-2z M120,12l2,0 0,2 -2,0 0,-2z M124,12l2,0 0,2 -2,0 0,-2z M128,12l2,0 0,2 -2,0 0,-2z M134,12l2,0 0,2 -2,0 0,-2z M136,12l2,0 0,2 -2,0 0,-2z M144,12l2,0 0,2 -2,0 0,-2z M148,12l2,0 0,2 -2,0 0,-2z M152,12l2,0 0,2 -2,0 0,-2z M154,12l2,0 0,2 -2,0 0,-2z M156,12l2,0 0,2 -2,0 0,-2z M160,12l2,0 0,2 -2,0 0,-2z M8,14l2,0 0,2 -2,0 0,-2z M12,14l2,0 0,2 -2,0 0,-2z M14,14l2,0 0,2 -2,0 0,-2z M16,14l2,0 0,2 -2,0 0,-2z M20,14l2,0 0,2 -2,0 0,-2z M26,14l2,0 0,2 -2,0 0,-2z M28,14l2,0 0,2 -2,0 0,-2z M30,14l2,0 0,2 -2,0 0,-2z M36,14l2,0 0,2 -2,0 0,-2z M42,14l2,0 0,2 -2,0 0,-2z M44,14l2,0 0,2 -2,0 0,-2z M46,14l2,0 0,2 -2,0 0,-2z M48,14l2,0 0,2 -2,0 0,-2z M50,14l2,0 0,2 -2,0 0,-2z M52,14l2,0 0,2 -2,0 0,-2z M62,14l2,0 0,2 -2,0 0,-2z M66,14l2,0 0,2 -2,0 0,-2z M68,14l2,0 0,2 -2,0 0,-2z M70,14l2,0 0,2 -2,0 0,-2z M74,14l2,0 0,2 -2,0 0,-2z M82,14l2,0 0,2 -2,0 0,-2z M90,14l2,0 0,2 -2,0 0,-2z M100,14l2,0 0,2 -2,0 0,-2z M108,14l2,0 0,2 -2,0 0,-2z M110,14l2,0 0,2 -2,0 0,-2z M112,14l2,0 0,2 -2,0 0,-2z M114,14l2,0 0,2 -2,0 0,-2z M116,14l2,0 0,2 -2,0 0,-2z M118,14l2,0 0,2 -2,0 0,-2z M122,14l2,0 0,2 -2,0 0,-2z M126,14l2,0 0,2 -2,0 0,-2z M134,14l2,0 0,2 -2,0 0,-2z M138,14l2,0 0,2 -2,0 0,-2z M144,14l2,0 0,2 -2,0 0,-2z M148,14l2,0 0,2 -2,0 0,-2z M152,14l2,0 0,2 -2,0 0,-2z M154,14l2,0 0,2 -2,0 0,-2z M156,14l2,0 0,2 -2,0 0,-2z M160,14l2,0 0,2 -2,0 0,-2z M8,16l2,0 0,2 -2,0 0,-2z M12,16l2,0 0,2 -2,0 0,-2z M14,16l2,0 0,2 -2,0 0,-2z M16,16l2,0 0,2 -2,0 0,-2z M20,16l2,0 0,2 -2,0 0,-2z M24,16l2,0 0,2 -2,0 0,-2z M26,16l2,0 0,2 -2,0 0,-2z M28,16l2,0 0,2 -2,0 0,-2z M32,16l2,0 0,2 -2,0 0,-2z M34,16l2,0 0,2 -2,0 0,-2z M46,16l2,0 0,2 -2,0 0,-2z M48,16l2,0 0,2 -2,0 0,-2z M52,16l2,0 0,2 -2,0 0,-2z M56,16l2,0 0,2 -2,0 0,-2z M58,16l2,0 0,2 -2,0 0,-2z M60,16l2,0 0,2 -2,0 0,-2z M62,16l2,0 0,2 -2,0 0,-2z M64,16l2,0 0,2 -2,0 0,-2z M66,16l2,0 0,2 -2,0 0,-2z M68,16l2,0 0,2 -2,0 0,-2z M72,16l2,0 0,2 -2,0 0,-2z M74,16l2,0 0,2 -2,0 0,-2z M84,16l2,0 0,2 -2,0 0,-2z M86,16l2,0 0,2 -2,0 0,-2z M90,16l2,0 0,2 -2,0 0,-2z M92,16l2,0 0,2 -2,0 0,-2z M96,16l2,0 0,2 -2,0 0,-2z M100,16l2,0 0,2 -2,0 0,-2z M102,16l2,0 0,2 -2,0 0,-2z M104,16l2,0 0,2 -2,0 0,-2z M106,16l2,0 0,2 -2,0 0,-2z M108,16l2,0 0,2 -2,0 0,-2z M110,16l2,0 0,2 -2,0 0,-2z M112,16l2,0 0,2 -2,0 0,-2z M118,16l2,0 0,2 -2,0 0,-2z M124,16l2,0 0,2 -2,0 0,-2z M126,16l2,0 0,2 -2,0 0,-2z M130,16l2,0 0,2 -2,0 0,-2z M134,16l2,0 0,2 -2,0 0,-2z M138,16l2,0 0,2 -2,0 0,-2z M140,16l2,0 0,2 -2,0 0,-2z M142,16l2,0 0,2 -2,0 0,-2z M144,16l2,0 0,2 -2,0 0,-2z M148,16l2,0 0,2 -2,0 0,-2z M152,16l2,0 0,2 -2,0 0,-2z M154,16l2,0 0,2 -2,0 0,-2z M156,16l2,0 0,2 -2,0 0,-2z M160,16l2,0 0,2 -2,0 0,-2z M8,18l2,0 0,2 -2,0 0,-2z M20,18l2,0 0,2 -2,0 0,-2z M24,18l2,0 0,2 -2,0 0,-2z M28,18l2,0 0,2 -2,0 0,-2z M36,18l2,0 0,2 -2,0 0,-2z M40,18l2,0 0,2 -2,0 0,-2z M42,18l2,0 0,2 -2,0 0,-2z M44,18l2,0 0,2 -2,0 0,-2z M48,18l2,0 0,2 -2,0 0,-2z M50,18l2,0 0,2 -2,0 0,-2z M52,18l2,0 0,2 -2,0 0,-2z M54,18l2,0 0,2 -2,0 0,-2z M56,18l2,0 0,2 -2,0 0,-2z M64,18l2,0 0,2 -2,0 0,-2z M68,18l2,0 0,2 -2,0 0,-2z M76,18l2,0 0,2 -2,0 0,-2z M82,18l2,0 0,2 -2,0 0,-2z M84,18l2,0 0,2 -2,0 0,-2z M96,18l2,0 0,2 -2,0 0,-2z M100,18l2,0 0,2 -2,0 0,-2z M108,18l2,0 0,2 -2,0 0,-2z M112,18l2,0 0,2 -2,0 0,-2z M114,18l2,0 0,2 -2,0 0,-2z M116,18l2,0 0,2 -2,0 0,-2z M120,18l2,0 0,2 -2,0 0,-2z M124,18l2,0 0,2 -2,0 0,-2z M126,18l2,0 0,2 -2,0 0,-2z M128,18l2,0 0,2 -2,0 0,-2z M130,18l2,0 0,2 -2,0 0,-2z M134,18l2,0 0,2 -2,0 0,-2z M136,18l2,0 0,2 -2,0 0,-2z M138,18l2,0 0,2 -2,0 0,-2z M140,18l2,0 0,2 -2,0 0,-2z M148,18l2,0 0,2 -2,0 0,-2z M160,18l2,0 0,2 -2,0 0,-2z M8,20l2,0 0,2 -2,0 0,-2z M10,20l2,0 0,2 -2,0 0,-2z M12,20l2,0 0,2 -2,0 0,-2z M14,20l2,0 0,2 -2,0 0,-2z M16,20l2,0 0,2 -2,0 0,-2z M18,20l2,0 0,2 -2,0 0,-2z M20,20l2,0 0,2 -2,0 0,-2z M24,20l2,0 0,2 -2,0 0,-2z M28,20l2,0 0,2 -2,0 0,-2z M32,20l2,0 0,2 -2,0 0,-2z M36,20l2,0 0,2 -2,0 0,-2z M40,20l2,0 0,2 -2,0 0,-2z M44,20l2,0 0,2 -2,0 0,-2z M48,20l2,0 0,2 -2,0 0,-2z M52,20l2,0 0,2 -2,0 0,-2z M56,20l2,0 0,2 -2,0 0,-2z M60,20l2,0 0,2 -2,0 0,-2z M64,20l2,0 0,2 -2,0 0,-2z M68,20l2,0 0,2 -2,0 0,-2z M72,20l2,0 0,2 -2,0 0,-2z M76,20l2,0 0,2 -2,0 0,-2z M80,20l2,0 0,2 -2,0 0,-2z M84,20l2,0 0,2 -2,0 0,-2z M88,20l2,0 0,2 -2,0 0,-2z M92,20l2,0 0,2 -2,0 0,-2z M96,20l2,0 0,2 -2,0 0,-2z M100,20l2,0 0,2 -2,0 0,-2z M104,20l2,0 0,2 -2,0 0,-2z M108,20l2,0 0,2 -2,0 0,-2z M112,20l2,0 0,2 -2,0 0,-2z M116,20l2,0 0,2 -2,0 0,-2z M120,20l2,0 0,2 -2,0 0,-2z M124,20l2,0 0,2 -2,0 0,-2z M128,20l2,0 0,2 -2,0 0,-2z M132,20l2,0 0,2 -2,0 0,-2z M136,20l2,0 0,2 -2,0 0,-2z M140,20l2,0 0,2 -2,0 0,-2z M144,20l2,0 0,2 -2,0 0,-2z M148,20l2,0 0,2 -2,0 0,-2z M150,20l2,0 0,2 -2,0 0,-2z M152,20l2,0 0,2 -2,0 0,-2z M154,20l2,0 0,2 -2,0 0,-2z M156,20l2,0 0,2 -2,0 0,-2z M158,20l2,0 0,2 -2,0 0,-2z M160,20l2,0 0,2 -2,0 0,-2z M24,22l2,0 0,2 -2,0 0,-2z M28,22l2,0 0,2 -2,0 0,-2z M44,22l2,0 0,2 -2,0 0,-2z M48,22l2,0 0,2 -2,0 0,-2z M50,22l2,0 0,2 -2,0 0,-2z M52,22l2,0 0,2 -2,0 0,-2z M54,22l2,0 0,2 -2,0 0,-2z M56,22l2,0 0,2 -2,0 0,-2z M64,22l2,0 0,2 -2,0 0,-2z M76,22l2,0 0,2 -2,0 0,-2z M78,22l2,0 0,2 -2,0 0,-2z M82,22l2,0 0,2 -2,0 0,-2z M84,22l2,0 0,2 -2,0 0,-2z M88,22l2,0 0,2 -2,0 0,-2z M94,22l2,0 0,2 -2,0 0,-2z M96,22l2,0 0,2 -2,0 0,-2z M100,22l2,0 0,2 -2,0 0,-2z M108,22l2,0 0,2 -2,0 0,-2z M112,22l2,0 0,2 -2,0 0,-2z M114,22l2,0 0,2 -2,0 0,-2z M118,22l2,0 0,2 -2,0 0,-2z M120,22l2,0 0,2 -2,0 0,-2z M122,22l2,0 0,2 -2,0 0,-2z M124,22l2,0 0,2 -2,0 0,-2z M128,22l2,0 0,2 -2,0 0,-2z M136,22l2,0 0,2 -2,0 0,-2z M138,22l2,0 0,2 -2,0 0,-2z M142,22l2,0 0,2 -2,0 0,-2z M144,22l2,0 0,2 -2,0 0,-2z M8,24l2,0 0,2 -2,0 0,-2z M10,24l2,0 0,2 -2,0 0,-2z M14,24l2,0 0,2 -2,0 0,-2z M20,24l2,0 0,2 -2,0 0,-2z M22,24l2,0 0,2 -2,0 0,-2z M26,24l2,0 0,2 -2,0 0,-2z M30,24l2,0 0,2 -2,0 0,-2z M36,24l2,0 0,2 -2,0 0,-2z M38,24l2,0 0,2 -2,0 0,-2z M44,24l2,0 0,2 -2,0 0,-2z M46,24l2,0 0,2 -2,0 0,-2z M54,24l2,0 0,2 -2,0 0,-2z M56,24l2,0 0,2 -2,0 0,-2z M58,24l2,0 0,2 -2,0 0,-2z M60,24l2,0 0,2 -2,0 0,-2z M62,24l2,0 0,2 -2,0 0,-2z M64,24l2,0 0,2 -2,0 0,-2z M66,24l2,0 0,2 -2,0 0,-2z M70,24l2,0 0,2 -2,0 0,-2z M74,24l2,0 0,2 -2,0 0,-2z M76,24l2,0 0,2 -2,0 0,-2z M78,24l2,0 0,2 -2,0 0,-2z M80,24l2,0 0,2 -2,0 0,-2z M84,24l2,0 0,2 -2,0 0,-2z M86,24l2,0 0,2 -2,0 0,-2z M88,24l2,0 0,2 -2,0 0,-2z M92,24l2,0 0,2 -2,0 0,-2z M94,24l2,0 0,2 -2,0 0,-2z M98,24l2,0 0,2 -2,0 0,-2z M100,24l2,0 0,2 -2,0 0,-2z M102,24l2,0 0,2 -2,0 0,-2z M104,24l2,0 0,2 -2,0 0,-2z M106,24l2,0 0,2 -2,0 0,-2z M108,24l2,0 0,2 -2,0 0,-2z M112,24l2,0 0,2 -2,0 0,-2z M114,24l2,0 0,2 -2,0 0,-2z M120,24l2,0 0,2 -2,0 0,-2z M126,24l2,0 0,2 -2,0 0,-2z M142,24l2,0 0,2 -2,0 0,-2z M148,24l2,0 0,2 -2,0 0,-2z M150,24l2,0 0,2 -2,0 0,-2z M152,24l2,0 0,2 -2,0 0,-2z M156,24l2,0 0,2 -2,0 0,-2z M158,24l2,0 0,2 -2,0 0,-2z M8,26l2,0 0,2 -2,0 0,-2z M12,26l2,0 0,2 -2,0 0,-2z M18,26l2,0 0,2 -2,0 0,-2z M22,26l2,0 0,2 -2,0 0,-2z M24,26l2,0 0,2 -2,0 0,-2z M26,26l2,0 0,2 -2,0 0,-2z M28,26l2,0 0,2 -2,0 0,-2z M30,26l2,0 0,2 -2,0 0,-2z M34,26l2,0 0,2 -2,0 0,-2z M36,26l2,0 0,2 -2,0 0,-2z M40,26l2,0 0,2 -2,0 0,-2z M42,26l2,0 0,2 -2,0 0,-2z M44,26l2,0 0,2 -2,0 0,-2z M46,26l2,0 0,2 -2,0 0,-2z M54,26l2,0 0,2 -2,0 0,-2z M56,26l2,0 0,2 -2,0 0,-2z M58,26l2,0 0,2 -2,0 0,-2z M60,26l2,0 0,2 -2,0 0,-2z M62,26l2,0 0,2 -2,0 0,-2z M70,26l2,0 0,2 -2,0 0,-2z M94,26l2,0 0,2 -2,0 0,-2z M98,26l2,0 0,2 -2,0 0,-2z M104,26l2,0 0,2 -2,0 0,-2z M106,26l2,0 0,2 -2,0 0,-2z M108,26l2,0 0,2 -2,0 0,-2z M110,26l2,0 0,2 -2,0 0,-2z M114,26l2,0 0,2 -2,0 0,-2z M116,26l2,0 0,2 -2,0 0,-2z M118,26l2,0 0,2 -2,0 0,-2z M122,26l2,0 0,2 -2,0 0,-2z M124,26l2,0 0,2 -2,0 0,-2z M126,26l2,0 0,2 -2,0 0,-2z M128,26l2,0 0,2 -2,0 0,-2z M130,26l2,0 0,2 -2,0 0,-2z M134,26l2,0 0,2 -2,0 0,-2z M136,26l2,0 0,2 -2,0 0,-2z M138,26l2,0 0,2 -2,0 0,-2z M140,26l2,0 0,2 -2,0 0,-2z M142,26l2,0 0,2 -2,0 0,-2z M144,26l2,0 0,2 -2,0 0,-2z M148,26l2,0 0,2 -2,0 0,-2z M152,26l2,0 0,2 -2,0 0,-2z M158,26l2,0 0,2 -2,0 0,-2z M160,26l2,0 0,2 -2,0 0,-2z M10,28l2,0 0,2 -2,0 0,-2z M16,28l2,0 0,2 -2,0 0,-2z M20,28l2,0 0,2 -2,0 0,-2z M22,28l2,0 0,2 -2,0 0,-2z M34,28l2,0 0,2 -2,0 0,-2z M42,28l2,0 0,2 -2,0 0,-2z M44,28l2,0 0,2 -2,0 0,-2z M46,28l2,0 0,2 -2,0 0,-2z M56,28l2,0 0,2 -2,0 0,-2z M60,28l2,0 0,2 -2,0 0,-2z M62,28l2,0 0,2 -2,0 0,-2z M68,28l2,0 0,2 -2,0 0,-2z M70,28l2,0 0,2 -2,0 0,-2z M72,28l2,0 0,2 -2,0 0,-2z M76,28l2,0 0,2 -2,0 0,-2z M82,28l2,0 0,2 -2,0 0,-2z M88,28l2,0 0,2 -2,0 0,-2z M96,28l2,0 0,2 -2,0 0,-2z M98,28l2,0 0,2 -2,0 0,-2z M100,28l2,0 0,2 -2,0 0,-2z M104,28l2,0 0,2 -2,0 0,-2z M108,28l2,0 0,2 -2,0 0,-2z M114,28l2,0 0,2 -2,0 0,-2z M120,28l2,0 0,2 -2,0 0,-2z M122,28l2,0 0,2 -2,0 0,-2z M128,28l2,0 0,2 -2,0 0,-2z M130,28l2,0 0,2 -2,0 0,-2z M138,28l2,0 0,2 -2,0 0,-2z M142,28l2,0 0,2 -2,0 0,-2z M144,28l2,0 0,2 -2,0 0,-2z M146,28l2,0 0,2 -2,0 0,-2z M150,28l2,0 0,2 -2,0 0,-2z M154,28l2,0 0,2 -2,0 0,-2z M156,28l2,0 0,2 -2,0 0,-2z M8,30l2,0 0,2 -2,0 0,-2z M16,30l2,0 0,2 -2,0 0,-2z M24,30l2,0 0,2 -2,0 0,-2z M30,30l2,0 0,2 -2,0 0,-2z M32,30l2,0 0,2 -2,0 0,-2z M34,30l2,0 0,2 -2,0 0,-2z M40,30l2,0 0,2 -2,0 0,-2z M44,30l2,0 0,2 -2,0 0,-2z M48,30l2,0 0,2 -2,0 0,-2z M50,30l2,0 0,2 -2,0 0,-2z M52,30l2,0 0,2 -2,0 0,-2z M56,30l2,0 0,2 -2,0 0,-2z M58,30l2,0 0,2 -2,0 0,-2z M60,30l2,0 0,2 -2,0 0,-2z M64,30l2,0 0,2 -2,0 0,-2z M66,30l2,0 0,2 -2,0 0,-2z M68,30l2,0 0,2 -2,0 0,-2z M70,30l2,0 0,2 -2,0 0,-2z M74,30l2,0 0,2 -2,0 0,-2z M76,30l2,0 0,2 -2,0 0,-2z M78,30l2,0 0,2 -2,0 0,-2z M84,30l2,0 0,2 -2,0 0,-2z M88,30l2,0 0,2 -2,0 0,-2z M90,30l2,0 0,2 -2,0 0,-2z M94,30l2,0 0,2 -2,0 0,-2z M108,30l2,0 0,2 -2,0 0,-2z M112,30l2,0 0,2 -2,0 0,-2z M114,30l2,0 0,2 -2,0 0,-2z M116,30l2,0 0,2 -2,0 0,-2z M118,30l2,0 0,2 -2,0 0,-2z M122,30l2,0 0,2 -2,0 0,-2z M124,30l2,0 0,2 -2,0 0,-2z M126,30l2,0 0,2 -2,0 0,-2z M130,30l2,0 0,2 -2,0 0,-2z M132,30l2,0 0,2 -2,0 0,-2z M136,30l2,0 0,2 -2,0 0,-2z M148,30l2,0 0,2 -2,0 0,-2z M150,30l2,0 0,2 -2,0 0,-2z M156,30l2,0 0,2 -2,0 0,-2z M8,32l2,0 0,2 -2,0 0,-2z M10,32l2,0 0,2 -2,0 0,-2z M18,32l2,0 0,2 -2,0 0,-2z M20,32l2,0 0,2 -2,0 0,-2z M22,32l2,0 0,2 -2,0 0,-2z M28,32l2,0 0,2 -2,0 0,-2z M32,32l2,0 0,2 -2,0 0,-2z M36,32l2,0 0,2 -2,0 0,-2z M38,32l2,0 0,2 -2,0 0,-2z M40,32l2,0 0,2 -2,0 0,-2z M44,32l2,0 0,2 -2,0 0,-2z M46,32l2,0 0,2 -2,0 0,-2z M52,32l2,0 0,2 -2,0 0,-2z M56,32l2,0 0,2 -2,0 0,-2z M58,32l2,0 0,2 -2,0 0,-2z M60,32l2,0 0,2 -2,0 0,-2z M64,32l2,0 0,2 -2,0 0,-2z M68,32l2,0 0,2 -2,0 0,-2z M70,32l2,0 0,2 -2,0 0,-2z M72,32l2,0 0,2 -2,0 0,-2z M76,32l2,0 0,2 -2,0 0,-2z M78,32l2,0 0,2 -2,0 0,-2z M80,32l2,0 0,2 -2,0 0,-2z M82,32l2,0 0,2 -2,0 0,-2z M84,32l2,0 0,2 -2,0 0,-2z M86,32l2,0 0,2 -2,0 0,-2z M88,32l2,0 0,2 -2,0 0,-2z M90,32l2,0 0,2 -2,0 0,-2z M92,32l2,0 0,2 -2,0 0,-2z M94,32l2,0 0,2 -2,0 0,-2z M96,32l2,0 0,2 -2,0 0,-2z M98,32l2,0 0,2 -2,0 0,-2z M106,32l2,0 0,2 -2,0 0,-2z M112,32l2,0 0,2 -2,0 0,-2z M120,32l2,0 0,2 -2,0 0,-2z M122,32l2,0 0,2 -2,0 0,-2z M128,32l2,0 0,2 -2,0 0,-2z M130,32l2,0 0,2 -2,0 0,-2z M132,32l2,0 0,2 -2,0 0,-2z M136,32l2,0 0,2 -2,0 0,-2z M154,32l2,0 0,2 -2,0 0,-2z M160,32l2,0 0,2 -2,0 0,-2z M10,34l2,0 0,2 -2,0 0,-2z M12,34l2,0 0,2 -2,0 0,-2z M18,34l2,0 0,2 -2,0 0,-2z M24,34l2,0 0,2 -2,0 0,-2z M26,34l2,0 0,2 -2,0 0,-2z M28,34l2,0 0,2 -2,0 0,-2z M36,34l2,0 0,2 -2,0 0,-2z M44,34l2,0 0,2 -2,0 0,-2z M54,34l2,0 0,2 -2,0 0,-2z M56,34l2,0 0,2 -2,0 0,-2z M62,34l2,0 0,2 -2,0 0,-2z M64,34l2,0 0,2 -2,0 0,-2z M70,34l2,0 0,2 -2,0 0,-2z M76,34l2,0 0,2 -2,0 0,-2z M82,34l2,0 0,2 -2,0 0,-2z M86,34l2,0 0,2 -2,0 0,-2z M88,34l2,0 0,2 -2,0 0,-2z M98,34l2,0 0,2 -2,0 0,-2z M100,34l2,0 0,2 -2,0 0,-2z M114,34l2,0 0,2 -2,0 0,-2z M118,34l2,0 0,2 -2,0 0,-2z M122,34l2,0 0,2 -2,0 0,-2z M124,34l2,0 0,2 -2,0 0,-2z M126,34l2,0 0,2 -2,0 0,-2z M134,34l2,0 0,2 -2,0 0,-2z M138,34l2,0 0,2 -2,0 0,-2z M144,34l2,0 0,2 -2,0 0,-2z M146,34l2,0 0,2 -2,0 0,-2z M152,34l2,0 0,2 -2,0 0,-2z M158,34l2,0 0,2 -2,0 0,-2z M160,34l2,0 0,2 -2,0 0,-2z M10,36l2,0 0,2 -2,0 0,-2z M12,36l2,0 0,2 -2,0 0,-2z M14,36l2,0 0,2 -2,0 0,-2z M20,36l2,0 0,2 -2,0 0,-2z M24,36l2,0 0,2 -2,0 0,-2z M30,36l2,0 0,2 -2,0 0,-2z M34,36l2,0 0,2 -2,0 0,-2z M36,36l2,0 0,2 -2,0 0,-2z M38,36l2,0 0,2 -2,0 0,-2z M44,36l2,0 0,2 -2,0 0,-2z M48,36l2,0 0,2 -2,0 0,-2z M50,36l2,0 0,2 -2,0 0,-2z M62,36l2,0 0,2 -2,0 0,-2z M64,36l2,0 0,2 -2,0 0,-2z M66,36l2,0 0,2 -2,0 0,-2z M72,36l2,0 0,2 -2,0 0,-2z M74,36l2,0 0,2 -2,0 0,-2z M80,36l2,0 0,2 -2,0 0,-2z M82,36l2,0 0,2 -2,0 0,-2z M84,36l2,0 0,2 -2,0 0,-2z M90,36l2,0 0,2 -2,0 0,-2z M94,36l2,0 0,2 -2,0 0,-2z M96,36l2,0 0,2 -2,0 0,-2z M98,36l2,0 0,2 -2,0 0,-2z M102,36l2,0 0,2 -2,0 0,-2z M106,36l2,0 0,2 -2,0 0,-2z M108,36l2,0 0,2 -2,0 0,-2z M110,36l2,0 0,2 -2,0 0,-2z M112,36l2,0 0,2 -2,0 0,-2z M118,36l2,0 0,2 -2,0 0,-2z M120,36l2,0 0,2 -2,0 0,-2z M122,36l2,0 0,2 -2,0 0,-2z M124,36l2,0 0,2 -2,0 0,-2z M126,36l2,0 0,2 -2,0 0,-2z M130,36l2,0 0,2 -2,0 0,-2z M132,36l2,0 0,2 -2,0 0,-2z M134,36l2,0 0,2 -2,0 0,-2z M136,36l2,0 0,2 -2,0 0,-2z M138,36l2,0 0,2 -2,0 0,-2z M140,36l2,0 0,2 -2,0 0,-2z M144,36l2,0 0,2 -2,0 0,-2z M146,36l2,0 0,2 -2,0 0,-2z M148,36l2,0 0,2 -2,0 0,-2z M156,36l2,0 0,2 -2,0 0,-2z M158,36l2,0 0,2 -2,0 0,-2z M160,36l2,0 0,2 -2,0 0,-2z M12,38l2,0 0,2 -2,0 0,-2z M16,38l2,0 0,2 -2,0 0,-2z M18,38l2,0 0,2 -2,0 0,-2z M26,38l2,0 0,2 -2,0 0,-2z M28,38l2,0 0,2 -2,0 0,-2z M30,38l2,0 0,2 -2,0 0,-2z M34,38l2,0 0,2 -2,0 0,-2z M48,38l2,0 0,2 -2,0 0,-2z M52,38l2,0 0,2 -2,0 0,-2z M54,38l2,0 0,2 -2,0 0,-2z M56,38l2,0 0,2 -2,0 0,-2z M58,38l2,0 0,2 -2,0 0,-2z M60,38l2,0 0,2 -2,0 0,-2z M64,38l2,0 0,2 -2,0 0,-2z M68,38l2,0 0,2 -2,0 0,-2z M76,38l2,0 0,2 -2,0 0,-2z M80,38l2,0 0,2 -2,0 0,-2z M86,38l2,0 0,2 -2,0 0,-2z M88,38l2,0 0,2 -2,0 0,-2z M90,38l2,0 0,2 -2,0 0,-2z M94,38l2,0 0,2 -2,0 0,-2z M96,38l2,0 0,2 -2,0 0,-2z M102,38l2,0 0,2 -2,0 0,-2z M112,38l2,0 0,2 -2,0 0,-2z M120,38l2,0 0,2 -2,0 0,-2z M122,38l2,0 0,2 -2,0 0,-2z M142,38l2,0 0,2 -2,0 0,-2z M150,38l2,0 0,2 -2,0 0,-2z M8,40l2,0 0,2 -2,0 0,-2z M14,40l2,0 0,2 -2,0 0,-2z M16,40l2,0 0,2 -2,0 0,-2z M20,40l2,0 0,2 -2,0 0,-2z M22,40l2,0 0,2 -2,0 0,-2z M24,40l2,0 0,2 -2,0 0,-2z M28,40l2,0 0,2 -2,0 0,-2z M30,40l2,0 0,2 -2,0 0,-2z M34,40l2,0 0,2 -2,0 0,-2z M36,40l2,0 0,2 -2,0 0,-2z M38,40l2,0 0,2 -2,0 0,-2z M46,40l2,0 0,2 -2,0 0,-2z M48,40l2,0 0,2 -2,0 0,-2z M50,40l2,0 0,2 -2,0 0,-2z M54,40l2,0 0,2 -2,0 0,-2z M56,40l2,0 0,2 -2,0 0,-2z M58,40l2,0 0,2 -2,0 0,-2z M60,40l2,0 0,2 -2,0 0,-2z M62,40l2,0 0,2 -2,0 0,-2z M64,40l2,0 0,2 -2,0 0,-2z M68,40l2,0 0,2 -2,0 0,-2z M72,40l2,0 0,2 -2,0 0,-2z M74,40l2,0 0,2 -2,0 0,-2z M78,40l2,0 0,2 -2,0 0,-2z M80,40l2,0 0,2 -2,0 0,-2z M82,40l2,0 0,2 -2,0 0,-2z M84,40l2,0 0,2 -2,0 0,-2z M86,40l2,0 0,2 -2,0 0,-2z M96,40l2,0 0,2 -2,0 0,-2z M98,40l2,0 0,2 -2,0 0,-2z M104,40l2,0 0,2 -2,0 0,-2z M106,40l2,0 0,2 -2,0 0,-2z M108,40l2,0 0,2 -2,0 0,-2z M112,40l2,0 0,2 -2,0 0,-2z M118,40l2,0 0,2 -2,0 0,-2z M120,40l2,0 0,2 -2,0 0,-2z M122,40l2,0 0,2 -2,0 0,-2z M130,40l2,0 0,2 -2,0 0,-2z M132,40l2,0 0,2 -2,0 0,-2z M136,40l2,0 0,2 -2,0 0,-2z M138,40l2,0 0,2 -2,0 0,-2z M146,40l2,0 0,2 -2,0 0,-2z M148,40l2,0 0,2 -2,0 0,-2z M150,40l2,0 0,2 -2,0 0,-2z M152,40l2,0 0,2 -2,0 0,-2z M154,40l2,0 0,2 -2,0 0,-2z M156,40l2,0 0,2 -2,0 0,-2z M160,40l2,0 0,2 -2,0 0,-2z M8,42l2,0 0,2 -2,0 0,-2z M10,42l2,0 0,2 -2,0 0,-2z M18,42l2,0 0,2 -2,0 0,-2z M22,42l2,0 0,2 -2,0 0,-2z M26,42l2,0 0,2 -2,0 0,-2z M28,42l2,0 0,2 -2,0 0,-2z M30,42l2,0 0,2 -2,0 0,-2z M32,42l2,0 0,2 -2,0 0,-2z M36,42l2,0 0,2 -2,0 0,-2z M38,42l2,0 0,2 -2,0 0,-2z M40,42l2,0 0,2 -2,0 0,-2z M42,42l2,0 0,2 -2,0 0,-2z M44,42l2,0 0,2 -2,0 0,-2z M46,42l2,0 0,2 -2,0 0,-2z M50,42l2,0 0,2 -2,0 0,-2z M52,42l2,0 0,2 -2,0 0,-2z M54,42l2,0 0,2 -2,0 0,-2z M58,42l2,0 0,2 -2,0 0,-2z M66,42l2,0 0,2 -2,0 0,-2z M70,42l2,0 0,2 -2,0 0,-2z M74,42l2,0 0,2 -2,0 0,-2z M78,42l2,0 0,2 -2,0 0,-2z M80,42l2,0 0,2 -2,0 0,-2z M84,42l2,0 0,2 -2,0 0,-2z M90,42l2,0 0,2 -2,0 0,-2z M98,42l2,0 0,2 -2,0 0,-2z M100,42l2,0 0,2 -2,0 0,-2z M102,42l2,0 0,2 -2,0 0,-2z M104,42l2,0 0,2 -2,0 0,-2z M106,42l2,0 0,2 -2,0 0,-2z M112,42l2,0 0,2 -2,0 0,-2z M118,42l2,0 0,2 -2,0 0,-2z M120,42l2,0 0,2 -2,0 0,-2z M122,42l2,0 0,2 -2,0 0,-2z M124,42l2,0 0,2 -2,0 0,-2z M128,42l2,0 0,2 -2,0 0,-2z M130,42l2,0 0,2 -2,0 0,-2z M134,42l2,0 0,2 -2,0 0,-2z M140,42l2,0 0,2 -2,0 0,-2z M142,42l2,0 0,2 -2,0 0,-2z M144,42l2,0 0,2 -2,0 0,-2z M150,42l2,0 0,2 -2,0 0,-2z M160,42l2,0 0,2 -2,0 0,-2z M12,44l2,0 0,2 -2,0 0,-2z M16,44l2,0 0,2 -2,0 0,-2z M20,44l2,0 0,2 -2,0 0,-2z M24,44l2,0 0,2 -2,0 0,-2z M26,44l2,0 0,2 -2,0 0,-2z M28,44l2,0 0,2 -2,0 0,-2z M30,44l2,0 0,2 -2,0 0,-2z M34,44l2,0 0,2 -2,0 0,-2z M42,44l2,0 0,2 -2,0 0,-2z M48,44l2,0 0,2 -2,0 0,-2z M52,44l2,0 0,2 -2,0 0,-2z M62,44l2,0 0,2 -2,0 0,-2z M64,44l2,0 0,2 -2,0 0,-2z M76,44l2,0 0,2 -2,0 0,-2z M78,44l2,0 0,2 -2,0 0,-2z M84,44l2,0 0,2 -2,0 0,-2z M88,44l2,0 0,2 -2,0 0,-2z M94,44l2,0 0,2 -2,0 0,-2z M96,44l2,0 0,2 -2,0 0,-2z M106,44l2,0 0,2 -2,0 0,-2z M110,44l2,0 0,2 -2,0 0,-2z M112,44l2,0 0,2 -2,0 0,-2z M114,44l2,0 0,2 -2,0 0,-2z M118,44l2,0 0,2 -2,0 0,-2z M120,44l2,0 0,2 -2,0 0,-2z M122,44l2,0 0,2 -2,0 0,-2z M128,44l2,0 0,2 -2,0 0,-2z M130,44l2,0 0,2 -2,0 0,-2z M132,44l2,0 0,2 -2,0 0,-2z M138,44l2,0 0,2 -2,0 0,-2z M142,44l2,0 0,2 -2,0 0,-2z M144,44l2,0 0,2 -2,0 0,-2z M148,44l2,0 0,2 -2,0 0,-2z M160,44l2,0 0,2 -2,0 0,-2z M12,46l2,0 0,2 -2,0 0,-2z M16,46l2,0 0,2 -2,0 0,-2z M18,46l2,0 0,2 -2,0 0,-2z M22,46l2,0 0,2 -2,0 0,-2z M24,46l2,0 0,2 -2,0 0,-2z M26,46l2,0 0,2 -2,0 0,-2z M28,46l2,0 0,2 -2,0 0,-2z M50,46l2,0 0,2 -2,0 0,-2z M52,46l2,0 0,2 -2,0 0,-2z M54,46l2,0 0,2 -2,0 0,-2z M56,46l2,0 0,2 -2,0 0,-2z M60,46l2,0 0,2 -2,0 0,-2z M64,46l2,0 0,2 -2,0 0,-2z M68,46l2,0 0,2 -2,0 0,-2z M72,46l2,0 0,2 -2,0 0,-2z M80,46l2,0 0,2 -2,0 0,-2z M86,46l2,0 0,2 -2,0 0,-2z M90,46l2,0 0,2 -2,0 0,-2z M96,46l2,0 0,2 -2,0 0,-2z M98,46l2,0 0,2 -2,0 0,-2z M100,46l2,0 0,2 -2,0 0,-2z M102,46l2,0 0,2 -2,0 0,-2z M118,46l2,0 0,2 -2,0 0,-2z M120,46l2,0 0,2 -2,0 0,-2z M122,46l2,0 0,2 -2,0 0,-2z M124,46l2,0 0,2 -2,0 0,-2z M128,46l2,0 0,2 -2,0 0,-2z M132,46l2,0 0,2 -2,0 0,-2z M134,46l2,0 0,2 -2,0 0,-2z M138,46l2,0 0,2 -2,0 0,-2z M146,46l2,0 0,2 -2,0 0,-2z M148,46l2,0 0,2 -2,0 0,-2z M150,46l2,0 0,2 -2,0 0,-2z M154,46l2,0 0,2 -2,0 0,-2z M160,46l2,0 0,2 -2,0 0,-2z M14,48l2,0 0,2 -2,0 0,-2z M16,48l2,0 0,2 -2,0 0,-2z M20,48l2,0 0,2 -2,0 0,-2z M30,48l2,0 0,2 -2,0 0,-2z M32,48l2,0 0,2 -2,0 0,-2z M36,48l2,0 0,2 -2,0 0,-2z M38,48l2,0 0,2 -2,0 0,-2z M42,48l2,0 0,2 -2,0 0,-2z M48,48l2,0 0,2 -2,0 0,-2z M52,48l2,0 0,2 -2,0 0,-2z M54,48l2,0 0,2 -2,0 0,-2z M58,48l2,0 0,2 -2,0 0,-2z M62,48l2,0 0,2 -2,0 0,-2z M64,48l2,0 0,2 -2,0 0,-2z M66,48l2,0 0,2 -2,0 0,-2z M70,48l2,0 0,2 -2,0 0,-2z M74,48l2,0 0,2 -2,0 0,-2z M80,48l2,0 0,2 -2,0 0,-2z M82,48l2,0 0,2 -2,0 0,-2z M84,48l2,0 0,2 -2,0 0,-2z M88,48l2,0 0,2 -2,0 0,-2z M98,48l2,0 0,2 -2,0 0,-2z M102,48l2,0 0,2 -2,0 0,-2z M104,48l2,0 0,2 -2,0 0,-2z M112,48l2,0 0,2 -2,0 0,-2z M114,48l2,0 0,2 -2,0 0,-2z M120,48l2,0 0,2 -2,0 0,-2z M124,48l2,0 0,2 -2,0 0,-2z M126,48l2,0 0,2 -2,0 0,-2z M128,48l2,0 0,2 -2,0 0,-2z M136,48l2,0 0,2 -2,0 0,-2z M140,48l2,0 0,2 -2,0 0,-2z M144,48l2,0 0,2 -2,0 0,-2z M146,48l2,0 0,2 -2,0 0,-2z M156,48l2,0 0,2 -2,0 0,-2z M158,48l2,0 0,2 -2,0 0,-2z M160,48l2,0 0,2 -2,0 0,-2z M8,50l2,0 0,2 -2,0 0,-2z M16,50l2,0 0,2 -2,0 0,-2z M18,50l2,0 0,2 -2,0 0,-2z M24,50l2,0 0,2 -2,0 0,-2z M26,50l2,0 0,2 -2,0 0,-2z M36,50l2,0 0,2 -2,0 0,-2z M46,50l2,0 0,2 -2,0 0,-2z M48,50l2,0 0,2 -2,0 0,-2z M50,50l2,0 0,2 -2,0 0,-2z M52,50l2,0 0,2 -2,0 0,-2z M54,50l2,0 0,2 -2,0 0,-2z M56,50l2,0 0,2 -2,0 0,-2z M74,50l2,0 0,2 -2,0 0,-2z M82,50l2,0 0,2 -2,0 0,-2z M88,50l2,0 0,2 -2,0 0,-2z M96,50l2,0 0,2 -2,0 0,-2z M98,50l2,0 0,2 -2,0 0,-2z M100,50l2,0 0,2 -2,0 0,-2z M104,50l2,0 0,2 -2,0 0,-2z M106,50l2,0 0,2 -2,0 0,-2z M114,50l2,0 0,2 -2,0 0,-2z M120,50l2,0 0,2 -2,0 0,-2z M122,50l2,0 0,2 -2,0 0,-2z M126,50l2,0 0,2 -2,0 0,-2z M128,50l2,0 0,2 -2,0 0,-2z M130,50l2,0 0,2 -2,0 0,-2z M138,50l2,0 0,2 -2,0 0,-2z M142,50l2,0 0,2 -2,0 0,-2z M146,50l2,0 0,2 -2,0 0,-2z M150,50l2,0 0,2 -2,0 0,-2z M152,50l2,0 0,2 -2,0 0,-2z M156,50l2,0 0,2 -2,0 0,-2z M158,50l2,0 0,2 -2,0 0,-2z M160,50l2,0 0,2 -2,0 0,-2z M10,52l2,0 0,2 -2,0 0,-2z M12,52l2,0 0,2 -2,0 0,-2z M14,52l2,0 0,2 -2,0 0,-2z M20,52l2,0 0,2 -2,0 0,-2z M24,52l2,0 0,2 -2,0 0,-2z M34,52l2,0 0,2 -2,0 0,-2z M38,52l2,0 0,2 -2,0 0,-2z M40,52l2,0 0,2 -2,0 0,-2z M42,52l2,0 0,2 -2,0 0,-2z M44,52l2,0 0,2 -2,0 0,-2z M50,52l2,0 0,2 -2,0 0,-2z M58,52l2,0 0,2 -2,0 0,-2z M64,52l2,0 0,2 -2,0 0,-2z M66,52l2,0 0,2 -2,0 0,-2z M72,52l2,0 0,2 -2,0 0,-2z M76,52l2,0 0,2 -2,0 0,-2z M78,52l2,0 0,2 -2,0 0,-2z M80,52l2,0 0,2 -2,0 0,-2z M82,52l2,0 0,2 -2,0 0,-2z M86,52l2,0 0,2 -2,0 0,-2z M88,52l2,0 0,2 -2,0 0,-2z M94,52l2,0 0,2 -2,0 0,-2z M96,52l2,0 0,2 -2,0 0,-2z M98,52l2,0 0,2 -2,0 0,-2z M100,52l2,0 0,2 -2,0 0,-2z M108,52l2,0 0,2 -2,0 0,-2z M112,52l2,0 0,2 -2,0 0,-2z M114,52l2,0 0,2 -2,0 0,-2z M126,52l2,0 0,2 -2,0 0,-2z M128,52l2,0 0,2 -2,0 0,-2z M130,52l2,0 0,2 -2,0 0,-2z M136,52l2,0 0,2 -2,0 0,-2z M144,52l2,0 0,2 -2,0 0,-2z M146,52l2,0 0,2 -2,0 0,-2z M152,52l2,0 0,2 -2,0 0,-2z M156,52l2,0 0,2 -2,0 0,-2z M158,52l2,0 0,2 -2,0 0,-2z M10,54l2,0 0,2 -2,0 0,-2z M14,54l2,0 0,2 -2,0 0,-2z M18,54l2,0 0,2 -2,0 0,-2z M22,54l2,0 0,2 -2,0 0,-2z M24,54l2,0 0,2 -2,0 0,-2z M26,54l2,0 0,2 -2,0 0,-2z M28,54l2,0 0,2 -2,0 0,-2z M32,54l2,0 0,2 -2,0 0,-2z M34,54l2,0 0,2 -2,0 0,-2z M42,54l2,0 0,2 -2,0 0,-2z M44,54l2,0 0,2 -2,0 0,-2z M46,54l2,0 0,2 -2,0 0,-2z M48,54l2,0 0,2 -2,0 0,-2z M58,54l2,0 0,2 -2,0 0,-2z M62,54l2,0 0,2 -2,0 0,-2z M64,54l2,0 0,2 -2,0 0,-2z M70,54l2,0 0,2 -2,0 0,-2z M72,54l2,0 0,2 -2,0 0,-2z M74,54l2,0 0,2 -2,0 0,-2z M80,54l2,0 0,2 -2,0 0,-2z M82,54l2,0 0,2 -2,0 0,-2z M84,54l2,0 0,2 -2,0 0,-2z M86,54l2,0 0,2 -2,0 0,-2z M88,54l2,0 0,2 -2,0 0,-2z M104,54l2,0 0,2 -2,0 0,-2z M106,54l2,0 0,2 -2,0 0,-2z M112,54l2,0 0,2 -2,0 0,-2z M114,54l2,0 0,2 -2,0 0,-2z M120,54l2,0 0,2 -2,0 0,-2z M122,54l2,0 0,2 -2,0 0,-2z M126,54l2,0 0,2 -2,0 0,-2z M128,54l2,0 0,2 -2,0 0,-2z M130,54l2,0 0,2 -2,0 0,-2z M132,54l2,0 0,2 -2,0 0,-2z M136,54l2,0 0,2 -2,0 0,-2z M142,54l2,0 0,2 -2,0 0,-2z M144,54l2,0 0,2 -2,0 0,-2z M146,54l2,0 0,2 -2,0 0,-2z M156,54l2,0 0,2 -2,0 0,-2z M160,54l2,0 0,2 -2,0 0,-2z M10,56l2,0 0,2 -2,0 0,-2z M14,56l2,0 0,2 -2,0 0,-2z M16,56l2,0 0,2 -2,0 0,-2z M18,56l2,0 0,2 -2,0 0,-2z M20,56l2,0 0,2 -2,0 0,-2z M22,56l2,0 0,2 -2,0 0,-2z M24,56l2,0 0,2 -2,0 0,-2z M26,56l2,0 0,2 -2,0 0,-2z M30,56l2,0 0,2 -2,0 0,-2z M32,56l2,0 0,2 -2,0 0,-2z M34,56l2,0 0,2 -2,0 0,-2z M36,56l2,0 0,2 -2,0 0,-2z M40,56l2,0 0,2 -2,0 0,-2z M46,56l2,0 0,2 -2,0 0,-2z M52,56l2,0 0,2 -2,0 0,-2z M56,56l2,0 0,2 -2,0 0,-2z M58,56l2,0 0,2 -2,0 0,-2z M60,56l2,0 0,2 -2,0 0,-2z M62,56l2,0 0,2 -2,0 0,-2z M64,56l2,0 0,2 -2,0 0,-2z M66,56l2,0 0,2 -2,0 0,-2z M68,56l2,0 0,2 -2,0 0,-2z M70,56l2,0 0,2 -2,0 0,-2z M72,56l2,0 0,2 -2,0 0,-2z M74,56l2,0 0,2 -2,0 0,-2z M76,56l2,0 0,2 -2,0 0,-2z M78,56l2,0 0,2 -2,0 0,-2z M80,56l2,0 0,2 -2,0 0,-2z M82,56l2,0 0,2 -2,0 0,-2z M88,56l2,0 0,2 -2,0 0,-2z M92,56l2,0 0,2 -2,0 0,-2z M96,56l2,0 0,2 -2,0 0,-2z M100,56l2,0 0,2 -2,0 0,-2z M102,56l2,0 0,2 -2,0 0,-2z M104,56l2,0 0,2 -2,0 0,-2z M106,56l2,0 0,2 -2,0 0,-2z M108,56l2,0 0,2 -2,0 0,-2z M116,56l2,0 0,2 -2,0 0,-2z M124,56l2,0 0,2 -2,0 0,-2z M128,56l2,0 0,2 -2,0 0,-2z M130,56l2,0 0,2 -2,0 0,-2z M142,56l2,0 0,2 -2,0 0,-2z M144,56l2,0 0,2 -2,0 0,-2z M146,56l2,0 0,2 -2,0 0,-2z M148,56l2,0 0,2 -2,0 0,-2z M150,56l2,0 0,2 -2,0 0,-2z M152,56l2,0 0,2 -2,0 0,-2z M154,56l2,0 0,2 -2,0 0,-2z M156,56l2,0 0,2 -2,0 0,-2z M158,56l2,0 0,2 -2,0 0,-2z M8,58l2,0 0,2 -2,0 0,-2z M14,58l2,0 0,2 -2,0 0,-2z M16,58l2,0 0,2 -2,0 0,-2z M24,58l2,0 0,2 -2,0 0,-2z M26,58l2,0 0,2 -2,0 0,-2z M30,58l2,0 0,2 -2,0 0,-2z M34,58l2,0 0,2 -2,0 0,-2z M44,58l2,0 0,2 -2,0 0,-2z M48,58l2,0 0,2 -2,0 0,-2z M50,58l2,0 0,2 -2,0 0,-2z M56,58l2,0 0,2 -2,0 0,-2z M64,58l2,0 0,2 -2,0 0,-2z M76,58l2,0 0,2 -2,0 0,-2z M78,58l2,0 0,2 -2,0 0,-2z M82,58l2,0 0,2 -2,0 0,-2z M90,58l2,0 0,2 -2,0 0,-2z M94,58l2,0 0,2 -2,0 0,-2z M98,58l2,0 0,2 -2,0 0,-2z M100,58l2,0 0,2 -2,0 0,-2z M108,58l2,0 0,2 -2,0 0,-2z M110,58l2,0 0,2 -2,0 0,-2z M114,58l2,0 0,2 -2,0 0,-2z M116,58l2,0 0,2 -2,0 0,-2z M122,58l2,0 0,2 -2,0 0,-2z M126,58l2,0 0,2 -2,0 0,-2z M128,58l2,0 0,2 -2,0 0,-2z M132,58l2,0 0,2 -2,0 0,-2z M134,58l2,0 0,2 -2,0 0,-2z M138,58l2,0 0,2 -2,0 0,-2z M140,58l2,0 0,2 -2,0 0,-2z M142,58l2,0 0,2 -2,0 0,-2z M144,58l2,0 0,2 -2,0 0,-2z M152,58l2,0 0,2 -2,0 0,-2z M158,58l2,0 0,2 -2,0 0,-2z M160,58l2,0 0,2 -2,0 0,-2z M12,60l2,0 0,2 -2,0 0,-2z M14,60l2,0 0,2 -2,0 0,-2z M16,60l2,0 0,2 -2,0 0,-2z M20,60l2,0 0,2 -2,0 0,-2z M24,60l2,0 0,2 -2,0 0,-2z M28,60l2,0 0,2 -2,0 0,-2z M32,60l2,0 0,2 -2,0 0,-2z M38,60l2,0 0,2 -2,0 0,-2z M42,60l2,0 0,2 -2,0 0,-2z M44,60l2,0 0,2 -2,0 0,-2z M46,60l2,0 0,2 -2,0 0,-2z M48,60l2,0 0,2 -2,0 0,-2z M52,60l2,0 0,2 -2,0 0,-2z M54,60l2,0 0,2 -2,0 0,-2z M56,60l2,0 0,2 -2,0 0,-2z M60,60l2,0 0,2 -2,0 0,-2z M64,60l2,0 0,2 -2,0 0,-2z M66,60l2,0 0,2 -2,0 0,-2z M84,60l2,0 0,2 -2,0 0,-2z M88,60l2,0 0,2 -2,0 0,-2z M94,60l2,0 0,2 -2,0 0,-2z M98,60l2,0 0,2 -2,0 0,-2z M100,60l2,0 0,2 -2,0 0,-2z M104,60l2,0 0,2 -2,0 0,-2z M108,60l2,0 0,2 -2,0 0,-2z M112,60l2,0 0,2 -2,0 0,-2z M116,60l2,0 0,2 -2,0 0,-2z M118,60l2,0 0,2 -2,0 0,-2z M122,60l2,0 0,2 -2,0 0,-2z M124,60l2,0 0,2 -2,0 0,-2z M128,60l2,0 0,2 -2,0 0,-2z M130,60l2,0 0,2 -2,0 0,-2z M132,60l2,0 0,2 -2,0 0,-2z M140,60l2,0 0,2 -2,0 0,-2z M144,60l2,0 0,2 -2,0 0,-2z M148,60l2,0 0,2 -2,0 0,-2z M152,60l2,0 0,2 -2,0 0,-2z M154,60l2,0 0,2 -2,0 0,-2z M156,60l2,0 0,2 -2,0 0,-2z M158,60l2,0 0,2 -2,0 0,-2z M160,60l2,0 0,2 -2,0 0,-2z M14,62l2,0 0,2 -2,0 0,-2z M16,62l2,0 0,2 -2,0 0,-2z M24,62l2,0 0,2 -2,0 0,-2z M26,62l2,0 0,2 -2,0 0,-2z M32,62l2,0 0,2 -2,0 0,-2z M34,62l2,0 0,2 -2,0 0,-2z M36,62l2,0 0,2 -2,0 0,-2z M48,62l2,0 0,2 -2,0 0,-2z M50,62l2,0 0,2 -2,0 0,-2z M54,62l2,0 0,2 -2,0 0,-2z M56,62l2,0 0,2 -2,0 0,-2z M64,62l2,0 0,2 -2,0 0,-2z M70,62l2,0 0,2 -2,0 0,-2z M72,62l2,0 0,2 -2,0 0,-2z M80,62l2,0 0,2 -2,0 0,-2z M84,62l2,0 0,2 -2,0 0,-2z M88,62l2,0 0,2 -2,0 0,-2z M96,62l2,0 0,2 -2,0 0,-2z M98,62l2,0 0,2 -2,0 0,-2z M100,62l2,0 0,2 -2,0 0,-2z M108,62l2,0 0,2 -2,0 0,-2z M110,62l2,0 0,2 -2,0 0,-2z M112,62l2,0 0,2 -2,0 0,-2z M114,62l2,0 0,2 -2,0 0,-2z M116,62l2,0 0,2 -2,0 0,-2z M120,62l2,0 0,2 -2,0 0,-2z M136,62l2,0 0,2 -2,0 0,-2z M138,62l2,0 0,2 -2,0 0,-2z M140,62l2,0 0,2 -2,0 0,-2z M142,62l2,0 0,2 -2,0 0,-2z M144,62l2,0 0,2 -2,0 0,-2z M152,62l2,0 0,2 -2,0 0,-2z M158,62l2,0 0,2 -2,0 0,-2z M160,62l2,0 0,2 -2,0 0,-2z M12,64l2,0 0,2 -2,0 0,-2z M14,64l2,0 0,2 -2,0 0,-2z M16,64l2,0 0,2 -2,0 0,-2z M18,64l2,0 0,2 -2,0 0,-2z M20,64l2,0 0,2 -2,0 0,-2z M22,64l2,0 0,2 -2,0 0,-2z M24,64l2,0 0,2 -2,0 0,-2z M30,64l2,0 0,2 -2,0 0,-2z M32,64l2,0 0,2 -2,0 0,-2z M34,64l2,0 0,2 -2,0 0,-2z M44,64l2,0 0,2 -2,0 0,-2z M46,64l2,0 0,2 -2,0 0,-2z M56,64l2,0 0,2 -2,0 0,-2z M58,64l2,0 0,2 -2,0 0,-2z M60,64l2,0 0,2 -2,0 0,-2z M62,64l2,0 0,2 -2,0 0,-2z M64,64l2,0 0,2 -2,0 0,-2z M66,64l2,0 0,2 -2,0 0,-2z M68,64l2,0 0,2 -2,0 0,-2z M72,64l2,0 0,2 -2,0 0,-2z M74,64l2,0 0,2 -2,0 0,-2z M78,64l2,0 0,2 -2,0 0,-2z M80,64l2,0 0,2 -2,0 0,-2z M82,64l2,0 0,2 -2,0 0,-2z M84,64l2,0 0,2 -2,0 0,-2z M86,64l2,0 0,2 -2,0 0,-2z M90,64l2,0 0,2 -2,0 0,-2z M96,64l2,0 0,2 -2,0 0,-2z M100,64l2,0 0,2 -2,0 0,-2z M102,64l2,0 0,2 -2,0 0,-2z M104,64l2,0 0,2 -2,0 0,-2z M106,64l2,0 0,2 -2,0 0,-2z M108,64l2,0 0,2 -2,0 0,-2z M114,64l2,0 0,2 -2,0 0,-2z M116,64l2,0 0,2 -2,0 0,-2z M118,64l2,0 0,2 -2,0 0,-2z M124,64l2,0 0,2 -2,0 0,-2z M130,64l2,0 0,2 -2,0 0,-2z M132,64l2,0 0,2 -2,0 0,-2z M136,64l2,0 0,2 -2,0 0,-2z M140,64l2,0 0,2 -2,0 0,-2z M144,64l2,0 0,2 -2,0 0,-2z M146,64l2,0 0,2 -2,0 0,-2z M148,64l2,0 0,2 -2,0 0,-2z M150,64l2,0 0,2 -2,0 0,-2z M152,64l2,0 0,2 -2,0 0,-2z M154,64l2,0 0,2 -2,0 0,-2z M156,64l2,0 0,2 -2,0 0,-2z M160,64l2,0 0,2 -2,0 0,-2z M18,66l2,0 0,2 -2,0 0,-2z M22,66l2,0 0,2 -2,0 0,-2z M28,66l2,0 0,2 -2,0 0,-2z M30,66l2,0 0,2 -2,0 0,-2z M32,66l2,0 0,2 -2,0 0,-2z M40,66l2,0 0,2 -2,0 0,-2z M44,66l2,0 0,2 -2,0 0,-2z M46,66l2,0 0,2 -2,0 0,-2z M50,66l2,0 0,2 -2,0 0,-2z M52,66l2,0 0,2 -2,0 0,-2z M58,66l2,0 0,2 -2,0 0,-2z M60,66l2,0 0,2 -2,0 0,-2z M64,66l2,0 0,2 -2,0 0,-2z M66,66l2,0 0,2 -2,0 0,-2z M84,66l2,0 0,2 -2,0 0,-2z M86,66l2,0 0,2 -2,0 0,-2z M90,66l2,0 0,2 -2,0 0,-2z M94,66l2,0 0,2 -2,0 0,-2z M96,66l2,0 0,2 -2,0 0,-2z M100,66l2,0 0,2 -2,0 0,-2z M108,66l2,0 0,2 -2,0 0,-2z M118,66l2,0 0,2 -2,0 0,-2z M120,66l2,0 0,2 -2,0 0,-2z M122,66l2,0 0,2 -2,0 0,-2z M126,66l2,0 0,2 -2,0 0,-2z M130,66l2,0 0,2 -2,0 0,-2z M134,66l2,0 0,2 -2,0 0,-2z M136,66l2,0 0,2 -2,0 0,-2z M140,66l2,0 0,2 -2,0 0,-2z M146,66l2,0 0,2 -2,0 0,-2z M148,66l2,0 0,2 -2,0 0,-2z M150,66l2,0 0,2 -2,0 0,-2z M154,66l2,0 0,2 -2,0 0,-2z M156,66l2,0 0,2 -2,0 0,-2z M160,66l2,0 0,2 -2,0 0,-2z M8,68l2,0 0,2 -2,0 0,-2z M12,68l2,0 0,2 -2,0 0,-2z M16,68l2,0 0,2 -2,0 0,-2z M20,68l2,0 0,2 -2,0 0,-2z M22,68l2,0 0,2 -2,0 0,-2z M26,68l2,0 0,2 -2,0 0,-2z M28,68l2,0 0,2 -2,0 0,-2z M32,68l2,0 0,2 -2,0 0,-2z M40,68l2,0 0,2 -2,0 0,-2z M44,68l2,0 0,2 -2,0 0,-2z M46,68l2,0 0,2 -2,0 0,-2z M52,68l2,0 0,2 -2,0 0,-2z M54,68l2,0 0,2 -2,0 0,-2z M60,68l2,0 0,2 -2,0 0,-2z M62,68l2,0 0,2 -2,0 0,-2z M64,68l2,0 0,2 -2,0 0,-2z M66,68l2,0 0,2 -2,0 0,-2z M68,68l2,0 0,2 -2,0 0,-2z M70,68l2,0 0,2 -2,0 0,-2z M74,68l2,0 0,2 -2,0 0,-2z M78,68l2,0 0,2 -2,0 0,-2z M80,68l2,0 0,2 -2,0 0,-2z M98,68l2,0 0,2 -2,0 0,-2z M102,68l2,0 0,2 -2,0 0,-2z M108,68l2,0 0,2 -2,0 0,-2z M110,68l2,0 0,2 -2,0 0,-2z M114,68l2,0 0,2 -2,0 0,-2z M118,68l2,0 0,2 -2,0 0,-2z M120,68l2,0 0,2 -2,0 0,-2z M122,68l2,0 0,2 -2,0 0,-2z M138,68l2,0 0,2 -2,0 0,-2z M144,68l2,0 0,2 -2,0 0,-2z M146,68l2,0 0,2 -2,0 0,-2z M148,68l2,0 0,2 -2,0 0,-2z M152,68l2,0 0,2 -2,0 0,-2z M156,68l2,0 0,2 -2,0 0,-2z M158,68l2,0 0,2 -2,0 0,-2z M160,68l2,0 0,2 -2,0 0,-2z M10,70l2,0 0,2 -2,0 0,-2z M14,70l2,0 0,2 -2,0 0,-2z M16,70l2,0 0,2 -2,0 0,-2z M24,70l2,0 0,2 -2,0 0,-2z M32,70l2,0 0,2 -2,0 0,-2z M40,70l2,0 0,2 -2,0 0,-2z M42,70l2,0 0,2 -2,0 0,-2z M46,70l2,0 0,2 -2,0 0,-2z M50,70l2,0 0,2 -2,0 0,-2z M52,70l2,0 0,2 -2,0 0,-2z M54,70l2,0 0,2 -2,0 0,-2z M56,70l2,0 0,2 -2,0 0,-2z M58,70l2,0 0,2 -2,0 0,-2z M60,70l2,0 0,2 -2,0 0,-2z M62,70l2,0 0,2 -2,0 0,-2z M64,70l2,0 0,2 -2,0 0,-2z M66,70l2,0 0,2 -2,0 0,-2z M72,70l2,0 0,2 -2,0 0,-2z M80,70l2,0 0,2 -2,0 0,-2z M82,70l2,0 0,2 -2,0 0,-2z M86,70l2,0 0,2 -2,0 0,-2z M88,70l2,0 0,2 -2,0 0,-2z M92,70l2,0 0,2 -2,0 0,-2z M96,70l2,0 0,2 -2,0 0,-2z M98,70l2,0 0,2 -2,0 0,-2z M102,70l2,0 0,2 -2,0 0,-2z M104,70l2,0 0,2 -2,0 0,-2z M108,70l2,0 0,2 -2,0 0,-2z M112,70l2,0 0,2 -2,0 0,-2z M114,70l2,0 0,2 -2,0 0,-2z M118,70l2,0 0,2 -2,0 0,-2z M120,70l2,0 0,2 -2,0 0,-2z M122,70l2,0 0,2 -2,0 0,-2z M124,70l2,0 0,2 -2,0 0,-2z M128,70l2,0 0,2 -2,0 0,-2z M136,70l2,0 0,2 -2,0 0,-2z M138,70l2,0 0,2 -2,0 0,-2z M142,70l2,0 0,2 -2,0 0,-2z M146,70l2,0 0,2 -2,0 0,-2z M148,70l2,0 0,2 -2,0 0,-2z M152,70l2,0 0,2 -2,0 0,-2z M154,70l2,0 0,2 -2,0 0,-2z M158,70l2,0 0,2 -2,0 0,-2z M160,70l2,0 0,2 -2,0 0,-2z M8,72l2,0 0,2 -2,0 0,-2z M12,72l2,0 0,2 -2,0 0,-2z M16,72l2,0 0,2 -2,0 0,-2z M20,72l2,0 0,2 -2,0 0,-2z M22,72l2,0 0,2 -2,0 0,-2z M24,72l2,0 0,2 -2,0 0,-2z M28,72l2,0 0,2 -2,0 0,-2z M34,72l2,0 0,2 -2,0 0,-2z M38,72l2,0 0,2 -2,0 0,-2z M40,72l2,0 0,2 -2,0 0,-2z M42,72l2,0 0,2 -2,0 0,-2z M48,72l2,0 0,2 -2,0 0,-2z M52,72l2,0 0,2 -2,0 0,-2z M54,72l2,0 0,2 -2,0 0,-2z M60,72l2,0 0,2 -2,0 0,-2z M62,72l2,0 0,2 -2,0 0,-2z M64,72l2,0 0,2 -2,0 0,-2z M80,72l2,0 0,2 -2,0 0,-2z M86,72l2,0 0,2 -2,0 0,-2z M88,72l2,0 0,2 -2,0 0,-2z M90,72l2,0 0,2 -2,0 0,-2z M94,72l2,0 0,2 -2,0 0,-2z M98,72l2,0 0,2 -2,0 0,-2z M100,72l2,0 0,2 -2,0 0,-2z M116,72l2,0 0,2 -2,0 0,-2z M124,72l2,0 0,2 -2,0 0,-2z M126,72l2,0 0,2 -2,0 0,-2z M128,72l2,0 0,2 -2,0 0,-2z M130,72l2,0 0,2 -2,0 0,-2z M138,72l2,0 0,2 -2,0 0,-2z M146,72l2,0 0,2 -2,0 0,-2z M150,72l2,0 0,2 -2,0 0,-2z M152,72l2,0 0,2 -2,0 0,-2z M8,74l2,0 0,2 -2,0 0,-2z M10,74l2,0 0,2 -2,0 0,-2z M12,74l2,0 0,2 -2,0 0,-2z M22,74l2,0 0,2 -2,0 0,-2z M30,74l2,0 0,2 -2,0 0,-2z M36,74l2,0 0,2 -2,0 0,-2z M38,74l2,0 0,2 -2,0 0,-2z M40,74l2,0 0,2 -2,0 0,-2z M42,74l2,0 0,2 -2,0 0,-2z M46,74l2,0 0,2 -2,0 0,-2z M48,74l2,0 0,2 -2,0 0,-2z M62,74l2,0 0,2 -2,0 0,-2z M64,74l2,0 0,2 -2,0 0,-2z M72,74l2,0 0,2 -2,0 0,-2z M86,74l2,0 0,2 -2,0 0,-2z M94,74l2,0 0,2 -2,0 0,-2z M96,74l2,0 0,2 -2,0 0,-2z M98,74l2,0 0,2 -2,0 0,-2z M100,74l2,0 0,2 -2,0 0,-2z M102,74l2,0 0,2 -2,0 0,-2z M104,74l2,0 0,2 -2,0 0,-2z M106,74l2,0 0,2 -2,0 0,-2z M108,74l2,0 0,2 -2,0 0,-2z M110,74l2,0 0,2 -2,0 0,-2z M112,74l2,0 0,2 -2,0 0,-2z M114,74l2,0 0,2 -2,0 0,-2z M116,74l2,0 0,2 -2,0 0,-2z M120,74l2,0 0,2 -2,0 0,-2z M122,74l2,0 0,2 -2,0 0,-2z M126,74l2,0 0,2 -2,0 0,-2z M130,74l2,0 0,2 -2,0 0,-2z M134,74l2,0 0,2 -2,0 0,-2z M136,74l2,0 0,2 -2,0 0,-2z M138,74l2,0 0,2 -2,0 0,-2z M140,74l2,0 0,2 -2,0 0,-2z M142,74l2,0 0,2 -2,0 0,-2z M150,74l2,0 0,2 -2,0 0,-2z M152,74l2,0 0,2 -2,0 0,-2z M158,74l2,0 0,2 -2,0 0,-2z M160,74l2,0 0,2 -2,0 0,-2z M12,76l2,0 0,2 -2,0 0,-2z M16,76l2,0 0,2 -2,0 0,-2z M20,76l2,0 0,2 -2,0 0,-2z M22,76l2,0 0,2 -2,0 0,-2z M34,76l2,0 0,2 -2,0 0,-2z M40,76l2,0 0,2 -2,0 0,-2z M46,76l2,0 0,2 -2,0 0,-2z M48,76l2,0 0,2 -2,0 0,-2z M50,76l2,0 0,2 -2,0 0,-2z M56,76l2,0 0,2 -2,0 0,-2z M58,76l2,0 0,2 -2,0 0,-2z M62,76l2,0 0,2 -2,0 0,-2z M68,76l2,0 0,2 -2,0 0,-2z M74,76l2,0 0,2 -2,0 0,-2z M76,76l2,0 0,2 -2,0 0,-2z M78,76l2,0 0,2 -2,0 0,-2z M80,76l2,0 0,2 -2,0 0,-2z M86,76l2,0 0,2 -2,0 0,-2z M98,76l2,0 0,2 -2,0 0,-2z M102,76l2,0 0,2 -2,0 0,-2z M104,76l2,0 0,2 -2,0 0,-2z M106,76l2,0 0,2 -2,0 0,-2z M114,76l2,0 0,2 -2,0 0,-2z M122,76l2,0 0,2 -2,0 0,-2z M126,76l2,0 0,2 -2,0 0,-2z M128,76l2,0 0,2 -2,0 0,-2z M138,76l2,0 0,2 -2,0 0,-2z M150,76l2,0 0,2 -2,0 0,-2z M154,76l2,0 0,2 -2,0 0,-2z M156,76l2,0 0,2 -2,0 0,-2z M158,76l2,0 0,2 -2,0 0,-2z M10,78l2,0 0,2 -2,0 0,-2z M14,78l2,0 0,2 -2,0 0,-2z M16,78l2,0 0,2 -2,0 0,-2z M18,78l2,0 0,2 -2,0 0,-2z M24,78l2,0 0,2 -2,0 0,-2z M32,78l2,0 0,2 -2,0 0,-2z M34,78l2,0 0,2 -2,0 0,-2z M48,78l2,0 0,2 -2,0 0,-2z M50,78l2,0 0,2 -2,0 0,-2z M54,78l2,0 0,2 -2,0 0,-2z M56,78l2,0 0,2 -2,0 0,-2z M62,78l2,0 0,2 -2,0 0,-2z M64,78l2,0 0,2 -2,0 0,-2z M66,78l2,0 0,2 -2,0 0,-2z M68,78l2,0 0,2 -2,0 0,-2z M70,78l2,0 0,2 -2,0 0,-2z M80,78l2,0 0,2 -2,0 0,-2z M82,78l2,0 0,2 -2,0 0,-2z M84,78l2,0 0,2 -2,0 0,-2z M88,78l2,0 0,2 -2,0 0,-2z M94,78l2,0 0,2 -2,0 0,-2z M96,78l2,0 0,2 -2,0 0,-2z M104,78l2,0 0,2 -2,0 0,-2z M112,78l2,0 0,2 -2,0 0,-2z M120,78l2,0 0,2 -2,0 0,-2z M122,78l2,0 0,2 -2,0 0,-2z M124,78l2,0 0,2 -2,0 0,-2z M126,78l2,0 0,2 -2,0 0,-2z M132,78l2,0 0,2 -2,0 0,-2z M136,78l2,0 0,2 -2,0 0,-2z M138,78l2,0 0,2 -2,0 0,-2z M142,78l2,0 0,2 -2,0 0,-2z M144,78l2,0 0,2 -2,0 0,-2z M152,78l2,0 0,2 -2,0 0,-2z M156,78l2,0 0,2 -2,0 0,-2z M8,80l2,0 0,2 -2,0 0,-2z M12,80l2,0 0,2 -2,0 0,-2z M18,80l2,0 0,2 -2,0 0,-2z M20,80l2,0 0,2 -2,0 0,-2z M22,80l2,0 0,2 -2,0 0,-2z M24,80l2,0 0,2 -2,0 0,-2z M26,80l2,0 0,2 -2,0 0,-2z M28,80l2,0 0,2 -2,0 0,-2z M30,80l2,0 0,2 -2,0 0,-2z M36,80l2,0 0,2 -2,0 0,-2z M38,80l2,0 0,2 -2,0 0,-2z M40,80l2,0 0,2 -2,0 0,-2z M46,80l2,0 0,2 -2,0 0,-2z M56,80l2,0 0,2 -2,0 0,-2z M58,80l2,0 0,2 -2,0 0,-2z M64,80l2,0 0,2 -2,0 0,-2z M68,80l2,0 0,2 -2,0 0,-2z M70,80l2,0 0,2 -2,0 0,-2z M72,80l2,0 0,2 -2,0 0,-2z M74,80l2,0 0,2 -2,0 0,-2z M76,80l2,0 0,2 -2,0 0,-2z M78,80l2,0 0,2 -2,0 0,-2z M80,80l2,0 0,2 -2,0 0,-2z M82,80l2,0 0,2 -2,0 0,-2z M86,80l2,0 0,2 -2,0 0,-2z M88,80l2,0 0,2 -2,0 0,-2z M90,80l2,0 0,2 -2,0 0,-2z M92,80l2,0 0,2 -2,0 0,-2z M94,80l2,0 0,2 -2,0 0,-2z M96,80l2,0 0,2 -2,0 0,-2z M98,80l2,0 0,2 -2,0 0,-2z M100,80l2,0 0,2 -2,0 0,-2z M104,80l2,0 0,2 -2,0 0,-2z M120,80l2,0 0,2 -2,0 0,-2z M124,80l2,0 0,2 -2,0 0,-2z M130,80l2,0 0,2 -2,0 0,-2z M136,80l2,0 0,2 -2,0 0,-2z M142,80l2,0 0,2 -2,0 0,-2z M144,80l2,0 0,2 -2,0 0,-2z M146,80l2,0 0,2 -2,0 0,-2z M152,80l2,0 0,2 -2,0 0,-2z M154,80l2,0 0,2 -2,0 0,-2z M10,82l2,0 0,2 -2,0 0,-2z M12,82l2,0 0,2 -2,0 0,-2z M14,82l2,0 0,2 -2,0 0,-2z M16,82l2,0 0,2 -2,0 0,-2z M24,82l2,0 0,2 -2,0 0,-2z M28,82l2,0 0,2 -2,0 0,-2z M34,82l2,0 0,2 -2,0 0,-2z M38,82l2,0 0,2 -2,0 0,-2z M48,82l2,0 0,2 -2,0 0,-2z M56,82l2,0 0,2 -2,0 0,-2z M62,82l2,0 0,2 -2,0 0,-2z M64,82l2,0 0,2 -2,0 0,-2z M72,82l2,0 0,2 -2,0 0,-2z M76,82l2,0 0,2 -2,0 0,-2z M78,82l2,0 0,2 -2,0 0,-2z M80,82l2,0 0,2 -2,0 0,-2z M82,82l2,0 0,2 -2,0 0,-2z M88,82l2,0 0,2 -2,0 0,-2z M114,82l2,0 0,2 -2,0 0,-2z M116,82l2,0 0,2 -2,0 0,-2z M118,82l2,0 0,2 -2,0 0,-2z M120,82l2,0 0,2 -2,0 0,-2z M122,82l2,0 0,2 -2,0 0,-2z M124,82l2,0 0,2 -2,0 0,-2z M126,82l2,0 0,2 -2,0 0,-2z M132,82l2,0 0,2 -2,0 0,-2z M136,82l2,0 0,2 -2,0 0,-2z M138,82l2,0 0,2 -2,0 0,-2z M140,82l2,0 0,2 -2,0 0,-2z M144,82l2,0 0,2 -2,0 0,-2z M148,82l2,0 0,2 -2,0 0,-2z M152,82l2,0 0,2 -2,0 0,-2z M154,82l2,0 0,2 -2,0 0,-2z M158,82l2,0 0,2 -2,0 0,-2z M160,82l2,0 0,2 -2,0 0,-2z M10,84l2,0 0,2 -2,0 0,-2z M12,84l2,0 0,2 -2,0 0,-2z M14,84l2,0 0,2 -2,0 0,-2z M20,84l2,0 0,2 -2,0 0,-2z M24,84l2,0 0,2 -2,0 0,-2z M26,84l2,0 0,2 -2,0 0,-2z M28,84l2,0 0,2 -2,0 0,-2z M30,84l2,0 0,2 -2,0 0,-2z M34,84l2,0 0,2 -2,0 0,-2z M38,84l2,0 0,2 -2,0 0,-2z M42,84l2,0 0,2 -2,0 0,-2z M44,84l2,0 0,2 -2,0 0,-2z M54,84l2,0 0,2 -2,0 0,-2z M58,84l2,0 0,2 -2,0 0,-2z M60,84l2,0 0,2 -2,0 0,-2z M64,84l2,0 0,2 -2,0 0,-2z M66,84l2,0 0,2 -2,0 0,-2z M70,84l2,0 0,2 -2,0 0,-2z M72,84l2,0 0,2 -2,0 0,-2z M74,84l2,0 0,2 -2,0 0,-2z M84,84l2,0 0,2 -2,0 0,-2z M86,84l2,0 0,2 -2,0 0,-2z M88,84l2,0 0,2 -2,0 0,-2z M90,84l2,0 0,2 -2,0 0,-2z M98,84l2,0 0,2 -2,0 0,-2z M100,84l2,0 0,2 -2,0 0,-2z M102,84l2,0 0,2 -2,0 0,-2z M110,84l2,0 0,2 -2,0 0,-2z M112,84l2,0 0,2 -2,0 0,-2z M118,84l2,0 0,2 -2,0 0,-2z M120,84l2,0 0,2 -2,0 0,-2z M126,84l2,0 0,2 -2,0 0,-2z M130,84l2,0 0,2 -2,0 0,-2z M132,84l2,0 0,2 -2,0 0,-2z M134,84l2,0 0,2 -2,0 0,-2z M136,84l2,0 0,2 -2,0 0,-2z M138,84l2,0 0,2 -2,0 0,-2z M140,84l2,0 0,2 -2,0 0,-2z M146,84l2,0 0,2 -2,0 0,-2z M154,84l2,0 0,2 -2,0 0,-2z M158,84l2,0 0,2 -2,0 0,-2z M160,84l2,0 0,2 -2,0 0,-2z M8,86l2,0 0,2 -2,0 0,-2z M14,86l2,0 0,2 -2,0 0,-2z M18,86l2,0 0,2 -2,0 0,-2z M22,86l2,0 0,2 -2,0 0,-2z M24,86l2,0 0,2 -2,0 0,-2z M36,86l2,0 0,2 -2,0 0,-2z M42,86l2,0 0,2 -2,0 0,-2z M44,86l2,0 0,2 -2,0 0,-2z M50,86l2,0 0,2 -2,0 0,-2z M56,86l2,0 0,2 -2,0 0,-2z M62,86l2,0 0,2 -2,0 0,-2z M72,86l2,0 0,2 -2,0 0,-2z M74,86l2,0 0,2 -2,0 0,-2z M76,86l2,0 0,2 -2,0 0,-2z M78,86l2,0 0,2 -2,0 0,-2z M80,86l2,0 0,2 -2,0 0,-2z M84,86l2,0 0,2 -2,0 0,-2z M86,86l2,0 0,2 -2,0 0,-2z M88,86l2,0 0,2 -2,0 0,-2z M92,86l2,0 0,2 -2,0 0,-2z M94,86l2,0 0,2 -2,0 0,-2z M96,86l2,0 0,2 -2,0 0,-2z M98,86l2,0 0,2 -2,0 0,-2z M102,86l2,0 0,2 -2,0 0,-2z M104,86l2,0 0,2 -2,0 0,-2z M106,86l2,0 0,2 -2,0 0,-2z M108,86l2,0 0,2 -2,0 0,-2z M112,86l2,0 0,2 -2,0 0,-2z M120,86l2,0 0,2 -2,0 0,-2z M122,86l2,0 0,2 -2,0 0,-2z M136,86l2,0 0,2 -2,0 0,-2z M150,86l2,0 0,2 -2,0 0,-2z M152,86l2,0 0,2 -2,0 0,-2z M160,86l2,0 0,2 -2,0 0,-2z M16,88l2,0 0,2 -2,0 0,-2z M20,88l2,0 0,2 -2,0 0,-2z M22,88l2,0 0,2 -2,0 0,-2z M26,88l2,0 0,2 -2,0 0,-2z M28,88l2,0 0,2 -2,0 0,-2z M34,88l2,0 0,2 -2,0 0,-2z M44,88l2,0 0,2 -2,0 0,-2z M46,88l2,0 0,2 -2,0 0,-2z M52,88l2,0 0,2 -2,0 0,-2z M54,88l2,0 0,2 -2,0 0,-2z M60,88l2,0 0,2 -2,0 0,-2z M62,88l2,0 0,2 -2,0 0,-2z M66,88l2,0 0,2 -2,0 0,-2z M68,88l2,0 0,2 -2,0 0,-2z M70,88l2,0 0,2 -2,0 0,-2z M72,88l2,0 0,2 -2,0 0,-2z M76,88l2,0 0,2 -2,0 0,-2z M78,88l2,0 0,2 -2,0 0,-2z M80,88l2,0 0,2 -2,0 0,-2z M82,88l2,0 0,2 -2,0 0,-2z M84,88l2,0 0,2 -2,0 0,-2z M86,88l2,0 0,2 -2,0 0,-2z M90,88l2,0 0,2 -2,0 0,-2z M96,88l2,0 0,2 -2,0 0,-2z M98,88l2,0 0,2 -2,0 0,-2z M104,88l2,0 0,2 -2,0 0,-2z M108,88l2,0 0,2 -2,0 0,-2z M118,88l2,0 0,2 -2,0 0,-2z M122,88l2,0 0,2 -2,0 0,-2z M124,88l2,0 0,2 -2,0 0,-2z M130,88l2,0 0,2 -2,0 0,-2z M132,88l2,0 0,2 -2,0 0,-2z M138,88l2,0 0,2 -2,0 0,-2z M142,88l2,0 0,2 -2,0 0,-2z M144,88l2,0 0,2 -2,0 0,-2z M146,88l2,0 0,2 -2,0 0,-2z M148,88l2,0 0,2 -2,0 0,-2z M150,88l2,0 0,2 -2,0 0,-2z M152,88l2,0 0,2 -2,0 0,-2z M154,88l2,0 0,2 -2,0 0,-2z M156,88l2,0 0,2 -2,0 0,-2z M158,88l2,0 0,2 -2,0 0,-2z M160,88l2,0 0,2 -2,0 0,-2z M10,90l2,0 0,2 -2,0 0,-2z M14,90l2,0 0,2 -2,0 0,-2z M16,90l2,0 0,2 -2,0 0,-2z M22,90l2,0 0,2 -2,0 0,-2z M24,90l2,0 0,2 -2,0 0,-2z M26,90l2,0 0,2 -2,0 0,-2z M30,90l2,0 0,2 -2,0 0,-2z M40,90l2,0 0,2 -2,0 0,-2z M42,90l2,0 0,2 -2,0 0,-2z M44,90l2,0 0,2 -2,0 0,-2z M48,90l2,0 0,2 -2,0 0,-2z M50,90l2,0 0,2 -2,0 0,-2z M60,90l2,0 0,2 -2,0 0,-2z M62,90l2,0 0,2 -2,0 0,-2z M66,90l2,0 0,2 -2,0 0,-2z M70,90l2,0 0,2 -2,0 0,-2z M72,90l2,0 0,2 -2,0 0,-2z M78,90l2,0 0,2 -2,0 0,-2z M80,90l2,0 0,2 -2,0 0,-2z M84,90l2,0 0,2 -2,0 0,-2z M100,90l2,0 0,2 -2,0 0,-2z M106,90l2,0 0,2 -2,0 0,-2z M108,90l2,0 0,2 -2,0 0,-2z M118,90l2,0 0,2 -2,0 0,-2z M122,90l2,0 0,2 -2,0 0,-2z M124,90l2,0 0,2 -2,0 0,-2z M130,90l2,0 0,2 -2,0 0,-2z M132,90l2,0 0,2 -2,0 0,-2z M134,90l2,0 0,2 -2,0 0,-2z M136,90l2,0 0,2 -2,0 0,-2z M144,90l2,0 0,2 -2,0 0,-2z M150,90l2,0 0,2 -2,0 0,-2z M154,90l2,0 0,2 -2,0 0,-2z M158,90l2,0 0,2 -2,0 0,-2z M160,90l2,0 0,2 -2,0 0,-2z M18,92l2,0 0,2 -2,0 0,-2z M20,92l2,0 0,2 -2,0 0,-2z M24,92l2,0 0,2 -2,0 0,-2z M26,92l2,0 0,2 -2,0 0,-2z M28,92l2,0 0,2 -2,0 0,-2z M30,92l2,0 0,2 -2,0 0,-2z M32,92l2,0 0,2 -2,0 0,-2z M42,92l2,0 0,2 -2,0 0,-2z M46,92l2,0 0,2 -2,0 0,-2z M56,92l2,0 0,2 -2,0 0,-2z M60,92l2,0 0,2 -2,0 0,-2z M64,92l2,0 0,2 -2,0 0,-2z M70,92l2,0 0,2 -2,0 0,-2z M72,92l2,0 0,2 -2,0 0,-2z M76,92l2,0 0,2 -2,0 0,-2z M80,92l2,0 0,2 -2,0 0,-2z M84,92l2,0 0,2 -2,0 0,-2z M86,92l2,0 0,2 -2,0 0,-2z M88,92l2,0 0,2 -2,0 0,-2z M96,92l2,0 0,2 -2,0 0,-2z M98,92l2,0 0,2 -2,0 0,-2z M102,92l2,0 0,2 -2,0 0,-2z M114,92l2,0 0,2 -2,0 0,-2z M120,92l2,0 0,2 -2,0 0,-2z M122,92l2,0 0,2 -2,0 0,-2z M126,92l2,0 0,2 -2,0 0,-2z M128,92l2,0 0,2 -2,0 0,-2z M130,92l2,0 0,2 -2,0 0,-2z M132,92l2,0 0,2 -2,0 0,-2z M134,92l2,0 0,2 -2,0 0,-2z M138,92l2,0 0,2 -2,0 0,-2z M144,92l2,0 0,2 -2,0 0,-2z M150,92l2,0 0,2 -2,0 0,-2z M152,92l2,0 0,2 -2,0 0,-2z M154,92l2,0 0,2 -2,0 0,-2z M156,92l2,0 0,2 -2,0 0,-2z M158,92l2,0 0,2 -2,0 0,-2z M160,92l2,0 0,2 -2,0 0,-2z M14,94l2,0 0,2 -2,0 0,-2z M26,94l2,0 0,2 -2,0 0,-2z M28,94l2,0 0,2 -2,0 0,-2z M30,94l2,0 0,2 -2,0 0,-2z M36,94l2,0 0,2 -2,0 0,-2z M38,94l2,0 0,2 -2,0 0,-2z M40,94l2,0 0,2 -2,0 0,-2z M42,94l2,0 0,2 -2,0 0,-2z M44,94l2,0 0,2 -2,0 0,-2z M46,94l2,0 0,2 -2,0 0,-2z M48,94l2,0 0,2 -2,0 0,-2z M52,94l2,0 0,2 -2,0 0,-2z M56,94l2,0 0,2 -2,0 0,-2z M72,94l2,0 0,2 -2,0 0,-2z M74,94l2,0 0,2 -2,0 0,-2z M76,94l2,0 0,2 -2,0 0,-2z M78,94l2,0 0,2 -2,0 0,-2z M80,94l2,0 0,2 -2,0 0,-2z M86,94l2,0 0,2 -2,0 0,-2z M94,94l2,0 0,2 -2,0 0,-2z M96,94l2,0 0,2 -2,0 0,-2z M98,94l2,0 0,2 -2,0 0,-2z M100,94l2,0 0,2 -2,0 0,-2z M102,94l2,0 0,2 -2,0 0,-2z M106,94l2,0 0,2 -2,0 0,-2z M108,94l2,0 0,2 -2,0 0,-2z M114,94l2,0 0,2 -2,0 0,-2z M118,94l2,0 0,2 -2,0 0,-2z M120,94l2,0 0,2 -2,0 0,-2z M124,94l2,0 0,2 -2,0 0,-2z M128,94l2,0 0,2 -2,0 0,-2z M132,94l2,0 0,2 -2,0 0,-2z M134,94l2,0 0,2 -2,0 0,-2z M142,94l2,0 0,2 -2,0 0,-2z M148,94l2,0 0,2 -2,0 0,-2z M152,94l2,0 0,2 -2,0 0,-2z M154,94l2,0 0,2 -2,0 0,-2z M158,94l2,0 0,2 -2,0 0,-2z M160,94l2,0 0,2 -2,0 0,-2z M12,96l2,0 0,2 -2,0 0,-2z M16,96l2,0 0,2 -2,0 0,-2z M20,96l2,0 0,2 -2,0 0,-2z M24,96l2,0 0,2 -2,0 0,-2z M30,96l2,0 0,2 -2,0 0,-2z M36,96l2,0 0,2 -2,0 0,-2z M38,96l2,0 0,2 -2,0 0,-2z M42,96l2,0 0,2 -2,0 0,-2z M44,96l2,0 0,2 -2,0 0,-2z M48,96l2,0 0,2 -2,0 0,-2z M52,96l2,0 0,2 -2,0 0,-2z M54,96l2,0 0,2 -2,0 0,-2z M56,96l2,0 0,2 -2,0 0,-2z M64,96l2,0 0,2 -2,0 0,-2z M68,96l2,0 0,2 -2,0 0,-2z M70,96l2,0 0,2 -2,0 0,-2z M76,96l2,0 0,2 -2,0 0,-2z M80,96l2,0 0,2 -2,0 0,-2z M86,96l2,0 0,2 -2,0 0,-2z M88,96l2,0 0,2 -2,0 0,-2z M94,96l2,0 0,2 -2,0 0,-2z M98,96l2,0 0,2 -2,0 0,-2z M100,96l2,0 0,2 -2,0 0,-2z M102,96l2,0 0,2 -2,0 0,-2z M106,96l2,0 0,2 -2,0 0,-2z M112,96l2,0 0,2 -2,0 0,-2z M114,96l2,0 0,2 -2,0 0,-2z M116,96l2,0 0,2 -2,0 0,-2z M126,96l2,0 0,2 -2,0 0,-2z M128,96l2,0 0,2 -2,0 0,-2z M132,96l2,0 0,2 -2,0 0,-2z M144,96l2,0 0,2 -2,0 0,-2z M148,96l2,0 0,2 -2,0 0,-2z M150,96l2,0 0,2 -2,0 0,-2z M152,96l2,0 0,2 -2,0 0,-2z M156,96l2,0 0,2 -2,0 0,-2z M160,96l2,0 0,2 -2,0 0,-2z M10,98l2,0 0,2 -2,0 0,-2z M12,98l2,0 0,2 -2,0 0,-2z M14,98l2,0 0,2 -2,0 0,-2z M16,98l2,0 0,2 -2,0 0,-2z M18,98l2,0 0,2 -2,0 0,-2z M22,98l2,0 0,2 -2,0 0,-2z M28,98l2,0 0,2 -2,0 0,-2z M36,98l2,0 0,2 -2,0 0,-2z M40,98l2,0 0,2 -2,0 0,-2z M42,98l2,0 0,2 -2,0 0,-2z M44,98l2,0 0,2 -2,0 0,-2z M46,98l2,0 0,2 -2,0 0,-2z M48,98l2,0 0,2 -2,0 0,-2z M52,98l2,0 0,2 -2,0 0,-2z M62,98l2,0 0,2 -2,0 0,-2z M64,98l2,0 0,2 -2,0 0,-2z M72,98l2,0 0,2 -2,0 0,-2z M78,98l2,0 0,2 -2,0 0,-2z M80,98l2,0 0,2 -2,0 0,-2z M86,98l2,0 0,2 -2,0 0,-2z M88,98l2,0 0,2 -2,0 0,-2z M98,98l2,0 0,2 -2,0 0,-2z M100,98l2,0 0,2 -2,0 0,-2z M106,98l2,0 0,2 -2,0 0,-2z M108,98l2,0 0,2 -2,0 0,-2z M110,98l2,0 0,2 -2,0 0,-2z M112,98l2,0 0,2 -2,0 0,-2z M114,98l2,0 0,2 -2,0 0,-2z M116,98l2,0 0,2 -2,0 0,-2z M118,98l2,0 0,2 -2,0 0,-2z M120,98l2,0 0,2 -2,0 0,-2z M122,98l2,0 0,2 -2,0 0,-2z M124,98l2,0 0,2 -2,0 0,-2z M126,98l2,0 0,2 -2,0 0,-2z M128,98l2,0 0,2 -2,0 0,-2z M130,98l2,0 0,2 -2,0 0,-2z M132,98l2,0 0,2 -2,0 0,-2z M134,98l2,0 0,2 -2,0 0,-2z M136,98l2,0 0,2 -2,0 0,-2z M138,98l2,0 0,2 -2,0 0,-2z M142,98l2,0 0,2 -2,0 0,-2z M144,98l2,0 0,2 -2,0 0,-2z M146,98l2,0 0,2 -2,0 0,-2z M148,98l2,0 0,2 -2,0 0,-2z M152,98l2,0 0,2 -2,0 0,-2z M158,98l2,0 0,2 -2,0 0,-2z M160,98l2,0 0,2 -2,0 0,-2z M12,100l2,0 0,2 -2,0 0,-2z M14,100l2,0 0,2 -2,0 0,-2z M16,100l2,0 0,2 -2,0 0,-2z M18,100l2,0 0,2 -2,0 0,-2z M20,100l2,0 0,2 -2,0 0,-2z M22,100l2,0 0,2 -2,0 0,-2z M24,100l2,0 0,2 -2,0 0,-2z M26,100l2,0 0,2 -2,0 0,-2z M28,100l2,0 0,2 -2,0 0,-2z M32,100l2,0 0,2 -2,0 0,-2z M34,100l2,0 0,2 -2,0 0,-2z M40,100l2,0 0,2 -2,0 0,-2z M42,100l2,0 0,2 -2,0 0,-2z M46,100l2,0 0,2 -2,0 0,-2z M54,100l2,0 0,2 -2,0 0,-2z M56,100l2,0 0,2 -2,0 0,-2z M58,100l2,0 0,2 -2,0 0,-2z M60,100l2,0 0,2 -2,0 0,-2z M62,100l2,0 0,2 -2,0 0,-2z M64,100l2,0 0,2 -2,0 0,-2z M66,100l2,0 0,2 -2,0 0,-2z M72,100l2,0 0,2 -2,0 0,-2z M78,100l2,0 0,2 -2,0 0,-2z M82,100l2,0 0,2 -2,0 0,-2z M84,100l2,0 0,2 -2,0 0,-2z M96,100l2,0 0,2 -2,0 0,-2z M100,100l2,0 0,2 -2,0 0,-2z M102,100l2,0 0,2 -2,0 0,-2z M104,100l2,0 0,2 -2,0 0,-2z M106,100l2,0 0,2 -2,0 0,-2z M108,100l2,0 0,2 -2,0 0,-2z M114,100l2,0 0,2 -2,0 0,-2z M126,100l2,0 0,2 -2,0 0,-2z M128,100l2,0 0,2 -2,0 0,-2z M130,100l2,0 0,2 -2,0 0,-2z M136,100l2,0 0,2 -2,0 0,-2z M144,100l2,0 0,2 -2,0 0,-2z M146,100l2,0 0,2 -2,0 0,-2z M148,100l2,0 0,2 -2,0 0,-2z M150,100l2,0 0,2 -2,0 0,-2z M152,100l2,0 0,2 -2,0 0,-2z M158,100l2,0 0,2 -2,0 0,-2z M8,102l2,0 0,2 -2,0 0,-2z M14,102l2,0 0,2 -2,0 0,-2z M16,102l2,0 0,2 -2,0 0,-2z M24,102l2,0 0,2 -2,0 0,-2z M26,102l2,0 0,2 -2,0 0,-2z M32,102l2,0 0,2 -2,0 0,-2z M34,102l2,0 0,2 -2,0 0,-2z M38,102l2,0 0,2 -2,0 0,-2z M40,102l2,0 0,2 -2,0 0,-2z M44,102l2,0 0,2 -2,0 0,-2z M48,102l2,0 0,2 -2,0 0,-2z M50,102l2,0 0,2 -2,0 0,-2z M52,102l2,0 0,2 -2,0 0,-2z M56,102l2,0 0,2 -2,0 0,-2z M64,102l2,0 0,2 -2,0 0,-2z M66,102l2,0 0,2 -2,0 0,-2z M68,102l2,0 0,2 -2,0 0,-2z M70,102l2,0 0,2 -2,0 0,-2z M76,102l2,0 0,2 -2,0 0,-2z M88,102l2,0 0,2 -2,0 0,-2z M90,102l2,0 0,2 -2,0 0,-2z M100,102l2,0 0,2 -2,0 0,-2z M108,102l2,0 0,2 -2,0 0,-2z M112,102l2,0 0,2 -2,0 0,-2z M114,102l2,0 0,2 -2,0 0,-2z M120,102l2,0 0,2 -2,0 0,-2z M122,102l2,0 0,2 -2,0 0,-2z M126,102l2,0 0,2 -2,0 0,-2z M128,102l2,0 0,2 -2,0 0,-2z M130,102l2,0 0,2 -2,0 0,-2z M132,102l2,0 0,2 -2,0 0,-2z M136,102l2,0 0,2 -2,0 0,-2z M142,102l2,0 0,2 -2,0 0,-2z M144,102l2,0 0,2 -2,0 0,-2z M152,102l2,0 0,2 -2,0 0,-2z M156,102l2,0 0,2 -2,0 0,-2z M158,102l2,0 0,2 -2,0 0,-2z M160,102l2,0 0,2 -2,0 0,-2z M8,104l2,0 0,2 -2,0 0,-2z M10,104l2,0 0,2 -2,0 0,-2z M12,104l2,0 0,2 -2,0 0,-2z M16,104l2,0 0,2 -2,0 0,-2z M20,104l2,0 0,2 -2,0 0,-2z M24,104l2,0 0,2 -2,0 0,-2z M26,104l2,0 0,2 -2,0 0,-2z M28,104l2,0 0,2 -2,0 0,-2z M32,104l2,0 0,2 -2,0 0,-2z M34,104l2,0 0,2 -2,0 0,-2z M40,104l2,0 0,2 -2,0 0,-2z M46,104l2,0 0,2 -2,0 0,-2z M54,104l2,0 0,2 -2,0 0,-2z M56,104l2,0 0,2 -2,0 0,-2z M60,104l2,0 0,2 -2,0 0,-2z M64,104l2,0 0,2 -2,0 0,-2z M72,104l2,0 0,2 -2,0 0,-2z M78,104l2,0 0,2 -2,0 0,-2z M80,104l2,0 0,2 -2,0 0,-2z M82,104l2,0 0,2 -2,0 0,-2z M86,104l2,0 0,2 -2,0 0,-2z M88,104l2,0 0,2 -2,0 0,-2z M90,104l2,0 0,2 -2,0 0,-2z M92,104l2,0 0,2 -2,0 0,-2z M96,104l2,0 0,2 -2,0 0,-2z M100,104l2,0 0,2 -2,0 0,-2z M104,104l2,0 0,2 -2,0 0,-2z M108,104l2,0 0,2 -2,0 0,-2z M112,104l2,0 0,2 -2,0 0,-2z M116,104l2,0 0,2 -2,0 0,-2z M124,104l2,0 0,2 -2,0 0,-2z M136,104l2,0 0,2 -2,0 0,-2z M142,104l2,0 0,2 -2,0 0,-2z M144,104l2,0 0,2 -2,0 0,-2z M148,104l2,0 0,2 -2,0 0,-2z M152,104l2,0 0,2 -2,0 0,-2z M156,104l2,0 0,2 -2,0 0,-2z M160,104l2,0 0,2 -2,0 0,-2z M8,106l2,0 0,2 -2,0 0,-2z M16,106l2,0 0,2 -2,0 0,-2z M24,106l2,0 0,2 -2,0 0,-2z M26,106l2,0 0,2 -2,0 0,-2z M28,106l2,0 0,2 -2,0 0,-2z M32,106l2,0 0,2 -2,0 0,-2z M34,106l2,0 0,2 -2,0 0,-2z M36,106l2,0 0,2 -2,0 0,-2z M44,106l2,0 0,2 -2,0 0,-2z M48,106l2,0 0,2 -2,0 0,-2z M50,106l2,0 0,2 -2,0 0,-2z M56,106l2,0 0,2 -2,0 0,-2z M64,106l2,0 0,2 -2,0 0,-2z M70,106l2,0 0,2 -2,0 0,-2z M76,106l2,0 0,2 -2,0 0,-2z M78,106l2,0 0,2 -2,0 0,-2z M82,106l2,0 0,2 -2,0 0,-2z M88,106l2,0 0,2 -2,0 0,-2z M90,106l2,0 0,2 -2,0 0,-2z M94,106l2,0 0,2 -2,0 0,-2z M100,106l2,0 0,2 -2,0 0,-2z M108,106l2,0 0,2 -2,0 0,-2z M114,106l2,0 0,2 -2,0 0,-2z M116,106l2,0 0,2 -2,0 0,-2z M120,106l2,0 0,2 -2,0 0,-2z M122,106l2,0 0,2 -2,0 0,-2z M124,106l2,0 0,2 -2,0 0,-2z M126,106l2,0 0,2 -2,0 0,-2z M132,106l2,0 0,2 -2,0 0,-2z M134,106l2,0 0,2 -2,0 0,-2z M136,106l2,0 0,2 -2,0 0,-2z M138,106l2,0 0,2 -2,0 0,-2z M140,106l2,0 0,2 -2,0 0,-2z M144,106l2,0 0,2 -2,0 0,-2z M152,106l2,0 0,2 -2,0 0,-2z M154,106l2,0 0,2 -2,0 0,-2z M10,108l2,0 0,2 -2,0 0,-2z M16,108l2,0 0,2 -2,0 0,-2z M18,108l2,0 0,2 -2,0 0,-2z M20,108l2,0 0,2 -2,0 0,-2z M22,108l2,0 0,2 -2,0 0,-2z M24,108l2,0 0,2 -2,0 0,-2z M26,108l2,0 0,2 -2,0 0,-2z M32,108l2,0 0,2 -2,0 0,-2z M38,108l2,0 0,2 -2,0 0,-2z M40,108l2,0 0,2 -2,0 0,-2z M44,108l2,0 0,2 -2,0 0,-2z M46,108l2,0 0,2 -2,0 0,-2z M52,108l2,0 0,2 -2,0 0,-2z M56,108l2,0 0,2 -2,0 0,-2z M58,108l2,0 0,2 -2,0 0,-2z M60,108l2,0 0,2 -2,0 0,-2z M62,108l2,0 0,2 -2,0 0,-2z M64,108l2,0 0,2 -2,0 0,-2z M66,108l2,0 0,2 -2,0 0,-2z M72,108l2,0 0,2 -2,0 0,-2z M78,108l2,0 0,2 -2,0 0,-2z M80,108l2,0 0,2 -2,0 0,-2z M84,108l2,0 0,2 -2,0 0,-2z M86,108l2,0 0,2 -2,0 0,-2z M88,108l2,0 0,2 -2,0 0,-2z M90,108l2,0 0,2 -2,0 0,-2z M92,108l2,0 0,2 -2,0 0,-2z M94,108l2,0 0,2 -2,0 0,-2z M100,108l2,0 0,2 -2,0 0,-2z M102,108l2,0 0,2 -2,0 0,-2z M104,108l2,0 0,2 -2,0 0,-2z M106,108l2,0 0,2 -2,0 0,-2z M108,108l2,0 0,2 -2,0 0,-2z M110,108l2,0 0,2 -2,0 0,-2z M112,108l2,0 0,2 -2,0 0,-2z M116,108l2,0 0,2 -2,0 0,-2z M130,108l2,0 0,2 -2,0 0,-2z M132,108l2,0 0,2 -2,0 0,-2z M134,108l2,0 0,2 -2,0 0,-2z M136,108l2,0 0,2 -2,0 0,-2z M140,108l2,0 0,2 -2,0 0,-2z M142,108l2,0 0,2 -2,0 0,-2z M144,108l2,0 0,2 -2,0 0,-2z M146,108l2,0 0,2 -2,0 0,-2z M148,108l2,0 0,2 -2,0 0,-2z M150,108l2,0 0,2 -2,0 0,-2z M152,108l2,0 0,2 -2,0 0,-2z M154,108l2,0 0,2 -2,0 0,-2z M158,108l2,0 0,2 -2,0 0,-2z M8,110l2,0 0,2 -2,0 0,-2z M10,110l2,0 0,2 -2,0 0,-2z M14,110l2,0 0,2 -2,0 0,-2z M16,110l2,0 0,2 -2,0 0,-2z M18,110l2,0 0,2 -2,0 0,-2z M24,110l2,0 0,2 -2,0 0,-2z M28,110l2,0 0,2 -2,0 0,-2z M32,110l2,0 0,2 -2,0 0,-2z M36,110l2,0 0,2 -2,0 0,-2z M38,110l2,0 0,2 -2,0 0,-2z M40,110l2,0 0,2 -2,0 0,-2z M46,110l2,0 0,2 -2,0 0,-2z M50,110l2,0 0,2 -2,0 0,-2z M52,110l2,0 0,2 -2,0 0,-2z M54,110l2,0 0,2 -2,0 0,-2z M56,110l2,0 0,2 -2,0 0,-2z M58,110l2,0 0,2 -2,0 0,-2z M66,110l2,0 0,2 -2,0 0,-2z M68,110l2,0 0,2 -2,0 0,-2z M70,110l2,0 0,2 -2,0 0,-2z M72,110l2,0 0,2 -2,0 0,-2z M74,110l2,0 0,2 -2,0 0,-2z M78,110l2,0 0,2 -2,0 0,-2z M80,110l2,0 0,2 -2,0 0,-2z M96,110l2,0 0,2 -2,0 0,-2z M100,110l2,0 0,2 -2,0 0,-2z M104,110l2,0 0,2 -2,0 0,-2z M106,110l2,0 0,2 -2,0 0,-2z M110,110l2,0 0,2 -2,0 0,-2z M116,110l2,0 0,2 -2,0 0,-2z M120,110l2,0 0,2 -2,0 0,-2z M122,110l2,0 0,2 -2,0 0,-2z M136,110l2,0 0,2 -2,0 0,-2z M140,110l2,0 0,2 -2,0 0,-2z M142,110l2,0 0,2 -2,0 0,-2z M146,110l2,0 0,2 -2,0 0,-2z M148,110l2,0 0,2 -2,0 0,-2z M150,110l2,0 0,2 -2,0 0,-2z M152,110l2,0 0,2 -2,0 0,-2z M154,110l2,0 0,2 -2,0 0,-2z M8,112l2,0 0,2 -2,0 0,-2z M14,112l2,0 0,2 -2,0 0,-2z M18,112l2,0 0,2 -2,0 0,-2z M20,112l2,0 0,2 -2,0 0,-2z M24,112l2,0 0,2 -2,0 0,-2z M36,112l2,0 0,2 -2,0 0,-2z M40,112l2,0 0,2 -2,0 0,-2z M46,112l2,0 0,2 -2,0 0,-2z M52,112l2,0 0,2 -2,0 0,-2z M60,112l2,0 0,2 -2,0 0,-2z M62,112l2,0 0,2 -2,0 0,-2z M64,112l2,0 0,2 -2,0 0,-2z M68,112l2,0 0,2 -2,0 0,-2z M72,112l2,0 0,2 -2,0 0,-2z M74,112l2,0 0,2 -2,0 0,-2z M76,112l2,0 0,2 -2,0 0,-2z M78,112l2,0 0,2 -2,0 0,-2z M80,112l2,0 0,2 -2,0 0,-2z M84,112l2,0 0,2 -2,0 0,-2z M86,112l2,0 0,2 -2,0 0,-2z M90,112l2,0 0,2 -2,0 0,-2z M92,112l2,0 0,2 -2,0 0,-2z M96,112l2,0 0,2 -2,0 0,-2z M98,112l2,0 0,2 -2,0 0,-2z M112,112l2,0 0,2 -2,0 0,-2z M116,112l2,0 0,2 -2,0 0,-2z M118,112l2,0 0,2 -2,0 0,-2z M120,112l2,0 0,2 -2,0 0,-2z M122,112l2,0 0,2 -2,0 0,-2z M128,112l2,0 0,2 -2,0 0,-2z M136,112l2,0 0,2 -2,0 0,-2z M138,112l2,0 0,2 -2,0 0,-2z M142,112l2,0 0,2 -2,0 0,-2z M144,112l2,0 0,2 -2,0 0,-2z M146,112l2,0 0,2 -2,0 0,-2z M152,112l2,0 0,2 -2,0 0,-2z M8,114l2,0 0,2 -2,0 0,-2z M14,114l2,0 0,2 -2,0 0,-2z M18,114l2,0 0,2 -2,0 0,-2z M28,114l2,0 0,2 -2,0 0,-2z M30,114l2,0 0,2 -2,0 0,-2z M32,114l2,0 0,2 -2,0 0,-2z M34,114l2,0 0,2 -2,0 0,-2z M36,114l2,0 0,2 -2,0 0,-2z M38,114l2,0 0,2 -2,0 0,-2z M42,114l2,0 0,2 -2,0 0,-2z M46,114l2,0 0,2 -2,0 0,-2z M54,114l2,0 0,2 -2,0 0,-2z M60,114l2,0 0,2 -2,0 0,-2z M66,114l2,0 0,2 -2,0 0,-2z M74,114l2,0 0,2 -2,0 0,-2z M80,114l2,0 0,2 -2,0 0,-2z M84,114l2,0 0,2 -2,0 0,-2z M90,114l2,0 0,2 -2,0 0,-2z M96,114l2,0 0,2 -2,0 0,-2z M98,114l2,0 0,2 -2,0 0,-2z M104,114l2,0 0,2 -2,0 0,-2z M106,114l2,0 0,2 -2,0 0,-2z M108,114l2,0 0,2 -2,0 0,-2z M110,114l2,0 0,2 -2,0 0,-2z M112,114l2,0 0,2 -2,0 0,-2z M116,114l2,0 0,2 -2,0 0,-2z M122,114l2,0 0,2 -2,0 0,-2z M126,114l2,0 0,2 -2,0 0,-2z M130,114l2,0 0,2 -2,0 0,-2z M136,114l2,0 0,2 -2,0 0,-2z M144,114l2,0 0,2 -2,0 0,-2z M146,114l2,0 0,2 -2,0 0,-2z M150,114l2,0 0,2 -2,0 0,-2z M154,114l2,0 0,2 -2,0 0,-2z M156,114l2,0 0,2 -2,0 0,-2z M158,114l2,0 0,2 -2,0 0,-2z M160,114l2,0 0,2 -2,0 0,-2z M14,116l2,0 0,2 -2,0 0,-2z M20,116l2,0 0,2 -2,0 0,-2z M22,116l2,0 0,2 -2,0 0,-2z M26,116l2,0 0,2 -2,0 0,-2z M30,116l2,0 0,2 -2,0 0,-2z M40,116l2,0 0,2 -2,0 0,-2z M42,116l2,0 0,2 -2,0 0,-2z M46,116l2,0 0,2 -2,0 0,-2z M54,116l2,0 0,2 -2,0 0,-2z M58,116l2,0 0,2 -2,0 0,-2z M60,116l2,0 0,2 -2,0 0,-2z M64,116l2,0 0,2 -2,0 0,-2z M66,116l2,0 0,2 -2,0 0,-2z M72,116l2,0 0,2 -2,0 0,-2z M78,116l2,0 0,2 -2,0 0,-2z M86,116l2,0 0,2 -2,0 0,-2z M88,116l2,0 0,2 -2,0 0,-2z M94,116l2,0 0,2 -2,0 0,-2z M96,116l2,0 0,2 -2,0 0,-2z M104,116l2,0 0,2 -2,0 0,-2z M110,116l2,0 0,2 -2,0 0,-2z M114,116l2,0 0,2 -2,0 0,-2z M118,116l2,0 0,2 -2,0 0,-2z M120,116l2,0 0,2 -2,0 0,-2z M122,116l2,0 0,2 -2,0 0,-2z M126,116l2,0 0,2 -2,0 0,-2z M138,116l2,0 0,2 -2,0 0,-2z M154,116l2,0 0,2 -2,0 0,-2z M158,116l2,0 0,2 -2,0 0,-2z M160,116l2,0 0,2 -2,0 0,-2z M18,118l2,0 0,2 -2,0 0,-2z M22,118l2,0 0,2 -2,0 0,-2z M24,118l2,0 0,2 -2,0 0,-2z M26,118l2,0 0,2 -2,0 0,-2z M28,118l2,0 0,2 -2,0 0,-2z M30,118l2,0 0,2 -2,0 0,-2z M38,118l2,0 0,2 -2,0 0,-2z M44,118l2,0 0,2 -2,0 0,-2z M58,118l2,0 0,2 -2,0 0,-2z M62,118l2,0 0,2 -2,0 0,-2z M64,118l2,0 0,2 -2,0 0,-2z M66,118l2,0 0,2 -2,0 0,-2z M72,118l2,0 0,2 -2,0 0,-2z M76,118l2,0 0,2 -2,0 0,-2z M80,118l2,0 0,2 -2,0 0,-2z M88,118l2,0 0,2 -2,0 0,-2z M96,118l2,0 0,2 -2,0 0,-2z M100,118l2,0 0,2 -2,0 0,-2z M104,118l2,0 0,2 -2,0 0,-2z M108,118l2,0 0,2 -2,0 0,-2z M112,118l2,0 0,2 -2,0 0,-2z M114,118l2,0 0,2 -2,0 0,-2z M118,118l2,0 0,2 -2,0 0,-2z M120,118l2,0 0,2 -2,0 0,-2z M122,118l2,0 0,2 -2,0 0,-2z M124,118l2,0 0,2 -2,0 0,-2z M128,118l2,0 0,2 -2,0 0,-2z M130,118l2,0 0,2 -2,0 0,-2z M136,118l2,0 0,2 -2,0 0,-2z M142,118l2,0 0,2 -2,0 0,-2z M144,118l2,0 0,2 -2,0 0,-2z M148,118l2,0 0,2 -2,0 0,-2z M150,118l2,0 0,2 -2,0 0,-2z M154,118l2,0 0,2 -2,0 0,-2z M158,118l2,0 0,2 -2,0 0,-2z M8,120l2,0 0,2 -2,0 0,-2z M12,120l2,0 0,2 -2,0 0,-2z M18,120l2,0 0,2 -2,0 0,-2z M20,120l2,0 0,2 -2,0 0,-2z M24,120l2,0 0,2 -2,0 0,-2z M26,120l2,0 0,2 -2,0 0,-2z M30,120l2,0 0,2 -2,0 0,-2z M38,120l2,0 0,2 -2,0 0,-2z M40,120l2,0 0,2 -2,0 0,-2z M44,120l2,0 0,2 -2,0 0,-2z M48,120l2,0 0,2 -2,0 0,-2z M52,120l2,0 0,2 -2,0 0,-2z M54,120l2,0 0,2 -2,0 0,-2z M58,120l2,0 0,2 -2,0 0,-2z M60,120l2,0 0,2 -2,0 0,-2z M62,120l2,0 0,2 -2,0 0,-2z M64,120l2,0 0,2 -2,0 0,-2z M68,120l2,0 0,2 -2,0 0,-2z M70,120l2,0 0,2 -2,0 0,-2z M76,120l2,0 0,2 -2,0 0,-2z M80,120l2,0 0,2 -2,0 0,-2z M84,120l2,0 0,2 -2,0 0,-2z M86,120l2,0 0,2 -2,0 0,-2z M88,120l2,0 0,2 -2,0 0,-2z M92,120l2,0 0,2 -2,0 0,-2z M94,120l2,0 0,2 -2,0 0,-2z M102,120l2,0 0,2 -2,0 0,-2z M106,120l2,0 0,2 -2,0 0,-2z M120,120l2,0 0,2 -2,0 0,-2z M124,120l2,0 0,2 -2,0 0,-2z M126,120l2,0 0,2 -2,0 0,-2z M130,120l2,0 0,2 -2,0 0,-2z M132,120l2,0 0,2 -2,0 0,-2z M136,120l2,0 0,2 -2,0 0,-2z M146,120l2,0 0,2 -2,0 0,-2z M148,120l2,0 0,2 -2,0 0,-2z M150,120l2,0 0,2 -2,0 0,-2z M156,120l2,0 0,2 -2,0 0,-2z M8,122l2,0 0,2 -2,0 0,-2z M10,122l2,0 0,2 -2,0 0,-2z M16,122l2,0 0,2 -2,0 0,-2z M28,122l2,0 0,2 -2,0 0,-2z M32,122l2,0 0,2 -2,0 0,-2z M34,122l2,0 0,2 -2,0 0,-2z M36,122l2,0 0,2 -2,0 0,-2z M38,122l2,0 0,2 -2,0 0,-2z M42,122l2,0 0,2 -2,0 0,-2z M44,122l2,0 0,2 -2,0 0,-2z M46,122l2,0 0,2 -2,0 0,-2z M48,122l2,0 0,2 -2,0 0,-2z M58,122l2,0 0,2 -2,0 0,-2z M60,122l2,0 0,2 -2,0 0,-2z M64,122l2,0 0,2 -2,0 0,-2z M70,122l2,0 0,2 -2,0 0,-2z M72,122l2,0 0,2 -2,0 0,-2z M78,122l2,0 0,2 -2,0 0,-2z M80,122l2,0 0,2 -2,0 0,-2z M86,122l2,0 0,2 -2,0 0,-2z M88,122l2,0 0,2 -2,0 0,-2z M98,122l2,0 0,2 -2,0 0,-2z M100,122l2,0 0,2 -2,0 0,-2z M104,122l2,0 0,2 -2,0 0,-2z M106,122l2,0 0,2 -2,0 0,-2z M108,122l2,0 0,2 -2,0 0,-2z M110,122l2,0 0,2 -2,0 0,-2z M112,122l2,0 0,2 -2,0 0,-2z M114,122l2,0 0,2 -2,0 0,-2z M116,122l2,0 0,2 -2,0 0,-2z M120,122l2,0 0,2 -2,0 0,-2z M122,122l2,0 0,2 -2,0 0,-2z M126,122l2,0 0,2 -2,0 0,-2z M128,122l2,0 0,2 -2,0 0,-2z M130,122l2,0 0,2 -2,0 0,-2z M132,122l2,0 0,2 -2,0 0,-2z M134,122l2,0 0,2 -2,0 0,-2z M138,122l2,0 0,2 -2,0 0,-2z M146,122l2,0 0,2 -2,0 0,-2z M154,122l2,0 0,2 -2,0 0,-2z M158,122l2,0 0,2 -2,0 0,-2z M160,122l2,0 0,2 -2,0 0,-2z M10,124l2,0 0,2 -2,0 0,-2z M12,124l2,0 0,2 -2,0 0,-2z M20,124l2,0 0,2 -2,0 0,-2z M22,124l2,0 0,2 -2,0 0,-2z M24,124l2,0 0,2 -2,0 0,-2z M26,124l2,0 0,2 -2,0 0,-2z M38,124l2,0 0,2 -2,0 0,-2z M44,124l2,0 0,2 -2,0 0,-2z M46,124l2,0 0,2 -2,0 0,-2z M48,124l2,0 0,2 -2,0 0,-2z M54,124l2,0 0,2 -2,0 0,-2z M56,124l2,0 0,2 -2,0 0,-2z M64,124l2,0 0,2 -2,0 0,-2z M66,124l2,0 0,2 -2,0 0,-2z M68,124l2,0 0,2 -2,0 0,-2z M70,124l2,0 0,2 -2,0 0,-2z M72,124l2,0 0,2 -2,0 0,-2z M74,124l2,0 0,2 -2,0 0,-2z M76,124l2,0 0,2 -2,0 0,-2z M78,124l2,0 0,2 -2,0 0,-2z M82,124l2,0 0,2 -2,0 0,-2z M88,124l2,0 0,2 -2,0 0,-2z M90,124l2,0 0,2 -2,0 0,-2z M94,124l2,0 0,2 -2,0 0,-2z M96,124l2,0 0,2 -2,0 0,-2z M100,124l2,0 0,2 -2,0 0,-2z M104,124l2,0 0,2 -2,0 0,-2z M114,124l2,0 0,2 -2,0 0,-2z M120,124l2,0 0,2 -2,0 0,-2z M122,124l2,0 0,2 -2,0 0,-2z M128,124l2,0 0,2 -2,0 0,-2z M136,124l2,0 0,2 -2,0 0,-2z M138,124l2,0 0,2 -2,0 0,-2z M142,124l2,0 0,2 -2,0 0,-2z M148,124l2,0 0,2 -2,0 0,-2z M152,124l2,0 0,2 -2,0 0,-2z M154,124l2,0 0,2 -2,0 0,-2z M156,124l2,0 0,2 -2,0 0,-2z M158,124l2,0 0,2 -2,0 0,-2z M10,126l2,0 0,2 -2,0 0,-2z M12,126l2,0 0,2 -2,0 0,-2z M16,126l2,0 0,2 -2,0 0,-2z M24,126l2,0 0,2 -2,0 0,-2z M30,126l2,0 0,2 -2,0 0,-2z M36,126l2,0 0,2 -2,0 0,-2z M46,126l2,0 0,2 -2,0 0,-2z M48,126l2,0 0,2 -2,0 0,-2z M50,126l2,0 0,2 -2,0 0,-2z M54,126l2,0 0,2 -2,0 0,-2z M56,126l2,0 0,2 -2,0 0,-2z M58,126l2,0 0,2 -2,0 0,-2z M60,126l2,0 0,2 -2,0 0,-2z M70,126l2,0 0,2 -2,0 0,-2z M74,126l2,0 0,2 -2,0 0,-2z M80,126l2,0 0,2 -2,0 0,-2z M84,126l2,0 0,2 -2,0 0,-2z M86,126l2,0 0,2 -2,0 0,-2z M88,126l2,0 0,2 -2,0 0,-2z M90,126l2,0 0,2 -2,0 0,-2z M92,126l2,0 0,2 -2,0 0,-2z M94,126l2,0 0,2 -2,0 0,-2z M98,126l2,0 0,2 -2,0 0,-2z M100,126l2,0 0,2 -2,0 0,-2z M104,126l2,0 0,2 -2,0 0,-2z M106,126l2,0 0,2 -2,0 0,-2z M112,126l2,0 0,2 -2,0 0,-2z M118,126l2,0 0,2 -2,0 0,-2z M122,126l2,0 0,2 -2,0 0,-2z M124,126l2,0 0,2 -2,0 0,-2z M128,126l2,0 0,2 -2,0 0,-2z M132,126l2,0 0,2 -2,0 0,-2z M138,126l2,0 0,2 -2,0 0,-2z M142,126l2,0 0,2 -2,0 0,-2z M144,126l2,0 0,2 -2,0 0,-2z M146,126l2,0 0,2 -2,0 0,-2z M150,126l2,0 0,2 -2,0 0,-2z M152,126l2,0 0,2 -2,0 0,-2z M154,126l2,0 0,2 -2,0 0,-2z M156,126l2,0 0,2 -2,0 0,-2z M158,126l2,0 0,2 -2,0 0,-2z M160,126l2,0 0,2 -2,0 0,-2z M8,128l2,0 0,2 -2,0 0,-2z M10,128l2,0 0,2 -2,0 0,-2z M12,128l2,0 0,2 -2,0 0,-2z M14,128l2,0 0,2 -2,0 0,-2z M16,128l2,0 0,2 -2,0 0,-2z M18,128l2,0 0,2 -2,0 0,-2z M20,128l2,0 0,2 -2,0 0,-2z M28,128l2,0 0,2 -2,0 0,-2z M30,128l2,0 0,2 -2,0 0,-2z M32,128l2,0 0,2 -2,0 0,-2z M38,128l2,0 0,2 -2,0 0,-2z M40,128l2,0 0,2 -2,0 0,-2z M46,128l2,0 0,2 -2,0 0,-2z M52,128l2,0 0,2 -2,0 0,-2z M56,128l2,0 0,2 -2,0 0,-2z M66,128l2,0 0,2 -2,0 0,-2z M68,128l2,0 0,2 -2,0 0,-2z M70,128l2,0 0,2 -2,0 0,-2z M72,128l2,0 0,2 -2,0 0,-2z M74,128l2,0 0,2 -2,0 0,-2z M78,128l2,0 0,2 -2,0 0,-2z M80,128l2,0 0,2 -2,0 0,-2z M82,128l2,0 0,2 -2,0 0,-2z M86,128l2,0 0,2 -2,0 0,-2z M88,128l2,0 0,2 -2,0 0,-2z M96,128l2,0 0,2 -2,0 0,-2z M98,128l2,0 0,2 -2,0 0,-2z M104,128l2,0 0,2 -2,0 0,-2z M106,128l2,0 0,2 -2,0 0,-2z M108,128l2,0 0,2 -2,0 0,-2z M112,128l2,0 0,2 -2,0 0,-2z M116,128l2,0 0,2 -2,0 0,-2z M120,128l2,0 0,2 -2,0 0,-2z M122,128l2,0 0,2 -2,0 0,-2z M124,128l2,0 0,2 -2,0 0,-2z M130,128l2,0 0,2 -2,0 0,-2z M136,128l2,0 0,2 -2,0 0,-2z M138,128l2,0 0,2 -2,0 0,-2z M140,128l2,0 0,2 -2,0 0,-2z M142,128l2,0 0,2 -2,0 0,-2z M148,128l2,0 0,2 -2,0 0,-2z M152,128l2,0 0,2 -2,0 0,-2z M154,128l2,0 0,2 -2,0 0,-2z M160,128l2,0 0,2 -2,0 0,-2z M8,130l2,0 0,2 -2,0 0,-2z M14,130l2,0 0,2 -2,0 0,-2z M18,130l2,0 0,2 -2,0 0,-2z M22,130l2,0 0,2 -2,0 0,-2z M24,130l2,0 0,2 -2,0 0,-2z M30,130l2,0 0,2 -2,0 0,-2z M32,130l2,0 0,2 -2,0 0,-2z M42,130l2,0 0,2 -2,0 0,-2z M54,130l2,0 0,2 -2,0 0,-2z M56,130l2,0 0,2 -2,0 0,-2z M58,130l2,0 0,2 -2,0 0,-2z M66,130l2,0 0,2 -2,0 0,-2z M70,130l2,0 0,2 -2,0 0,-2z M72,130l2,0 0,2 -2,0 0,-2z M74,130l2,0 0,2 -2,0 0,-2z M76,130l2,0 0,2 -2,0 0,-2z M82,130l2,0 0,2 -2,0 0,-2z M86,130l2,0 0,2 -2,0 0,-2z M94,130l2,0 0,2 -2,0 0,-2z M96,130l2,0 0,2 -2,0 0,-2z M98,130l2,0 0,2 -2,0 0,-2z M100,130l2,0 0,2 -2,0 0,-2z M108,130l2,0 0,2 -2,0 0,-2z M112,130l2,0 0,2 -2,0 0,-2z M114,130l2,0 0,2 -2,0 0,-2z M116,130l2,0 0,2 -2,0 0,-2z M118,130l2,0 0,2 -2,0 0,-2z M120,130l2,0 0,2 -2,0 0,-2z M122,130l2,0 0,2 -2,0 0,-2z M126,130l2,0 0,2 -2,0 0,-2z M128,130l2,0 0,2 -2,0 0,-2z M134,130l2,0 0,2 -2,0 0,-2z M138,130l2,0 0,2 -2,0 0,-2z M142,130l2,0 0,2 -2,0 0,-2z M154,130l2,0 0,2 -2,0 0,-2z M158,130l2,0 0,2 -2,0 0,-2z M160,130l2,0 0,2 -2,0 0,-2z M8,132l2,0 0,2 -2,0 0,-2z M12,132l2,0 0,2 -2,0 0,-2z M14,132l2,0 0,2 -2,0 0,-2z M20,132l2,0 0,2 -2,0 0,-2z M22,132l2,0 0,2 -2,0 0,-2z M24,132l2,0 0,2 -2,0 0,-2z M28,132l2,0 0,2 -2,0 0,-2z M36,132l2,0 0,2 -2,0 0,-2z M38,132l2,0 0,2 -2,0 0,-2z M40,132l2,0 0,2 -2,0 0,-2z M46,132l2,0 0,2 -2,0 0,-2z M48,132l2,0 0,2 -2,0 0,-2z M50,132l2,0 0,2 -2,0 0,-2z M52,132l2,0 0,2 -2,0 0,-2z M58,132l2,0 0,2 -2,0 0,-2z M64,132l2,0 0,2 -2,0 0,-2z M66,132l2,0 0,2 -2,0 0,-2z M70,132l2,0 0,2 -2,0 0,-2z M72,132l2,0 0,2 -2,0 0,-2z M80,132l2,0 0,2 -2,0 0,-2z M84,132l2,0 0,2 -2,0 0,-2z M86,132l2,0 0,2 -2,0 0,-2z M90,132l2,0 0,2 -2,0 0,-2z M94,132l2,0 0,2 -2,0 0,-2z M96,132l2,0 0,2 -2,0 0,-2z M100,132l2,0 0,2 -2,0 0,-2z M106,132l2,0 0,2 -2,0 0,-2z M112,132l2,0 0,2 -2,0 0,-2z M122,132l2,0 0,2 -2,0 0,-2z M126,132l2,0 0,2 -2,0 0,-2z M130,132l2,0 0,2 -2,0 0,-2z M132,132l2,0 0,2 -2,0 0,-2z M136,132l2,0 0,2 -2,0 0,-2z M138,132l2,0 0,2 -2,0 0,-2z M144,132l2,0 0,2 -2,0 0,-2z M148,132l2,0 0,2 -2,0 0,-2z M152,132l2,0 0,2 -2,0 0,-2z M154,132l2,0 0,2 -2,0 0,-2z M156,132l2,0 0,2 -2,0 0,-2z M158,132l2,0 0,2 -2,0 0,-2z M160,132l2,0 0,2 -2,0 0,-2z M8,134l2,0 0,2 -2,0 0,-2z M12,134l2,0 0,2 -2,0 0,-2z M14,134l2,0 0,2 -2,0 0,-2z M16,134l2,0 0,2 -2,0 0,-2z M18,134l2,0 0,2 -2,0 0,-2z M26,134l2,0 0,2 -2,0 0,-2z M28,134l2,0 0,2 -2,0 0,-2z M34,134l2,0 0,2 -2,0 0,-2z M36,134l2,0 0,2 -2,0 0,-2z M44,134l2,0 0,2 -2,0 0,-2z M48,134l2,0 0,2 -2,0 0,-2z M52,134l2,0 0,2 -2,0 0,-2z M54,134l2,0 0,2 -2,0 0,-2z M58,134l2,0 0,2 -2,0 0,-2z M60,134l2,0 0,2 -2,0 0,-2z M66,134l2,0 0,2 -2,0 0,-2z M70,134l2,0 0,2 -2,0 0,-2z M78,134l2,0 0,2 -2,0 0,-2z M86,134l2,0 0,2 -2,0 0,-2z M88,134l2,0 0,2 -2,0 0,-2z M90,134l2,0 0,2 -2,0 0,-2z M96,134l2,0 0,2 -2,0 0,-2z M100,134l2,0 0,2 -2,0 0,-2z M106,134l2,0 0,2 -2,0 0,-2z M108,134l2,0 0,2 -2,0 0,-2z M110,134l2,0 0,2 -2,0 0,-2z M112,134l2,0 0,2 -2,0 0,-2z M114,134l2,0 0,2 -2,0 0,-2z M120,134l2,0 0,2 -2,0 0,-2z M122,134l2,0 0,2 -2,0 0,-2z M136,134l2,0 0,2 -2,0 0,-2z M140,134l2,0 0,2 -2,0 0,-2z M142,134l2,0 0,2 -2,0 0,-2z M146,134l2,0 0,2 -2,0 0,-2z M148,134l2,0 0,2 -2,0 0,-2z M150,134l2,0 0,2 -2,0 0,-2z M152,134l2,0 0,2 -2,0 0,-2z M158,134l2,0 0,2 -2,0 0,-2z M160,134l2,0 0,2 -2,0 0,-2z M8,136l2,0 0,2 -2,0 0,-2z M12,136l2,0 0,2 -2,0 0,-2z M14,136l2,0 0,2 -2,0 0,-2z M20,136l2,0 0,2 -2,0 0,-2z M22,136l2,0 0,2 -2,0 0,-2z M24,136l2,0 0,2 -2,0 0,-2z M26,136l2,0 0,2 -2,0 0,-2z M32,136l2,0 0,2 -2,0 0,-2z M34,136l2,0 0,2 -2,0 0,-2z M36,136l2,0 0,2 -2,0 0,-2z M38,136l2,0 0,2 -2,0 0,-2z M42,136l2,0 0,2 -2,0 0,-2z M46,136l2,0 0,2 -2,0 0,-2z M48,136l2,0 0,2 -2,0 0,-2z M50,136l2,0 0,2 -2,0 0,-2z M58,136l2,0 0,2 -2,0 0,-2z M66,136l2,0 0,2 -2,0 0,-2z M68,136l2,0 0,2 -2,0 0,-2z M72,136l2,0 0,2 -2,0 0,-2z M74,136l2,0 0,2 -2,0 0,-2z M78,136l2,0 0,2 -2,0 0,-2z M80,136l2,0 0,2 -2,0 0,-2z M84,136l2,0 0,2 -2,0 0,-2z M86,136l2,0 0,2 -2,0 0,-2z M92,136l2,0 0,2 -2,0 0,-2z M96,136l2,0 0,2 -2,0 0,-2z M100,136l2,0 0,2 -2,0 0,-2z M116,136l2,0 0,2 -2,0 0,-2z M118,136l2,0 0,2 -2,0 0,-2z M120,136l2,0 0,2 -2,0 0,-2z M124,136l2,0 0,2 -2,0 0,-2z M130,136l2,0 0,2 -2,0 0,-2z M132,136l2,0 0,2 -2,0 0,-2z M140,136l2,0 0,2 -2,0 0,-2z M146,136l2,0 0,2 -2,0 0,-2z M154,136l2,0 0,2 -2,0 0,-2z M156,136l2,0 0,2 -2,0 0,-2z M158,136l2,0 0,2 -2,0 0,-2z M10,138l2,0 0,2 -2,0 0,-2z M16,138l2,0 0,2 -2,0 0,-2z M18,138l2,0 0,2 -2,0 0,-2z M24,138l2,0 0,2 -2,0 0,-2z M26,138l2,0 0,2 -2,0 0,-2z M30,138l2,0 0,2 -2,0 0,-2z M36,138l2,0 0,2 -2,0 0,-2z M40,138l2,0 0,2 -2,0 0,-2z M44,138l2,0 0,2 -2,0 0,-2z M46,138l2,0 0,2 -2,0 0,-2z M50,138l2,0 0,2 -2,0 0,-2z M52,138l2,0 0,2 -2,0 0,-2z M62,138l2,0 0,2 -2,0 0,-2z M66,138l2,0 0,2 -2,0 0,-2z M70,138l2,0 0,2 -2,0 0,-2z M80,138l2,0 0,2 -2,0 0,-2z M82,138l2,0 0,2 -2,0 0,-2z M84,138l2,0 0,2 -2,0 0,-2z M86,138l2,0 0,2 -2,0 0,-2z M90,138l2,0 0,2 -2,0 0,-2z M96,138l2,0 0,2 -2,0 0,-2z M104,138l2,0 0,2 -2,0 0,-2z M108,138l2,0 0,2 -2,0 0,-2z M110,138l2,0 0,2 -2,0 0,-2z M116,138l2,0 0,2 -2,0 0,-2z M122,138l2,0 0,2 -2,0 0,-2z M124,138l2,0 0,2 -2,0 0,-2z M130,138l2,0 0,2 -2,0 0,-2z M134,138l2,0 0,2 -2,0 0,-2z M136,138l2,0 0,2 -2,0 0,-2z M140,138l2,0 0,2 -2,0 0,-2z M142,138l2,0 0,2 -2,0 0,-2z M148,138l2,0 0,2 -2,0 0,-2z M160,138l2,0 0,2 -2,0 0,-2z M10,140l2,0 0,2 -2,0 0,-2z M16,140l2,0 0,2 -2,0 0,-2z M18,140l2,0 0,2 -2,0 0,-2z M20,140l2,0 0,2 -2,0 0,-2z M22,140l2,0 0,2 -2,0 0,-2z M26,140l2,0 0,2 -2,0 0,-2z M30,140l2,0 0,2 -2,0 0,-2z M32,140l2,0 0,2 -2,0 0,-2z M34,140l2,0 0,2 -2,0 0,-2z M38,140l2,0 0,2 -2,0 0,-2z M48,140l2,0 0,2 -2,0 0,-2z M50,140l2,0 0,2 -2,0 0,-2z M52,140l2,0 0,2 -2,0 0,-2z M56,140l2,0 0,2 -2,0 0,-2z M60,140l2,0 0,2 -2,0 0,-2z M64,140l2,0 0,2 -2,0 0,-2z M70,140l2,0 0,2 -2,0 0,-2z M76,140l2,0 0,2 -2,0 0,-2z M82,140l2,0 0,2 -2,0 0,-2z M86,140l2,0 0,2 -2,0 0,-2z M92,140l2,0 0,2 -2,0 0,-2z M94,140l2,0 0,2 -2,0 0,-2z M96,140l2,0 0,2 -2,0 0,-2z M100,140l2,0 0,2 -2,0 0,-2z M104,140l2,0 0,2 -2,0 0,-2z M112,140l2,0 0,2 -2,0 0,-2z M114,140l2,0 0,2 -2,0 0,-2z M116,140l2,0 0,2 -2,0 0,-2z M118,140l2,0 0,2 -2,0 0,-2z M120,140l2,0 0,2 -2,0 0,-2z M122,140l2,0 0,2 -2,0 0,-2z M126,140l2,0 0,2 -2,0 0,-2z M128,140l2,0 0,2 -2,0 0,-2z M130,140l2,0 0,2 -2,0 0,-2z M132,140l2,0 0,2 -2,0 0,-2z M134,140l2,0 0,2 -2,0 0,-2z M136,140l2,0 0,2 -2,0 0,-2z M138,140l2,0 0,2 -2,0 0,-2z M144,140l2,0 0,2 -2,0 0,-2z M146,140l2,0 0,2 -2,0 0,-2z M148,140l2,0 0,2 -2,0 0,-2z M156,140l2,0 0,2 -2,0 0,-2z M158,140l2,0 0,2 -2,0 0,-2z M160,140l2,0 0,2 -2,0 0,-2z M16,142l2,0 0,2 -2,0 0,-2z M22,142l2,0 0,2 -2,0 0,-2z M24,142l2,0 0,2 -2,0 0,-2z M30,142l2,0 0,2 -2,0 0,-2z M32,142l2,0 0,2 -2,0 0,-2z M34,142l2,0 0,2 -2,0 0,-2z M36,142l2,0 0,2 -2,0 0,-2z M38,142l2,0 0,2 -2,0 0,-2z M48,142l2,0 0,2 -2,0 0,-2z M54,142l2,0 0,2 -2,0 0,-2z M56,142l2,0 0,2 -2,0 0,-2z M58,142l2,0 0,2 -2,0 0,-2z M60,142l2,0 0,2 -2,0 0,-2z M64,142l2,0 0,2 -2,0 0,-2z M66,142l2,0 0,2 -2,0 0,-2z M68,142l2,0 0,2 -2,0 0,-2z M74,142l2,0 0,2 -2,0 0,-2z M76,142l2,0 0,2 -2,0 0,-2z M78,142l2,0 0,2 -2,0 0,-2z M80,142l2,0 0,2 -2,0 0,-2z M82,142l2,0 0,2 -2,0 0,-2z M94,142l2,0 0,2 -2,0 0,-2z M96,142l2,0 0,2 -2,0 0,-2z M104,142l2,0 0,2 -2,0 0,-2z M118,142l2,0 0,2 -2,0 0,-2z M120,142l2,0 0,2 -2,0 0,-2z M124,142l2,0 0,2 -2,0 0,-2z M128,142l2,0 0,2 -2,0 0,-2z M130,142l2,0 0,2 -2,0 0,-2z M132,142l2,0 0,2 -2,0 0,-2z M134,142l2,0 0,2 -2,0 0,-2z M138,142l2,0 0,2 -2,0 0,-2z M142,142l2,0 0,2 -2,0 0,-2z M144,142l2,0 0,2 -2,0 0,-2z M150,142l2,0 0,2 -2,0 0,-2z M152,142l2,0 0,2 -2,0 0,-2z M154,142l2,0 0,2 -2,0 0,-2z M160,142l2,0 0,2 -2,0 0,-2z M10,144l2,0 0,2 -2,0 0,-2z M12,144l2,0 0,2 -2,0 0,-2z M14,144l2,0 0,2 -2,0 0,-2z M16,144l2,0 0,2 -2,0 0,-2z M20,144l2,0 0,2 -2,0 0,-2z M22,144l2,0 0,2 -2,0 0,-2z M26,144l2,0 0,2 -2,0 0,-2z M28,144l2,0 0,2 -2,0 0,-2z M34,144l2,0 0,2 -2,0 0,-2z M36,144l2,0 0,2 -2,0 0,-2z M40,144l2,0 0,2 -2,0 0,-2z M46,144l2,0 0,2 -2,0 0,-2z M54,144l2,0 0,2 -2,0 0,-2z M56,144l2,0 0,2 -2,0 0,-2z M58,144l2,0 0,2 -2,0 0,-2z M60,144l2,0 0,2 -2,0 0,-2z M62,144l2,0 0,2 -2,0 0,-2z M64,144l2,0 0,2 -2,0 0,-2z M68,144l2,0 0,2 -2,0 0,-2z M70,144l2,0 0,2 -2,0 0,-2z M80,144l2,0 0,2 -2,0 0,-2z M82,144l2,0 0,2 -2,0 0,-2z M84,144l2,0 0,2 -2,0 0,-2z M86,144l2,0 0,2 -2,0 0,-2z M88,144l2,0 0,2 -2,0 0,-2z M92,144l2,0 0,2 -2,0 0,-2z M94,144l2,0 0,2 -2,0 0,-2z M100,144l2,0 0,2 -2,0 0,-2z M102,144l2,0 0,2 -2,0 0,-2z M104,144l2,0 0,2 -2,0 0,-2z M106,144l2,0 0,2 -2,0 0,-2z M108,144l2,0 0,2 -2,0 0,-2z M112,144l2,0 0,2 -2,0 0,-2z M114,144l2,0 0,2 -2,0 0,-2z M120,144l2,0 0,2 -2,0 0,-2z M122,144l2,0 0,2 -2,0 0,-2z M124,144l2,0 0,2 -2,0 0,-2z M126,144l2,0 0,2 -2,0 0,-2z M132,144l2,0 0,2 -2,0 0,-2z M136,144l2,0 0,2 -2,0 0,-2z M138,144l2,0 0,2 -2,0 0,-2z M142,144l2,0 0,2 -2,0 0,-2z M144,144l2,0 0,2 -2,0 0,-2z M146,144l2,0 0,2 -2,0 0,-2z M148,144l2,0 0,2 -2,0 0,-2z M150,144l2,0 0,2 -2,0 0,-2z M152,144l2,0 0,2 -2,0 0,-2z M156,144l2,0 0,2 -2,0 0,-2z M24,146l2,0 0,2 -2,0 0,-2z M26,146l2,0 0,2 -2,0 0,-2z M28,146l2,0 0,2 -2,0 0,-2z M30,146l2,0 0,2 -2,0 0,-2z M32,146l2,0 0,2 -2,0 0,-2z M34,146l2,0 0,2 -2,0 0,-2z M38,146l2,0 0,2 -2,0 0,-2z M40,146l2,0 0,2 -2,0 0,-2z M46,146l2,0 0,2 -2,0 0,-2z M48,146l2,0 0,2 -2,0 0,-2z M52,146l2,0 0,2 -2,0 0,-2z M54,146l2,0 0,2 -2,0 0,-2z M56,146l2,0 0,2 -2,0 0,-2z M64,146l2,0 0,2 -2,0 0,-2z M66,146l2,0 0,2 -2,0 0,-2z M70,146l2,0 0,2 -2,0 0,-2z M86,146l2,0 0,2 -2,0 0,-2z M94,146l2,0 0,2 -2,0 0,-2z M98,146l2,0 0,2 -2,0 0,-2z M100,146l2,0 0,2 -2,0 0,-2z M108,146l2,0 0,2 -2,0 0,-2z M112,146l2,0 0,2 -2,0 0,-2z M114,146l2,0 0,2 -2,0 0,-2z M120,146l2,0 0,2 -2,0 0,-2z M122,146l2,0 0,2 -2,0 0,-2z M126,146l2,0 0,2 -2,0 0,-2z M130,146l2,0 0,2 -2,0 0,-2z M132,146l2,0 0,2 -2,0 0,-2z M136,146l2,0 0,2 -2,0 0,-2z M138,146l2,0 0,2 -2,0 0,-2z M140,146l2,0 0,2 -2,0 0,-2z M144,146l2,0 0,2 -2,0 0,-2z M152,146l2,0 0,2 -2,0 0,-2z M156,146l2,0 0,2 -2,0 0,-2z M158,146l2,0 0,2 -2,0 0,-2z M8,148l2,0 0,2 -2,0 0,-2z M10,148l2,0 0,2 -2,0 0,-2z M12,148l2,0 0,2 -2,0 0,-2z M14,148l2,0 0,2 -2,0 0,-2z M16,148l2,0 0,2 -2,0 0,-2z M18,148l2,0 0,2 -2,0 0,-2z M20,148l2,0 0,2 -2,0 0,-2z M24,148l2,0 0,2 -2,0 0,-2z M30,148l2,0 0,2 -2,0 0,-2z M42,148l2,0 0,2 -2,0 0,-2z M44,148l2,0 0,2 -2,0 0,-2z M46,148l2,0 0,2 -2,0 0,-2z M50,148l2,0 0,2 -2,0 0,-2z M54,148l2,0 0,2 -2,0 0,-2z M56,148l2,0 0,2 -2,0 0,-2z M60,148l2,0 0,2 -2,0 0,-2z M64,148l2,0 0,2 -2,0 0,-2z M68,148l2,0 0,2 -2,0 0,-2z M70,148l2,0 0,2 -2,0 0,-2z M72,148l2,0 0,2 -2,0 0,-2z M76,148l2,0 0,2 -2,0 0,-2z M78,148l2,0 0,2 -2,0 0,-2z M80,148l2,0 0,2 -2,0 0,-2z M82,148l2,0 0,2 -2,0 0,-2z M86,148l2,0 0,2 -2,0 0,-2z M94,148l2,0 0,2 -2,0 0,-2z M98,148l2,0 0,2 -2,0 0,-2z M100,148l2,0 0,2 -2,0 0,-2z M104,148l2,0 0,2 -2,0 0,-2z M108,148l2,0 0,2 -2,0 0,-2z M110,148l2,0 0,2 -2,0 0,-2z M114,148l2,0 0,2 -2,0 0,-2z M124,148l2,0 0,2 -2,0 0,-2z M126,148l2,0 0,2 -2,0 0,-2z M128,148l2,0 0,2 -2,0 0,-2z M130,148l2,0 0,2 -2,0 0,-2z M136,148l2,0 0,2 -2,0 0,-2z M144,148l2,0 0,2 -2,0 0,-2z M148,148l2,0 0,2 -2,0 0,-2z M152,148l2,0 0,2 -2,0 0,-2z M158,148l2,0 0,2 -2,0 0,-2z M8,150l2,0 0,2 -2,0 0,-2z M20,150l2,0 0,2 -2,0 0,-2z M26,150l2,0 0,2 -2,0 0,-2z M34,150l2,0 0,2 -2,0 0,-2z M38,150l2,0 0,2 -2,0 0,-2z M40,150l2,0 0,2 -2,0 0,-2z M42,150l2,0 0,2 -2,0 0,-2z M46,150l2,0 0,2 -2,0 0,-2z M48,150l2,0 0,2 -2,0 0,-2z M50,150l2,0 0,2 -2,0 0,-2z M52,150l2,0 0,2 -2,0 0,-2z M56,150l2,0 0,2 -2,0 0,-2z M64,150l2,0 0,2 -2,0 0,-2z M80,150l2,0 0,2 -2,0 0,-2z M88,150l2,0 0,2 -2,0 0,-2z M90,150l2,0 0,2 -2,0 0,-2z M92,150l2,0 0,2 -2,0 0,-2z M98,150l2,0 0,2 -2,0 0,-2z M100,150l2,0 0,2 -2,0 0,-2z M108,150l2,0 0,2 -2,0 0,-2z M112,150l2,0 0,2 -2,0 0,-2z M114,150l2,0 0,2 -2,0 0,-2z M120,150l2,0 0,2 -2,0 0,-2z M122,150l2,0 0,2 -2,0 0,-2z M126,150l2,0 0,2 -2,0 0,-2z M128,150l2,0 0,2 -2,0 0,-2z M132,150l2,0 0,2 -2,0 0,-2z M136,150l2,0 0,2 -2,0 0,-2z M140,150l2,0 0,2 -2,0 0,-2z M142,150l2,0 0,2 -2,0 0,-2z M144,150l2,0 0,2 -2,0 0,-2z M152,150l2,0 0,2 -2,0 0,-2z M156,150l2,0 0,2 -2,0 0,-2z M158,150l2,0 0,2 -2,0 0,-2z M8,152l2,0 0,2 -2,0 0,-2z M12,152l2,0 0,2 -2,0 0,-2z M14,152l2,0 0,2 -2,0 0,-2z M16,152l2,0 0,2 -2,0 0,-2z M20,152l2,0 0,2 -2,0 0,-2z M28,152l2,0 0,2 -2,0 0,-2z M30,152l2,0 0,2 -2,0 0,-2z M32,152l2,0 0,2 -2,0 0,-2z M34,152l2,0 0,2 -2,0 0,-2z M40,152l2,0 0,2 -2,0 0,-2z M42,152l2,0 0,2 -2,0 0,-2z M56,152l2,0 0,2 -2,0 0,-2z M58,152l2,0 0,2 -2,0 0,-2z M60,152l2,0 0,2 -2,0 0,-2z M62,152l2,0 0,2 -2,0 0,-2z M64,152l2,0 0,2 -2,0 0,-2z M66,152l2,0 0,2 -2,0 0,-2z M68,152l2,0 0,2 -2,0 0,-2z M70,152l2,0 0,2 -2,0 0,-2z M72,152l2,0 0,2 -2,0 0,-2z M76,152l2,0 0,2 -2,0 0,-2z M80,152l2,0 0,2 -2,0 0,-2z M82,152l2,0 0,2 -2,0 0,-2z M84,152l2,0 0,2 -2,0 0,-2z M86,152l2,0 0,2 -2,0 0,-2z M88,152l2,0 0,2 -2,0 0,-2z M90,152l2,0 0,2 -2,0 0,-2z M92,152l2,0 0,2 -2,0 0,-2z M96,152l2,0 0,2 -2,0 0,-2z M98,152l2,0 0,2 -2,0 0,-2z M100,152l2,0 0,2 -2,0 0,-2z M102,152l2,0 0,2 -2,0 0,-2z M104,152l2,0 0,2 -2,0 0,-2z M106,152l2,0 0,2 -2,0 0,-2z M108,152l2,0 0,2 -2,0 0,-2z M116,152l2,0 0,2 -2,0 0,-2z M122,152l2,0 0,2 -2,0 0,-2z M124,152l2,0 0,2 -2,0 0,-2z M128,152l2,0 0,2 -2,0 0,-2z M130,152l2,0 0,2 -2,0 0,-2z M140,152l2,0 0,2 -2,0 0,-2z M144,152l2,0 0,2 -2,0 0,-2z M146,152l2,0 0,2 -2,0 0,-2z M148,152l2,0 0,2 -2,0 0,-2z M150,152l2,0 0,2 -2,0 0,-2z M152,152l2,0 0,2 -2,0 0,-2z M154,152l2,0 0,2 -2,0 0,-2z M156,152l2,0 0,2 -2,0 0,-2z M160,152l2,0 0,2 -2,0 0,-2z M8,154l2,0 0,2 -2,0 0,-2z M12,154l2,0 0,2 -2,0 0,-2z M14,154l2,0 0,2 -2,0 0,-2z M16,154l2,0 0,2 -2,0 0,-2z M20,154l2,0 0,2 -2,0 0,-2z M24,154l2,0 0,2 -2,0 0,-2z M26,154l2,0 0,2 -2,0 0,-2z M28,154l2,0 0,2 -2,0 0,-2z M30,154l2,0 0,2 -2,0 0,-2z M32,154l2,0 0,2 -2,0 0,-2z M34,154l2,0 0,2 -2,0 0,-2z M38,154l2,0 0,2 -2,0 0,-2z M40,154l2,0 0,2 -2,0 0,-2z M42,154l2,0 0,2 -2,0 0,-2z M44,154l2,0 0,2 -2,0 0,-2z M50,154l2,0 0,2 -2,0 0,-2z M54,154l2,0 0,2 -2,0 0,-2z M58,154l2,0 0,2 -2,0 0,-2z M60,154l2,0 0,2 -2,0 0,-2z M62,154l2,0 0,2 -2,0 0,-2z M72,154l2,0 0,2 -2,0 0,-2z M76,154l2,0 0,2 -2,0 0,-2z M80,154l2,0 0,2 -2,0 0,-2z M86,154l2,0 0,2 -2,0 0,-2z M88,154l2,0 0,2 -2,0 0,-2z M90,154l2,0 0,2 -2,0 0,-2z M94,154l2,0 0,2 -2,0 0,-2z M100,154l2,0 0,2 -2,0 0,-2z M102,154l2,0 0,2 -2,0 0,-2z M106,154l2,0 0,2 -2,0 0,-2z M108,154l2,0 0,2 -2,0 0,-2z M110,154l2,0 0,2 -2,0 0,-2z M114,154l2,0 0,2 -2,0 0,-2z M116,154l2,0 0,2 -2,0 0,-2z M120,154l2,0 0,2 -2,0 0,-2z M122,154l2,0 0,2 -2,0 0,-2z M124,154l2,0 0,2 -2,0 0,-2z M128,154l2,0 0,2 -2,0 0,-2z M134,154l2,0 0,2 -2,0 0,-2z M138,154l2,0 0,2 -2,0 0,-2z M144,154l2,0 0,2 -2,0 0,-2z M148,154l2,0 0,2 -2,0 0,-2z M152,154l2,0 0,2 -2,0 0,-2z M156,154l2,0 0,2 -2,0 0,-2z M158,154l2,0 0,2 -2,0 0,-2z M160,154l2,0 0,2 -2,0 0,-2z M8,156l2,0 0,2 -2,0 0,-2z M12,156l2,0 0,2 -2,0 0,-2z M14,156l2,0 0,2 -2,0 0,-2z M16,156l2,0 0,2 -2,0 0,-2z M20,156l2,0 0,2 -2,0 0,-2z M30,156l2,0 0,2 -2,0 0,-2z M36,156l2,0 0,2 -2,0 0,-2z M38,156l2,0 0,2 -2,0 0,-2z M42,156l2,0 0,2 -2,0 0,-2z M44,156l2,0 0,2 -2,0 0,-2z M50,156l2,0 0,2 -2,0 0,-2z M52,156l2,0 0,2 -2,0 0,-2z M56,156l2,0 0,2 -2,0 0,-2z M64,156l2,0 0,2 -2,0 0,-2z M66,156l2,0 0,2 -2,0 0,-2z M74,156l2,0 0,2 -2,0 0,-2z M84,156l2,0 0,2 -2,0 0,-2z M90,156l2,0 0,2 -2,0 0,-2z M92,156l2,0 0,2 -2,0 0,-2z M96,156l2,0 0,2 -2,0 0,-2z M102,156l2,0 0,2 -2,0 0,-2z M106,156l2,0 0,2 -2,0 0,-2z M112,156l2,0 0,2 -2,0 0,-2z M116,156l2,0 0,2 -2,0 0,-2z M122,156l2,0 0,2 -2,0 0,-2z M130,156l2,0 0,2 -2,0 0,-2z M132,156l2,0 0,2 -2,0 0,-2z M136,156l2,0 0,2 -2,0 0,-2z M140,156l2,0 0,2 -2,0 0,-2z M142,156l2,0 0,2 -2,0 0,-2z M144,156l2,0 0,2 -2,0 0,-2z M146,156l2,0 0,2 -2,0 0,-2z M152,156l2,0 0,2 -2,0 0,-2z M156,156l2,0 0,2 -2,0 0,-2z M160,156l2,0 0,2 -2,0 0,-2z M8,158l2,0 0,2 -2,0 0,-2z M20,158l2,0 0,2 -2,0 0,-2z M24,158l2,0 0,2 -2,0 0,-2z M32,158l2,0 0,2 -2,0 0,-2z M36,158l2,0 0,2 -2,0 0,-2z M40,158l2,0 0,2 -2,0 0,-2z M44,158l2,0 0,2 -2,0 0,-2z M46,158l2,0 0,2 -2,0 0,-2z M48,158l2,0 0,2 -2,0 0,-2z M50,158l2,0 0,2 -2,0 0,-2z M52,158l2,0 0,2 -2,0 0,-2z M58,158l2,0 0,2 -2,0 0,-2z M64,158l2,0 0,2 -2,0 0,-2z M70,158l2,0 0,2 -2,0 0,-2z M72,158l2,0 0,2 -2,0 0,-2z M76,158l2,0 0,2 -2,0 0,-2z M78,158l2,0 0,2 -2,0 0,-2z M80,158l2,0 0,2 -2,0 0,-2z M82,158l2,0 0,2 -2,0 0,-2z M86,158l2,0 0,2 -2,0 0,-2z M88,158l2,0 0,2 -2,0 0,-2z M92,158l2,0 0,2 -2,0 0,-2z M94,158l2,0 0,2 -2,0 0,-2z M96,158l2,0 0,2 -2,0 0,-2z M100,158l2,0 0,2 -2,0 0,-2z M106,158l2,0 0,2 -2,0 0,-2z M108,158l2,0 0,2 -2,0 0,-2z M110,158l2,0 0,2 -2,0 0,-2z M114,158l2,0 0,2 -2,0 0,-2z M116,158l2,0 0,2 -2,0 0,-2z M120,158l2,0 0,2 -2,0 0,-2z M136,158l2,0 0,2 -2,0 0,-2z M138,158l2,0 0,2 -2,0 0,-2z M140,158l2,0 0,2 -2,0 0,-2z M142,158l2,0 0,2 -2,0 0,-2z M146,158l2,0 0,2 -2,0 0,-2z M152,158l2,0 0,2 -2,0 0,-2z M154,158l2,0 0,2 -2,0 0,-2z M158,158l2,0 0,2 -2,0 0,-2z M8,160l2,0 0,2 -2,0 0,-2z M10,160l2,0 0,2 -2,0 0,-2z M12,160l2,0 0,2 -2,0 0,-2z M14,160l2,0 0,2 -2,0 0,-2z M16,160l2,0 0,2 -2,0 0,-2z M18,160l2,0 0,2 -2,0 0,-2z M20,160l2,0 0,2 -2,0 0,-2z M24,160l2,0 0,2 -2,0 0,-2z M28,160l2,0 0,2 -2,0 0,-2z M30,160l2,0 0,2 -2,0 0,-2z M32,160l2,0 0,2 -2,0 0,-2z M36,160l2,0 0,2 -2,0 0,-2z M44,160l2,0 0,2 -2,0 0,-2z M46,160l2,0 0,2 -2,0 0,-2z M52,160l2,0 0,2 -2,0 0,-2z M54,160l2,0 0,2 -2,0 0,-2z M56,160l2,0 0,2 -2,0 0,-2z M62,160l2,0 0,2 -2,0 0,-2z M66,160l2,0 0,2 -2,0 0,-2z M68,160l2,0 0,2 -2,0 0,-2z M72,160l2,0 0,2 -2,0 0,-2z M76,160l2,0 0,2 -2,0 0,-2z M78,160l2,0 0,2 -2,0 0,-2z M80,160l2,0 0,2 -2,0 0,-2z M84,160l2,0 0,2 -2,0 0,-2z M86,160l2,0 0,2 -2,0 0,-2z M96,160l2,0 0,2 -2,0 0,-2z M100,160l2,0 0,2 -2,0 0,-2z M102,160l2,0 0,2 -2,0 0,-2z M106,160l2,0 0,2 -2,0 0,-2z M108,160l2,0 0,2 -2,0 0,-2z M112,160l2,0 0,2 -2,0 0,-2z M116,160l2,0 0,2 -2,0 0,-2z M118,160l2,0 0,2 -2,0 0,-2z M122,160l2,0 0,2 -2,0 0,-2z M124,160l2,0 0,2 -2,0 0,-2z M128,160l2,0 0,2 -2,0 0,-2z M136,160l2,0 0,2 -2,0 0,-2z M140,160l2,0 0,2 -2,0 0,-2z M144,160l2,0 0,2 -2,0 0,-2z M146,160l2,0 0,2 -2,0 0,-2z M148,160l2,0 0,2 -2,0 0,-2z M150,160l2,0 0,2 -2,0 0,-2z M154,160l2,0 0,2 -2,0 0,-2z M158,160l2,0 0,2 -2,0 0,-2z " stroke="transparent" fill="black"></path></svg>