<svg width="170px" height="170px" xmlns="http://www.w3.org/2000/svg"><path d="M8,8l2,0 0,2 -2,0 0,-2z M10,8l2,0 0,2 -2,0 0,-2z M12,8l2,0 0,2 -2,0 0,-2z M14,8l2,0 0,2 -2,0 0,-2z M16,8l2,0 0,2 -2,0 0,-2z M18,8l2,0 0,2 -2,0 0,-2z M20,8l2,0 0,2 -2,0 0,-2z M24,8l2,0 0,2 -2,0 0,-2z M26,8l2,0 0,2 -2,0 0,-2z M32,8l2,0 0,2 -2,0 0,-2z M34,8l2,0 0,2 -2,0 0,-2z M38,8l2,0 0,2 -2,0 0,-2z M40,8l2,0 0,2 -2,0 0,-2z M48,8l2,0 0,2 -2,0 0,-2z M50,8l2,0 0,2 -2,0 0,-2z M52,8l2,0 0,2 -2,0 0,-2z M68,8l2,0 0,2 -2,0 0,-2z M72,8l2,0 0,2 -2,0 0,-2z M78,8l2,0 0,2 -2,0 0,-2z M80,8l2,0 0,2 -2,0 0,-2z M88,8l2,0 0,2 -2,0 0,-2z M90,8l2,0 0,2 -2,0 0,-2z M94,8l2,0 0,2 -2,0 0,-2z M106,8l2,0 0,2 -2,0 0,-2z M118,8l2,0 0,2 -2,0 0,-2z M120,8l2,0 0,2 -2,0 0,-2z M124,8l2,0 0,2 -2,0 0,-2z M126,8l2,0 0,2 -2,0 0,-2z M132,8l2,0 0,2 -2,0 0,-2z M134,8l2,0 0,2 -2,0 0,-2z M136,8l2,0 0,2 -2,0 0,-2z M148,8l2,0 0,2 -2,0 0,-2z M150,8l2,0 0,2 -2,0 0,-2z M152,8l2,0 0,2 -2,0 0,-2z M154,8l2,0 0,2 -2,0 0,-2z M156,8l2,0 0,2 -2,0 0,-2z M158,8l2,0 0,2 -2,0 0,-2z M160,8l2,0 0,2 -2,0 0,-2z M8,10l2,0 0,2 -2,0 0,-2z M20,10l2,0 0,2 -2,0 0,-2z M24,10l2,0 0,2 -2,0 0,-2z M30,10l2,0 0,2 -2,0 0,-2z M34,10l2,0 0,2 -2,0 0,-2z M38,10l2,0 0,2 -2,0 0,-2z M44,10l2,0 0,2 -2,0 0,-2z M58,10l2,0 0,2 -2,0 0,-2z M60,10l2,0 0,2 -2,0 0,-2z M66,10l2,0 0,2 -2,0 0,-2z M68,10l2,0 0,2 -2,0 0,-2z M70,10l2,0 0,2 -2,0 0,-2z M72,10l2,0 0,2 -2,0 0,-2z M78,10l2,0 0,2 -2,0 0,-2z M82,10l2,0 0,2 -2,0 0,-2z M84,10l2,0 0,2 -2,0 0,-2z M86,10l2,0 0,2 -2,0 0,-2z M88,10l2,0 0,2 -2,0 0,-2z M92,10l2,0 0,2 -2,0 0,-2z M102,10l2,0 0,2 -2,0 0,-2z M104,10l2,0 0,2 -2,0 0,-2z M106,10l2,0 0,2 -2,0 0,-2z M108,10l2,0 0,2 -2,0 0,-2z M116,10l2,0 0,2 -2,0 0,-2z M118,10l2,0 0,2 -2,0 0,-2z M122,10l2,0 0,2 -2,0 0,-2z M124,10l2,0 0,2 -2,0 0,-2z M126,10l2,0 0,2 -2,0 0,-2z M130,10l2,0 0,2 -2,0 0,-2z M134,10l2,0 0,2 -2,0 0,-2z M136,10l2,0 0,2 -2,0 0,-2z M140,10l2,0 0,2 -2,0 0,-2z M144,10l2,0 0,2 -2,0 0,-2z M148,10l2,0 0,2 -2,0 0,-2z M160,10l2,0 0,2 -2,0 0,-2z M8,12l2,0 0,2 -2,0 0,-2z M12,12l2,0 0,2 -2,0 0,-2z M14,12l2,0 0,2 -2,0 0,-2z M16,12l2,0 0,2 -2,0 0,-2z M20,12l2,0 0,2 -2,0 0,-2z M24,12l2,0 0,2 -2,0 0,-2z M26,12l2,0 0,2 -2,0 0,-2z M28,12l2,0 0,2 -2,0 0,-2z M34,12l2,0 0,2 -2,0 0,-2z M42,12l2,0 0,2 -2,0 0,-2z M46,12l2,0 0,2 -2,0 0,-2z M48,12l2,0 0,2 -2,0 0,-2z M50,12l2,0 0,2 -2,0 0,-2z M52,12l2,0 0,2 -2,0 0,-2z M54,12l2,0 0,2 -2,0 0,-2z M56,12l2,0 0,2 -2,0 0,-2z M58,12l2,0 0,2 -2,0 0,-2z M60,12l2,0 0,2 -2,0 0,-2z M68,12l2,0 0,2 -2,0 0,-2z M78,12l2,0 0,2 -2,0 0,-2z M80,12l2,0 0,2 -2,0 0,-2z M88,12l2,0 0,2 -2,0 0,-2z M90,12l2,0 0,2 -2,0 0,-2z M96,12l2,0 0,2 -2,0 0,-2z M98,12l2,0 0,2 -2,0 0,-2z M104,12l2,0 0,2 -2,0 0,-2z M108,12l2,0 0,2 -2,0 0,-2z M110,12l2,0 0,2 -2,0 0,-2z M116,12l2,0 0,2 -2,0 0,-2z M118,12l2,0 0,2 -2,0 0,-2z M122,12l2,0 0,2 -2,0 0,-2z M124,12l2,0 0,2 -2,0 0,-2z M134,12l2,0 0,2 -2,0 0,-2z M136,12l2,0 0,2 -2,0 0,-2z M144,12l2,0 0,2 -2,0 0,-2z M148,12l2,0 0,2 -2,0 0,-2z M152,12l2,0 0,2 -2,0 0,-2z M154,12l2,0 0,2 -2,0 0,-2z M156,12l2,0 0,2 -2,0 0,-2z M160,12l2,0 0,2 -2,0 0,-2z M8,14l2,0 0,2 -2,0 0,-2z M12,14l2,0 0,2 -2,0 0,-2z M14,14l2,0 0,2 -2,0 0,-2z M16,14l2,0 0,2 -2,0 0,-2z M20,14l2,0 0,2 -2,0 0,-2z M24,14l2,0 0,2 -2,0 0,-2z M34,14l2,0 0,2 -2,0 0,-2z M36,14l2,0 0,2 -2,0 0,-2z M38,14l2,0 0,2 -2,0 0,-2z M42,14l2,0 0,2 -2,0 0,-2z M44,14l2,0 0,2 -2,0 0,-2z M50,14l2,0 0,2 -2,0 0,-2z M62,14l2,0 0,2 -2,0 0,-2z M64,14l2,0 0,2 -2,0 0,-2z M66,14l2,0 0,2 -2,0 0,-2z M68,14l2,0 0,2 -2,0 0,-2z M70,14l2,0 0,2 -2,0 0,-2z M74,14l2,0 0,2 -2,0 0,-2z M84,14l2,0 0,2 -2,0 0,-2z M86,14l2,0 0,2 -2,0 0,-2z M88,14l2,0 0,2 -2,0 0,-2z M94,14l2,0 0,2 -2,0 0,-2z M98,14l2,0 0,2 -2,0 0,-2z M100,14l2,0 0,2 -2,0 0,-2z M104,14l2,0 0,2 -2,0 0,-2z M112,14l2,0 0,2 -2,0 0,-2z M116,14l2,0 0,2 -2,0 0,-2z M122,14l2,0 0,2 -2,0 0,-2z M126,14l2,0 0,2 -2,0 0,-2z M130,14l2,0 0,2 -2,0 0,-2z M134,14l2,0 0,2 -2,0 0,-2z M138,14l2,0 0,2 -2,0 0,-2z M144,14l2,0 0,2 -2,0 0,-2z M148,14l2,0 0,2 -2,0 0,-2z M152,14l2,0 0,2 -2,0 0,-2z M154,14l2,0 0,2 -2,0 0,-2z M156,14l2,0 0,2 -2,0 0,-2z M160,14l2,0 0,2 -2,0 0,-2z M8,16l2,0 0,2 -2,0 0,-2z M12,16l2,0 0,2 -2,0 0,-2z M14,16l2,0 0,2 -2,0 0,-2z M16,16l2,0 0,2 -2,0 0,-2z M20,16l2,0 0,2 -2,0 0,-2z M28,16l2,0 0,2 -2,0 0,-2z M32,16l2,0 0,2 -2,0 0,-2z M34,16l2,0 0,2 -2,0 0,-2z M38,16l2,0 0,2 -2,0 0,-2z M44,16l2,0 0,2 -2,0 0,-2z M46,16l2,0 0,2 -2,0 0,-2z M56,16l2,0 0,2 -2,0 0,-2z M58,16l2,0 0,2 -2,0 0,-2z M60,16l2,0 0,2 -2,0 0,-2z M62,16l2,0 0,2 -2,0 0,-2z M64,16l2,0 0,2 -2,0 0,-2z M66,16l2,0 0,2 -2,0 0,-2z M70,16l2,0 0,2 -2,0 0,-2z M74,16l2,0 0,2 -2,0 0,-2z M78,16l2,0 0,2 -2,0 0,-2z M80,16l2,0 0,2 -2,0 0,-2z M84,16l2,0 0,2 -2,0 0,-2z M86,16l2,0 0,2 -2,0 0,-2z M92,16l2,0 0,2 -2,0 0,-2z M96,16l2,0 0,2 -2,0 0,-2z M98,16l2,0 0,2 -2,0 0,-2z M100,16l2,0 0,2 -2,0 0,-2z M102,16l2,0 0,2 -2,0 0,-2z M104,16l2,0 0,2 -2,0 0,-2z M106,16l2,0 0,2 -2,0 0,-2z M108,16l2,0 0,2 -2,0 0,-2z M110,16l2,0 0,2 -2,0 0,-2z M112,16l2,0 0,2 -2,0 0,-2z M114,16l2,0 0,2 -2,0 0,-2z M116,16l2,0 0,2 -2,0 0,-2z M118,16l2,0 0,2 -2,0 0,-2z M124,16l2,0 0,2 -2,0 0,-2z M126,16l2,0 0,2 -2,0 0,-2z M130,16l2,0 0,2 -2,0 0,-2z M140,16l2,0 0,2 -2,0 0,-2z M142,16l2,0 0,2 -2,0 0,-2z M144,16l2,0 0,2 -2,0 0,-2z M148,16l2,0 0,2 -2,0 0,-2z M152,16l2,0 0,2 -2,0 0,-2z M154,16l2,0 0,2 -2,0 0,-2z M156,16l2,0 0,2 -2,0 0,-2z M160,16l2,0 0,2 -2,0 0,-2z M8,18l2,0 0,2 -2,0 0,-2z M20,18l2,0 0,2 -2,0 0,-2z M24,18l2,0 0,2 -2,0 0,-2z M26,18l2,0 0,2 -2,0 0,-2z M30,18l2,0 0,2 -2,0 0,-2z M32,18l2,0 0,2 -2,0 0,-2z M42,18l2,0 0,2 -2,0 0,-2z M46,18l2,0 0,2 -2,0 0,-2z M48,18l2,0 0,2 -2,0 0,-2z M50,18l2,0 0,2 -2,0 0,-2z M52,18l2,0 0,2 -2,0 0,-2z M54,18l2,0 0,2 -2,0 0,-2z M56,18l2,0 0,2 -2,0 0,-2z M64,18l2,0 0,2 -2,0 0,-2z M68,18l2,0 0,2 -2,0 0,-2z M70,18l2,0 0,2 -2,0 0,-2z M72,18l2,0 0,2 -2,0 0,-2z M78,18l2,0 0,2 -2,0 0,-2z M80,18l2,0 0,2 -2,0 0,-2z M82,18l2,0 0,2 -2,0 0,-2z M90,18l2,0 0,2 -2,0 0,-2z M92,18l2,0 0,2 -2,0 0,-2z M96,18l2,0 0,2 -2,0 0,-2z M98,18l2,0 0,2 -2,0 0,-2z M100,18l2,0 0,2 -2,0 0,-2z M108,18l2,0 0,2 -2,0 0,-2z M110,18l2,0 0,2 -2,0 0,-2z M112,18l2,0 0,2 -2,0 0,-2z M122,18l2,0 0,2 -2,0 0,-2z M124,18l2,0 0,2 -2,0 0,-2z M126,18l2,0 0,2 -2,0 0,-2z M128,18l2,0 0,2 -2,0 0,-2z M130,18l2,0 0,2 -2,0 0,-2z M140,18l2,0 0,2 -2,0 0,-2z M148,18l2,0 0,2 -2,0 0,-2z M160,18l2,0 0,2 -2,0 0,-2z M8,20l2,0 0,2 -2,0 0,-2z M10,20l2,0 0,2 -2,0 0,-2z M12,20l2,0 0,2 -2,0 0,-2z M14,20l2,0 0,2 -2,0 0,-2z M16,20l2,0 0,2 -2,0 0,-2z M18,20l2,0 0,2 -2,0 0,-2z M20,20l2,0 0,2 -2,0 0,-2z M24,20l2,0 0,2 -2,0 0,-2z M28,20l2,0 0,2 -2,0 0,-2z M32,20l2,0 0,2 -2,0 0,-2z M36,20l2,0 0,2 -2,0 0,-2z M40,20l2,0 0,2 -2,0 0,-2z M44,20l2,0 0,2 -2,0 0,-2z M48,20l2,0 0,2 -2,0 0,-2z M52,20l2,0 0,2 -2,0 0,-2z M56,20l2,0 0,2 -2,0 0,-2z M60,20l2,0 0,2 -2,0 0,-2z M64,20l2,0 0,2 -2,0 0,-2z M68,20l2,0 0,2 -2,0 0,-2z M72,20l2,0 0,2 -2,0 0,-2z M76,20l2,0 0,2 -2,0 0,-2z M80,20l2,0 0,2 -2,0 0,-2z M84,20l2,0 0,2 -2,0 0,-2z M88,20l2,0 0,2 -2,0 0,-2z M92,20l2,0 0,2 -2,0 0,-2z M96,20l2,0 0,2 -2,0 0,-2z M100,20l2,0 0,2 -2,0 0,-2z M104,20l2,0 0,2 -2,0 0,-2z M108,20l2,0 0,2 -2,0 0,-2z M112,20l2,0 0,2 -2,0 0,-2z M116,20l2,0 0,2 -2,0 0,-2z M120,20l2,0 0,2 -2,0 0,-2z M124,20l2,0 0,2 -2,0 0,-2z M128,20l2,0 0,2 -2,0 0,-2z M132,20l2,0 0,2 -2,0 0,-2z M136,20l2,0 0,2 -2,0 0,-2z M140,20l2,0 0,2 -2,0 0,-2z M144,20l2,0 0,2 -2,0 0,-2z M148,20l2,0 0,2 -2,0 0,-2z M150,20l2,0 0,2 -2,0 0,-2z M152,20l2,0 0,2 -2,0 0,-2z M154,20l2,0 0,2 -2,0 0,-2z M156,20l2,0 0,2 -2,0 0,-2z M158,20l2,0 0,2 -2,0 0,-2z M160,20l2,0 0,2 -2,0 0,-2z M26,22l2,0 0,2 -2,0 0,-2z M28,22l2,0 0,2 -2,0 0,-2z M32,22l2,0 0,2 -2,0 0,-2z M44,22l2,0 0,2 -2,0 0,-2z M48,22l2,0 0,2 -2,0 0,-2z M54,22l2,0 0,2 -2,0 0,-2z M56,22l2,0 0,2 -2,0 0,-2z M64,22l2,0 0,2 -2,0 0,-2z M66,22l2,0 0,2 -2,0 0,-2z M70,22l2,0 0,2 -2,0 0,-2z M72,22l2,0 0,2 -2,0 0,-2z M74,22l2,0 0,2 -2,0 0,-2z M76,22l2,0 0,2 -2,0 0,-2z M78,22l2,0 0,2 -2,0 0,-2z M86,22l2,0 0,2 -2,0 0,-2z M88,22l2,0 0,2 -2,0 0,-2z M92,22l2,0 0,2 -2,0 0,-2z M96,22l2,0 0,2 -2,0 0,-2z M100,22l2,0 0,2 -2,0 0,-2z M108,22l2,0 0,2 -2,0 0,-2z M110,22l2,0 0,2 -2,0 0,-2z M112,22l2,0 0,2 -2,0 0,-2z M114,22l2,0 0,2 -2,0 0,-2z M118,22l2,0 0,2 -2,0 0,-2z M122,22l2,0 0,2 -2,0 0,-2z M126,22l2,0 0,2 -2,0 0,-2z M128,22l2,0 0,2 -2,0 0,-2z M134,22l2,0 0,2 -2,0 0,-2z M140,22l2,0 0,2 -2,0 0,-2z M8,24l2,0 0,2 -2,0 0,-2z M10,24l2,0 0,2 -2,0 0,-2z M16,24l2,0 0,2 -2,0 0,-2z M18,24l2,0 0,2 -2,0 0,-2z M20,24l2,0 0,2 -2,0 0,-2z M34,24l2,0 0,2 -2,0 0,-2z M42,24l2,0 0,2 -2,0 0,-2z M44,24l2,0 0,2 -2,0 0,-2z M50,24l2,0 0,2 -2,0 0,-2z M54,24l2,0 0,2 -2,0 0,-2z M56,24l2,0 0,2 -2,0 0,-2z M58,24l2,0 0,2 -2,0 0,-2z M60,24l2,0 0,2 -2,0 0,-2z M62,24l2,0 0,2 -2,0 0,-2z M64,24l2,0 0,2 -2,0 0,-2z M66,24l2,0 0,2 -2,0 0,-2z M68,24l2,0 0,2 -2,0 0,-2z M70,24l2,0 0,2 -2,0 0,-2z M72,24l2,0 0,2 -2,0 0,-2z M74,24l2,0 0,2 -2,0 0,-2z M78,24l2,0 0,2 -2,0 0,-2z M82,24l2,0 0,2 -2,0 0,-2z M84,24l2,0 0,2 -2,0 0,-2z M86,24l2,0 0,2 -2,0 0,-2z M88,24l2,0 0,2 -2,0 0,-2z M94,24l2,0 0,2 -2,0 0,-2z M96,24l2,0 0,2 -2,0 0,-2z M98,24l2,0 0,2 -2,0 0,-2z M100,24l2,0 0,2 -2,0 0,-2z M102,24l2,0 0,2 -2,0 0,-2z M104,24l2,0 0,2 -2,0 0,-2z M106,24l2,0 0,2 -2,0 0,-2z M108,24l2,0 0,2 -2,0 0,-2z M112,24l2,0 0,2 -2,0 0,-2z M116,24l2,0 0,2 -2,0 0,-2z M118,24l2,0 0,2 -2,0 0,-2z M120,24l2,0 0,2 -2,0 0,-2z M126,24l2,0 0,2 -2,0 0,-2z M128,24l2,0 0,2 -2,0 0,-2z M130,24l2,0 0,2 -2,0 0,-2z M134,24l2,0 0,2 -2,0 0,-2z M138,24l2,0 0,2 -2,0 0,-2z M142,24l2,0 0,2 -2,0 0,-2z M150,24l2,0 0,2 -2,0 0,-2z M154,24l2,0 0,2 -2,0 0,-2z M156,24l2,0 0,2 -2,0 0,-2z M158,24l2,0 0,2 -2,0 0,-2z M160,24l2,0 0,2 -2,0 0,-2z M10,26l2,0 0,2 -2,0 0,-2z M26,26l2,0 0,2 -2,0 0,-2z M28,26l2,0 0,2 -2,0 0,-2z M32,26l2,0 0,2 -2,0 0,-2z M34,26l2,0 0,2 -2,0 0,-2z M36,26l2,0 0,2 -2,0 0,-2z M38,26l2,0 0,2 -2,0 0,-2z M40,26l2,0 0,2 -2,0 0,-2z M46,26l2,0 0,2 -2,0 0,-2z M48,26l2,0 0,2 -2,0 0,-2z M52,26l2,0 0,2 -2,0 0,-2z M58,26l2,0 0,2 -2,0 0,-2z M62,26l2,0 0,2 -2,0 0,-2z M64,26l2,0 0,2 -2,0 0,-2z M68,26l2,0 0,2 -2,0 0,-2z M72,26l2,0 0,2 -2,0 0,-2z M82,26l2,0 0,2 -2,0 0,-2z M84,26l2,0 0,2 -2,0 0,-2z M88,26l2,0 0,2 -2,0 0,-2z M90,26l2,0 0,2 -2,0 0,-2z M94,26l2,0 0,2 -2,0 0,-2z M98,26l2,0 0,2 -2,0 0,-2z M102,26l2,0 0,2 -2,0 0,-2z M106,26l2,0 0,2 -2,0 0,-2z M108,26l2,0 0,2 -2,0 0,-2z M118,26l2,0 0,2 -2,0 0,-2z M124,26l2,0 0,2 -2,0 0,-2z M126,26l2,0 0,2 -2,0 0,-2z M130,26l2,0 0,2 -2,0 0,-2z M134,26l2,0 0,2 -2,0 0,-2z M136,26l2,0 0,2 -2,0 0,-2z M138,26l2,0 0,2 -2,0 0,-2z M140,26l2,0 0,2 -2,0 0,-2z M144,26l2,0 0,2 -2,0 0,-2z M146,26l2,0 0,2 -2,0 0,-2z M152,26l2,0 0,2 -2,0 0,-2z M158,26l2,0 0,2 -2,0 0,-2z M10,28l2,0 0,2 -2,0 0,-2z M14,28l2,0 0,2 -2,0 0,-2z M20,28l2,0 0,2 -2,0 0,-2z M22,28l2,0 0,2 -2,0 0,-2z M28,28l2,0 0,2 -2,0 0,-2z M34,28l2,0 0,2 -2,0 0,-2z M46,28l2,0 0,2 -2,0 0,-2z M48,28l2,0 0,2 -2,0 0,-2z M50,28l2,0 0,2 -2,0 0,-2z M52,28l2,0 0,2 -2,0 0,-2z M54,28l2,0 0,2 -2,0 0,-2z M58,28l2,0 0,2 -2,0 0,-2z M60,28l2,0 0,2 -2,0 0,-2z M62,28l2,0 0,2 -2,0 0,-2z M70,28l2,0 0,2 -2,0 0,-2z M76,28l2,0 0,2 -2,0 0,-2z M80,28l2,0 0,2 -2,0 0,-2z M82,28l2,0 0,2 -2,0 0,-2z M84,28l2,0 0,2 -2,0 0,-2z M90,28l2,0 0,2 -2,0 0,-2z M96,28l2,0 0,2 -2,0 0,-2z M98,28l2,0 0,2 -2,0 0,-2z M102,28l2,0 0,2 -2,0 0,-2z M108,28l2,0 0,2 -2,0 0,-2z M110,28l2,0 0,2 -2,0 0,-2z M114,28l2,0 0,2 -2,0 0,-2z M118,28l2,0 0,2 -2,0 0,-2z M122,28l2,0 0,2 -2,0 0,-2z M124,28l2,0 0,2 -2,0 0,-2z M128,28l2,0 0,2 -2,0 0,-2z M130,28l2,0 0,2 -2,0 0,-2z M132,28l2,0 0,2 -2,0 0,-2z M138,28l2,0 0,2 -2,0 0,-2z M140,28l2,0 0,2 -2,0 0,-2z M142,28l2,0 0,2 -2,0 0,-2z M144,28l2,0 0,2 -2,0 0,-2z M146,28l2,0 0,2 -2,0 0,-2z M148,28l2,0 0,2 -2,0 0,-2z M150,28l2,0 0,2 -2,0 0,-2z M156,28l2,0 0,2 -2,0 0,-2z M158,28l2,0 0,2 -2,0 0,-2z M160,28l2,0 0,2 -2,0 0,-2z M8,30l2,0 0,2 -2,0 0,-2z M22,30l2,0 0,2 -2,0 0,-2z M30,30l2,0 0,2 -2,0 0,-2z M32,30l2,0 0,2 -2,0 0,-2z M36,30l2,0 0,2 -2,0 0,-2z M40,30l2,0 0,2 -2,0 0,-2z M42,30l2,0 0,2 -2,0 0,-2z M46,30l2,0 0,2 -2,0 0,-2z M50,30l2,0 0,2 -2,0 0,-2z M52,30l2,0 0,2 -2,0 0,-2z M54,30l2,0 0,2 -2,0 0,-2z M56,30l2,0 0,2 -2,0 0,-2z M60,30l2,0 0,2 -2,0 0,-2z M66,30l2,0 0,2 -2,0 0,-2z M68,30l2,0 0,2 -2,0 0,-2z M86,30l2,0 0,2 -2,0 0,-2z M90,30l2,0 0,2 -2,0 0,-2z M92,30l2,0 0,2 -2,0 0,-2z M94,30l2,0 0,2 -2,0 0,-2z M96,30l2,0 0,2 -2,0 0,-2z M100,30l2,0 0,2 -2,0 0,-2z M110,30l2,0 0,2 -2,0 0,-2z M116,30l2,0 0,2 -2,0 0,-2z M120,30l2,0 0,2 -2,0 0,-2z M126,30l2,0 0,2 -2,0 0,-2z M130,30l2,0 0,2 -2,0 0,-2z M132,30l2,0 0,2 -2,0 0,-2z M136,30l2,0 0,2 -2,0 0,-2z M138,30l2,0 0,2 -2,0 0,-2z M142,30l2,0 0,2 -2,0 0,-2z M148,30l2,0 0,2 -2,0 0,-2z M152,30l2,0 0,2 -2,0 0,-2z M154,30l2,0 0,2 -2,0 0,-2z M156,30l2,0 0,2 -2,0 0,-2z M160,30l2,0 0,2 -2,0 0,-2z M10,32l2,0 0,2 -2,0 0,-2z M14,32l2,0 0,2 -2,0 0,-2z M16,32l2,0 0,2 -2,0 0,-2z M20,32l2,0 0,2 -2,0 0,-2z M22,32l2,0 0,2 -2,0 0,-2z M24,32l2,0 0,2 -2,0 0,-2z M26,32l2,0 0,2 -2,0 0,-2z M28,32l2,0 0,2 -2,0 0,-2z M30,32l2,0 0,2 -2,0 0,-2z M36,32l2,0 0,2 -2,0 0,-2z M40,32l2,0 0,2 -2,0 0,-2z M46,32l2,0 0,2 -2,0 0,-2z M52,32l2,0 0,2 -2,0 0,-2z M56,32l2,0 0,2 -2,0 0,-2z M62,32l2,0 0,2 -2,0 0,-2z M70,32l2,0 0,2 -2,0 0,-2z M72,32l2,0 0,2 -2,0 0,-2z M76,32l2,0 0,2 -2,0 0,-2z M80,32l2,0 0,2 -2,0 0,-2z M86,32l2,0 0,2 -2,0 0,-2z M94,32l2,0 0,2 -2,0 0,-2z M96,32l2,0 0,2 -2,0 0,-2z M102,32l2,0 0,2 -2,0 0,-2z M112,32l2,0 0,2 -2,0 0,-2z M118,32l2,0 0,2 -2,0 0,-2z M120,32l2,0 0,2 -2,0 0,-2z M122,32l2,0 0,2 -2,0 0,-2z M124,32l2,0 0,2 -2,0 0,-2z M132,32l2,0 0,2 -2,0 0,-2z M136,32l2,0 0,2 -2,0 0,-2z M148,32l2,0 0,2 -2,0 0,-2z M154,32l2,0 0,2 -2,0 0,-2z M156,32l2,0 0,2 -2,0 0,-2z M8,34l2,0 0,2 -2,0 0,-2z M10,34l2,0 0,2 -2,0 0,-2z M12,34l2,0 0,2 -2,0 0,-2z M14,34l2,0 0,2 -2,0 0,-2z M16,34l2,0 0,2 -2,0 0,-2z M24,34l2,0 0,2 -2,0 0,-2z M26,34l2,0 0,2 -2,0 0,-2z M32,34l2,0 0,2 -2,0 0,-2z M34,34l2,0 0,2 -2,0 0,-2z M36,34l2,0 0,2 -2,0 0,-2z M38,34l2,0 0,2 -2,0 0,-2z M46,34l2,0 0,2 -2,0 0,-2z M48,34l2,0 0,2 -2,0 0,-2z M56,34l2,0 0,2 -2,0 0,-2z M58,34l2,0 0,2 -2,0 0,-2z M60,34l2,0 0,2 -2,0 0,-2z M66,34l2,0 0,2 -2,0 0,-2z M68,34l2,0 0,2 -2,0 0,-2z M72,34l2,0 0,2 -2,0 0,-2z M74,34l2,0 0,2 -2,0 0,-2z M76,34l2,0 0,2 -2,0 0,-2z M78,34l2,0 0,2 -2,0 0,-2z M80,34l2,0 0,2 -2,0 0,-2z M84,34l2,0 0,2 -2,0 0,-2z M88,34l2,0 0,2 -2,0 0,-2z M90,34l2,0 0,2 -2,0 0,-2z M92,34l2,0 0,2 -2,0 0,-2z M94,34l2,0 0,2 -2,0 0,-2z M100,34l2,0 0,2 -2,0 0,-2z M106,34l2,0 0,2 -2,0 0,-2z M112,34l2,0 0,2 -2,0 0,-2z M120,34l2,0 0,2 -2,0 0,-2z M122,34l2,0 0,2 -2,0 0,-2z M128,34l2,0 0,2 -2,0 0,-2z M130,34l2,0 0,2 -2,0 0,-2z M132,34l2,0 0,2 -2,0 0,-2z M134,34l2,0 0,2 -2,0 0,-2z M136,34l2,0 0,2 -2,0 0,-2z M140,34l2,0 0,2 -2,0 0,-2z M142,34l2,0 0,2 -2,0 0,-2z M144,34l2,0 0,2 -2,0 0,-2z M148,34l2,0 0,2 -2,0 0,-2z M150,34l2,0 0,2 -2,0 0,-2z M154,34l2,0 0,2 -2,0 0,-2z M156,34l2,0 0,2 -2,0 0,-2z M8,36l2,0 0,2 -2,0 0,-2z M10,36l2,0 0,2 -2,0 0,-2z M20,36l2,0 0,2 -2,0 0,-2z M24,36l2,0 0,2 -2,0 0,-2z M28,36l2,0 0,2 -2,0 0,-2z M32,36l2,0 0,2 -2,0 0,-2z M34,36l2,0 0,2 -2,0 0,-2z M38,36l2,0 0,2 -2,0 0,-2z M40,36l2,0 0,2 -2,0 0,-2z M42,36l2,0 0,2 -2,0 0,-2z M48,36l2,0 0,2 -2,0 0,-2z M54,36l2,0 0,2 -2,0 0,-2z M56,36l2,0 0,2 -2,0 0,-2z M64,36l2,0 0,2 -2,0 0,-2z M66,36l2,0 0,2 -2,0 0,-2z M70,36l2,0 0,2 -2,0 0,-2z M72,36l2,0 0,2 -2,0 0,-2z M74,36l2,0 0,2 -2,0 0,-2z M76,36l2,0 0,2 -2,0 0,-2z M78,36l2,0 0,2 -2,0 0,-2z M84,36l2,0 0,2 -2,0 0,-2z M90,36l2,0 0,2 -2,0 0,-2z M94,36l2,0 0,2 -2,0 0,-2z M96,36l2,0 0,2 -2,0 0,-2z M102,36l2,0 0,2 -2,0 0,-2z M108,36l2,0 0,2 -2,0 0,-2z M116,36l2,0 0,2 -2,0 0,-2z M118,36l2,0 0,2 -2,0 0,-2z M122,36l2,0 0,2 -2,0 0,-2z M126,36l2,0 0,2 -2,0 0,-2z M132,36l2,0 0,2 -2,0 0,-2z M134,36l2,0 0,2 -2,0 0,-2z M136,36l2,0 0,2 -2,0 0,-2z M138,36l2,0 0,2 -2,0 0,-2z M142,36l2,0 0,2 -2,0 0,-2z M144,36l2,0 0,2 -2,0 0,-2z M148,36l2,0 0,2 -2,0 0,-2z M156,36l2,0 0,2 -2,0 0,-2z M16,38l2,0 0,2 -2,0 0,-2z M18,38l2,0 0,2 -2,0 0,-2z M24,38l2,0 0,2 -2,0 0,-2z M26,38l2,0 0,2 -2,0 0,-2z M30,38l2,0 0,2 -2,0 0,-2z M34,38l2,0 0,2 -2,0 0,-2z M38,38l2,0 0,2 -2,0 0,-2z M42,38l2,0 0,2 -2,0 0,-2z M44,38l2,0 0,2 -2,0 0,-2z M46,38l2,0 0,2 -2,0 0,-2z M48,38l2,0 0,2 -2,0 0,-2z M58,38l2,0 0,2 -2,0 0,-2z M62,38l2,0 0,2 -2,0 0,-2z M64,38l2,0 0,2 -2,0 0,-2z M66,38l2,0 0,2 -2,0 0,-2z M68,38l2,0 0,2 -2,0 0,-2z M74,38l2,0 0,2 -2,0 0,-2z M76,38l2,0 0,2 -2,0 0,-2z M78,38l2,0 0,2 -2,0 0,-2z M90,38l2,0 0,2 -2,0 0,-2z M92,38l2,0 0,2 -2,0 0,-2z M94,38l2,0 0,2 -2,0 0,-2z M98,38l2,0 0,2 -2,0 0,-2z M102,38l2,0 0,2 -2,0 0,-2z M104,38l2,0 0,2 -2,0 0,-2z M110,38l2,0 0,2 -2,0 0,-2z M120,38l2,0 0,2 -2,0 0,-2z M122,38l2,0 0,2 -2,0 0,-2z M124,38l2,0 0,2 -2,0 0,-2z M126,38l2,0 0,2 -2,0 0,-2z M128,38l2,0 0,2 -2,0 0,-2z M138,38l2,0 0,2 -2,0 0,-2z M144,38l2,0 0,2 -2,0 0,-2z M148,38l2,0 0,2 -2,0 0,-2z M150,38l2,0 0,2 -2,0 0,-2z M154,38l2,0 0,2 -2,0 0,-2z M158,38l2,0 0,2 -2,0 0,-2z M12,40l2,0 0,2 -2,0 0,-2z M20,40l2,0 0,2 -2,0 0,-2z M24,40l2,0 0,2 -2,0 0,-2z M28,40l2,0 0,2 -2,0 0,-2z M32,40l2,0 0,2 -2,0 0,-2z M34,40l2,0 0,2 -2,0 0,-2z M38,40l2,0 0,2 -2,0 0,-2z M40,40l2,0 0,2 -2,0 0,-2z M44,40l2,0 0,2 -2,0 0,-2z M46,40l2,0 0,2 -2,0 0,-2z M48,40l2,0 0,2 -2,0 0,-2z M50,40l2,0 0,2 -2,0 0,-2z M54,40l2,0 0,2 -2,0 0,-2z M58,40l2,0 0,2 -2,0 0,-2z M60,40l2,0 0,2 -2,0 0,-2z M74,40l2,0 0,2 -2,0 0,-2z M78,40l2,0 0,2 -2,0 0,-2z M84,40l2,0 0,2 -2,0 0,-2z M90,40l2,0 0,2 -2,0 0,-2z M94,40l2,0 0,2 -2,0 0,-2z M96,40l2,0 0,2 -2,0 0,-2z M98,40l2,0 0,2 -2,0 0,-2z M100,40l2,0 0,2 -2,0 0,-2z M102,40l2,0 0,2 -2,0 0,-2z M104,40l2,0 0,2 -2,0 0,-2z M112,40l2,0 0,2 -2,0 0,-2z M114,40l2,0 0,2 -2,0 0,-2z M116,40l2,0 0,2 -2,0 0,-2z M120,40l2,0 0,2 -2,0 0,-2z M126,40l2,0 0,2 -2,0 0,-2z M128,40l2,0 0,2 -2,0 0,-2z M130,40l2,0 0,2 -2,0 0,-2z M132,40l2,0 0,2 -2,0 0,-2z M138,40l2,0 0,2 -2,0 0,-2z M140,40l2,0 0,2 -2,0 0,-2z M146,40l2,0 0,2 -2,0 0,-2z M148,40l2,0 0,2 -2,0 0,-2z M150,40l2,0 0,2 -2,0 0,-2z M152,40l2,0 0,2 -2,0 0,-2z M154,40l2,0 0,2 -2,0 0,-2z M156,40l2,0 0,2 -2,0 0,-2z M158,40l2,0 0,2 -2,0 0,-2z M160,40l2,0 0,2 -2,0 0,-2z M8,42l2,0 0,2 -2,0 0,-2z M12,42l2,0 0,2 -2,0 0,-2z M14,42l2,0 0,2 -2,0 0,-2z M22,42l2,0 0,2 -2,0 0,-2z M24,42l2,0 0,2 -2,0 0,-2z M30,42l2,0 0,2 -2,0 0,-2z M32,42l2,0 0,2 -2,0 0,-2z M36,42l2,0 0,2 -2,0 0,-2z M38,42l2,0 0,2 -2,0 0,-2z M42,42l2,0 0,2 -2,0 0,-2z M44,42l2,0 0,2 -2,0 0,-2z M46,42l2,0 0,2 -2,0 0,-2z M52,42l2,0 0,2 -2,0 0,-2z M54,42l2,0 0,2 -2,0 0,-2z M60,42l2,0 0,2 -2,0 0,-2z M62,42l2,0 0,2 -2,0 0,-2z M64,42l2,0 0,2 -2,0 0,-2z M66,42l2,0 0,2 -2,0 0,-2z M68,42l2,0 0,2 -2,0 0,-2z M70,42l2,0 0,2 -2,0 0,-2z M82,42l2,0 0,2 -2,0 0,-2z M84,42l2,0 0,2 -2,0 0,-2z M92,42l2,0 0,2 -2,0 0,-2z M96,42l2,0 0,2 -2,0 0,-2z M102,42l2,0 0,2 -2,0 0,-2z M106,42l2,0 0,2 -2,0 0,-2z M112,42l2,0 0,2 -2,0 0,-2z M124,42l2,0 0,2 -2,0 0,-2z M126,42l2,0 0,2 -2,0 0,-2z M130,42l2,0 0,2 -2,0 0,-2z M134,42l2,0 0,2 -2,0 0,-2z M136,42l2,0 0,2 -2,0 0,-2z M140,42l2,0 0,2 -2,0 0,-2z M142,42l2,0 0,2 -2,0 0,-2z M146,42l2,0 0,2 -2,0 0,-2z M152,42l2,0 0,2 -2,0 0,-2z M158,42l2,0 0,2 -2,0 0,-2z M160,42l2,0 0,2 -2,0 0,-2z M8,44l2,0 0,2 -2,0 0,-2z M10,44l2,0 0,2 -2,0 0,-2z M12,44l2,0 0,2 -2,0 0,-2z M16,44l2,0 0,2 -2,0 0,-2z M18,44l2,0 0,2 -2,0 0,-2z M20,44l2,0 0,2 -2,0 0,-2z M26,44l2,0 0,2 -2,0 0,-2z M28,44l2,0 0,2 -2,0 0,-2z M32,44l2,0 0,2 -2,0 0,-2z M34,44l2,0 0,2 -2,0 0,-2z M52,44l2,0 0,2 -2,0 0,-2z M54,44l2,0 0,2 -2,0 0,-2z M58,44l2,0 0,2 -2,0 0,-2z M60,44l2,0 0,2 -2,0 0,-2z M62,44l2,0 0,2 -2,0 0,-2z M70,44l2,0 0,2 -2,0 0,-2z M72,44l2,0 0,2 -2,0 0,-2z M76,44l2,0 0,2 -2,0 0,-2z M80,44l2,0 0,2 -2,0 0,-2z M82,44l2,0 0,2 -2,0 0,-2z M86,44l2,0 0,2 -2,0 0,-2z M92,44l2,0 0,2 -2,0 0,-2z M98,44l2,0 0,2 -2,0 0,-2z M102,44l2,0 0,2 -2,0 0,-2z M104,44l2,0 0,2 -2,0 0,-2z M108,44l2,0 0,2 -2,0 0,-2z M112,44l2,0 0,2 -2,0 0,-2z M114,44l2,0 0,2 -2,0 0,-2z M116,44l2,0 0,2 -2,0 0,-2z M118,44l2,0 0,2 -2,0 0,-2z M120,44l2,0 0,2 -2,0 0,-2z M122,44l2,0 0,2 -2,0 0,-2z M124,44l2,0 0,2 -2,0 0,-2z M128,44l2,0 0,2 -2,0 0,-2z M140,44l2,0 0,2 -2,0 0,-2z M148,44l2,0 0,2 -2,0 0,-2z M152,44l2,0 0,2 -2,0 0,-2z M156,44l2,0 0,2 -2,0 0,-2z M160,44l2,0 0,2 -2,0 0,-2z M10,46l2,0 0,2 -2,0 0,-2z M12,46l2,0 0,2 -2,0 0,-2z M22,46l2,0 0,2 -2,0 0,-2z M24,46l2,0 0,2 -2,0 0,-2z M26,46l2,0 0,2 -2,0 0,-2z M30,46l2,0 0,2 -2,0 0,-2z M36,46l2,0 0,2 -2,0 0,-2z M44,46l2,0 0,2 -2,0 0,-2z M50,46l2,0 0,2 -2,0 0,-2z M54,46l2,0 0,2 -2,0 0,-2z M56,46l2,0 0,2 -2,0 0,-2z M60,46l2,0 0,2 -2,0 0,-2z M70,46l2,0 0,2 -2,0 0,-2z M76,46l2,0 0,2 -2,0 0,-2z M78,46l2,0 0,2 -2,0 0,-2z M82,46l2,0 0,2 -2,0 0,-2z M84,46l2,0 0,2 -2,0 0,-2z M92,46l2,0 0,2 -2,0 0,-2z M98,46l2,0 0,2 -2,0 0,-2z M100,46l2,0 0,2 -2,0 0,-2z M102,46l2,0 0,2 -2,0 0,-2z M104,46l2,0 0,2 -2,0 0,-2z M106,46l2,0 0,2 -2,0 0,-2z M112,46l2,0 0,2 -2,0 0,-2z M116,46l2,0 0,2 -2,0 0,-2z M122,46l2,0 0,2 -2,0 0,-2z M128,46l2,0 0,2 -2,0 0,-2z M130,46l2,0 0,2 -2,0 0,-2z M132,46l2,0 0,2 -2,0 0,-2z M134,46l2,0 0,2 -2,0 0,-2z M138,46l2,0 0,2 -2,0 0,-2z M142,46l2,0 0,2 -2,0 0,-2z M146,46l2,0 0,2 -2,0 0,-2z M154,46l2,0 0,2 -2,0 0,-2z M158,46l2,0 0,2 -2,0 0,-2z M160,46l2,0 0,2 -2,0 0,-2z M8,48l2,0 0,2 -2,0 0,-2z M10,48l2,0 0,2 -2,0 0,-2z M18,48l2,0 0,2 -2,0 0,-2z M20,48l2,0 0,2 -2,0 0,-2z M30,48l2,0 0,2 -2,0 0,-2z M34,48l2,0 0,2 -2,0 0,-2z M36,48l2,0 0,2 -2,0 0,-2z M38,48l2,0 0,2 -2,0 0,-2z M42,48l2,0 0,2 -2,0 0,-2z M44,48l2,0 0,2 -2,0 0,-2z M46,48l2,0 0,2 -2,0 0,-2z M52,48l2,0 0,2 -2,0 0,-2z M56,48l2,0 0,2 -2,0 0,-2z M62,48l2,0 0,2 -2,0 0,-2z M68,48l2,0 0,2 -2,0 0,-2z M70,48l2,0 0,2 -2,0 0,-2z M72,48l2,0 0,2 -2,0 0,-2z M74,48l2,0 0,2 -2,0 0,-2z M78,48l2,0 0,2 -2,0 0,-2z M80,48l2,0 0,2 -2,0 0,-2z M82,48l2,0 0,2 -2,0 0,-2z M86,48l2,0 0,2 -2,0 0,-2z M98,48l2,0 0,2 -2,0 0,-2z M100,48l2,0 0,2 -2,0 0,-2z M114,48l2,0 0,2 -2,0 0,-2z M116,48l2,0 0,2 -2,0 0,-2z M118,48l2,0 0,2 -2,0 0,-2z M128,48l2,0 0,2 -2,0 0,-2z M142,48l2,0 0,2 -2,0 0,-2z M146,48l2,0 0,2 -2,0 0,-2z M154,48l2,0 0,2 -2,0 0,-2z M156,48l2,0 0,2 -2,0 0,-2z M14,50l2,0 0,2 -2,0 0,-2z M22,50l2,0 0,2 -2,0 0,-2z M26,50l2,0 0,2 -2,0 0,-2z M28,50l2,0 0,2 -2,0 0,-2z M30,50l2,0 0,2 -2,0 0,-2z M32,50l2,0 0,2 -2,0 0,-2z M36,50l2,0 0,2 -2,0 0,-2z M38,50l2,0 0,2 -2,0 0,-2z M40,50l2,0 0,2 -2,0 0,-2z M48,50l2,0 0,2 -2,0 0,-2z M52,50l2,0 0,2 -2,0 0,-2z M56,50l2,0 0,2 -2,0 0,-2z M58,50l2,0 0,2 -2,0 0,-2z M60,50l2,0 0,2 -2,0 0,-2z M68,50l2,0 0,2 -2,0 0,-2z M72,50l2,0 0,2 -2,0 0,-2z M74,50l2,0 0,2 -2,0 0,-2z M78,50l2,0 0,2 -2,0 0,-2z M80,50l2,0 0,2 -2,0 0,-2z M86,50l2,0 0,2 -2,0 0,-2z M90,50l2,0 0,2 -2,0 0,-2z M92,50l2,0 0,2 -2,0 0,-2z M94,50l2,0 0,2 -2,0 0,-2z M100,50l2,0 0,2 -2,0 0,-2z M104,50l2,0 0,2 -2,0 0,-2z M108,50l2,0 0,2 -2,0 0,-2z M112,50l2,0 0,2 -2,0 0,-2z M118,50l2,0 0,2 -2,0 0,-2z M120,50l2,0 0,2 -2,0 0,-2z M128,50l2,0 0,2 -2,0 0,-2z M132,50l2,0 0,2 -2,0 0,-2z M134,50l2,0 0,2 -2,0 0,-2z M142,50l2,0 0,2 -2,0 0,-2z M144,50l2,0 0,2 -2,0 0,-2z M150,50l2,0 0,2 -2,0 0,-2z M154,50l2,0 0,2 -2,0 0,-2z M156,50l2,0 0,2 -2,0 0,-2z M8,52l2,0 0,2 -2,0 0,-2z M10,52l2,0 0,2 -2,0 0,-2z M16,52l2,0 0,2 -2,0 0,-2z M18,52l2,0 0,2 -2,0 0,-2z M20,52l2,0 0,2 -2,0 0,-2z M24,52l2,0 0,2 -2,0 0,-2z M28,52l2,0 0,2 -2,0 0,-2z M30,52l2,0 0,2 -2,0 0,-2z M38,52l2,0 0,2 -2,0 0,-2z M40,52l2,0 0,2 -2,0 0,-2z M42,52l2,0 0,2 -2,0 0,-2z M46,52l2,0 0,2 -2,0 0,-2z M48,52l2,0 0,2 -2,0 0,-2z M54,52l2,0 0,2 -2,0 0,-2z M56,52l2,0 0,2 -2,0 0,-2z M64,52l2,0 0,2 -2,0 0,-2z M66,52l2,0 0,2 -2,0 0,-2z M74,52l2,0 0,2 -2,0 0,-2z M86,52l2,0 0,2 -2,0 0,-2z M90,52l2,0 0,2 -2,0 0,-2z M92,52l2,0 0,2 -2,0 0,-2z M94,52l2,0 0,2 -2,0 0,-2z M96,52l2,0 0,2 -2,0 0,-2z M102,52l2,0 0,2 -2,0 0,-2z M104,52l2,0 0,2 -2,0 0,-2z M108,52l2,0 0,2 -2,0 0,-2z M112,52l2,0 0,2 -2,0 0,-2z M116,52l2,0 0,2 -2,0 0,-2z M122,52l2,0 0,2 -2,0 0,-2z M124,52l2,0 0,2 -2,0 0,-2z M132,52l2,0 0,2 -2,0 0,-2z M134,52l2,0 0,2 -2,0 0,-2z M138,52l2,0 0,2 -2,0 0,-2z M142,52l2,0 0,2 -2,0 0,-2z M148,52l2,0 0,2 -2,0 0,-2z M150,52l2,0 0,2 -2,0 0,-2z M152,52l2,0 0,2 -2,0 0,-2z M156,52l2,0 0,2 -2,0 0,-2z M160,52l2,0 0,2 -2,0 0,-2z M16,54l2,0 0,2 -2,0 0,-2z M22,54l2,0 0,2 -2,0 0,-2z M26,54l2,0 0,2 -2,0 0,-2z M28,54l2,0 0,2 -2,0 0,-2z M30,54l2,0 0,2 -2,0 0,-2z M32,54l2,0 0,2 -2,0 0,-2z M34,54l2,0 0,2 -2,0 0,-2z M36,54l2,0 0,2 -2,0 0,-2z M38,54l2,0 0,2 -2,0 0,-2z M42,54l2,0 0,2 -2,0 0,-2z M46,54l2,0 0,2 -2,0 0,-2z M48,54l2,0 0,2 -2,0 0,-2z M50,54l2,0 0,2 -2,0 0,-2z M58,54l2,0 0,2 -2,0 0,-2z M62,54l2,0 0,2 -2,0 0,-2z M64,54l2,0 0,2 -2,0 0,-2z M68,54l2,0 0,2 -2,0 0,-2z M74,54l2,0 0,2 -2,0 0,-2z M78,54l2,0 0,2 -2,0 0,-2z M88,54l2,0 0,2 -2,0 0,-2z M90,54l2,0 0,2 -2,0 0,-2z M94,54l2,0 0,2 -2,0 0,-2z M98,54l2,0 0,2 -2,0 0,-2z M102,54l2,0 0,2 -2,0 0,-2z M110,54l2,0 0,2 -2,0 0,-2z M116,54l2,0 0,2 -2,0 0,-2z M120,54l2,0 0,2 -2,0 0,-2z M124,54l2,0 0,2 -2,0 0,-2z M128,54l2,0 0,2 -2,0 0,-2z M134,54l2,0 0,2 -2,0 0,-2z M136,54l2,0 0,2 -2,0 0,-2z M138,54l2,0 0,2 -2,0 0,-2z M144,54l2,0 0,2 -2,0 0,-2z M146,54l2,0 0,2 -2,0 0,-2z M154,54l2,0 0,2 -2,0 0,-2z M158,54l2,0 0,2 -2,0 0,-2z M12,56l2,0 0,2 -2,0 0,-2z M16,56l2,0 0,2 -2,0 0,-2z M18,56l2,0 0,2 -2,0 0,-2z M20,56l2,0 0,2 -2,0 0,-2z M22,56l2,0 0,2 -2,0 0,-2z M24,56l2,0 0,2 -2,0 0,-2z M26,56l2,0 0,2 -2,0 0,-2z M28,56l2,0 0,2 -2,0 0,-2z M36,56l2,0 0,2 -2,0 0,-2z M38,56l2,0 0,2 -2,0 0,-2z M40,56l2,0 0,2 -2,0 0,-2z M46,56l2,0 0,2 -2,0 0,-2z M48,56l2,0 0,2 -2,0 0,-2z M54,56l2,0 0,2 -2,0 0,-2z M56,56l2,0 0,2 -2,0 0,-2z M58,56l2,0 0,2 -2,0 0,-2z M60,56l2,0 0,2 -2,0 0,-2z M62,56l2,0 0,2 -2,0 0,-2z M64,56l2,0 0,2 -2,0 0,-2z M76,56l2,0 0,2 -2,0 0,-2z M80,56l2,0 0,2 -2,0 0,-2z M84,56l2,0 0,2 -2,0 0,-2z M90,56l2,0 0,2 -2,0 0,-2z M92,56l2,0 0,2 -2,0 0,-2z M94,56l2,0 0,2 -2,0 0,-2z M96,56l2,0 0,2 -2,0 0,-2z M100,56l2,0 0,2 -2,0 0,-2z M102,56l2,0 0,2 -2,0 0,-2z M104,56l2,0 0,2 -2,0 0,-2z M106,56l2,0 0,2 -2,0 0,-2z M108,56l2,0 0,2 -2,0 0,-2z M110,56l2,0 0,2 -2,0 0,-2z M114,56l2,0 0,2 -2,0 0,-2z M120,56l2,0 0,2 -2,0 0,-2z M124,56l2,0 0,2 -2,0 0,-2z M130,56l2,0 0,2 -2,0 0,-2z M132,56l2,0 0,2 -2,0 0,-2z M136,56l2,0 0,2 -2,0 0,-2z M140,56l2,0 0,2 -2,0 0,-2z M142,56l2,0 0,2 -2,0 0,-2z M144,56l2,0 0,2 -2,0 0,-2z M146,56l2,0 0,2 -2,0 0,-2z M148,56l2,0 0,2 -2,0 0,-2z M150,56l2,0 0,2 -2,0 0,-2z M152,56l2,0 0,2 -2,0 0,-2z M154,56l2,0 0,2 -2,0 0,-2z M8,58l2,0 0,2 -2,0 0,-2z M16,58l2,0 0,2 -2,0 0,-2z M24,58l2,0 0,2 -2,0 0,-2z M26,58l2,0 0,2 -2,0 0,-2z M30,58l2,0 0,2 -2,0 0,-2z M32,58l2,0 0,2 -2,0 0,-2z M34,58l2,0 0,2 -2,0 0,-2z M40,58l2,0 0,2 -2,0 0,-2z M44,58l2,0 0,2 -2,0 0,-2z M46,58l2,0 0,2 -2,0 0,-2z M50,58l2,0 0,2 -2,0 0,-2z M52,58l2,0 0,2 -2,0 0,-2z M54,58l2,0 0,2 -2,0 0,-2z M56,58l2,0 0,2 -2,0 0,-2z M64,58l2,0 0,2 -2,0 0,-2z M66,58l2,0 0,2 -2,0 0,-2z M70,58l2,0 0,2 -2,0 0,-2z M74,58l2,0 0,2 -2,0 0,-2z M78,58l2,0 0,2 -2,0 0,-2z M82,58l2,0 0,2 -2,0 0,-2z M84,58l2,0 0,2 -2,0 0,-2z M86,58l2,0 0,2 -2,0 0,-2z M92,58l2,0 0,2 -2,0 0,-2z M96,58l2,0 0,2 -2,0 0,-2z M100,58l2,0 0,2 -2,0 0,-2z M108,58l2,0 0,2 -2,0 0,-2z M110,58l2,0 0,2 -2,0 0,-2z M112,58l2,0 0,2 -2,0 0,-2z M114,58l2,0 0,2 -2,0 0,-2z M116,58l2,0 0,2 -2,0 0,-2z M124,58l2,0 0,2 -2,0 0,-2z M126,58l2,0 0,2 -2,0 0,-2z M128,58l2,0 0,2 -2,0 0,-2z M130,58l2,0 0,2 -2,0 0,-2z M142,58l2,0 0,2 -2,0 0,-2z M144,58l2,0 0,2 -2,0 0,-2z M152,58l2,0 0,2 -2,0 0,-2z M154,58l2,0 0,2 -2,0 0,-2z M156,58l2,0 0,2 -2,0 0,-2z M10,60l2,0 0,2 -2,0 0,-2z M12,60l2,0 0,2 -2,0 0,-2z M16,60l2,0 0,2 -2,0 0,-2z M20,60l2,0 0,2 -2,0 0,-2z M24,60l2,0 0,2 -2,0 0,-2z M26,60l2,0 0,2 -2,0 0,-2z M30,60l2,0 0,2 -2,0 0,-2z M34,60l2,0 0,2 -2,0 0,-2z M38,60l2,0 0,2 -2,0 0,-2z M40,60l2,0 0,2 -2,0 0,-2z M44,60l2,0 0,2 -2,0 0,-2z M52,60l2,0 0,2 -2,0 0,-2z M56,60l2,0 0,2 -2,0 0,-2z M60,60l2,0 0,2 -2,0 0,-2z M64,60l2,0 0,2 -2,0 0,-2z M66,60l2,0 0,2 -2,0 0,-2z M70,60l2,0 0,2 -2,0 0,-2z M72,60l2,0 0,2 -2,0 0,-2z M76,60l2,0 0,2 -2,0 0,-2z M82,60l2,0 0,2 -2,0 0,-2z M86,60l2,0 0,2 -2,0 0,-2z M88,60l2,0 0,2 -2,0 0,-2z M100,60l2,0 0,2 -2,0 0,-2z M104,60l2,0 0,2 -2,0 0,-2z M108,60l2,0 0,2 -2,0 0,-2z M114,60l2,0 0,2 -2,0 0,-2z M116,60l2,0 0,2 -2,0 0,-2z M118,60l2,0 0,2 -2,0 0,-2z M122,60l2,0 0,2 -2,0 0,-2z M124,60l2,0 0,2 -2,0 0,-2z M126,60l2,0 0,2 -2,0 0,-2z M134,60l2,0 0,2 -2,0 0,-2z M136,60l2,0 0,2 -2,0 0,-2z M138,60l2,0 0,2 -2,0 0,-2z M144,60l2,0 0,2 -2,0 0,-2z M148,60l2,0 0,2 -2,0 0,-2z M152,60l2,0 0,2 -2,0 0,-2z M154,60l2,0 0,2 -2,0 0,-2z M160,60l2,0 0,2 -2,0 0,-2z M8,62l2,0 0,2 -2,0 0,-2z M10,62l2,0 0,2 -2,0 0,-2z M14,62l2,0 0,2 -2,0 0,-2z M16,62l2,0 0,2 -2,0 0,-2z M24,62l2,0 0,2 -2,0 0,-2z M26,62l2,0 0,2 -2,0 0,-2z M36,62l2,0 0,2 -2,0 0,-2z M38,62l2,0 0,2 -2,0 0,-2z M44,62l2,0 0,2 -2,0 0,-2z M54,62l2,0 0,2 -2,0 0,-2z M56,62l2,0 0,2 -2,0 0,-2z M64,62l2,0 0,2 -2,0 0,-2z M66,62l2,0 0,2 -2,0 0,-2z M70,62l2,0 0,2 -2,0 0,-2z M76,62l2,0 0,2 -2,0 0,-2z M80,62l2,0 0,2 -2,0 0,-2z M86,62l2,0 0,2 -2,0 0,-2z M88,62l2,0 0,2 -2,0 0,-2z M92,62l2,0 0,2 -2,0 0,-2z M96,62l2,0 0,2 -2,0 0,-2z M98,62l2,0 0,2 -2,0 0,-2z M100,62l2,0 0,2 -2,0 0,-2z M108,62l2,0 0,2 -2,0 0,-2z M110,62l2,0 0,2 -2,0 0,-2z M112,62l2,0 0,2 -2,0 0,-2z M114,62l2,0 0,2 -2,0 0,-2z M120,62l2,0 0,2 -2,0 0,-2z M122,62l2,0 0,2 -2,0 0,-2z M124,62l2,0 0,2 -2,0 0,-2z M130,62l2,0 0,2 -2,0 0,-2z M132,62l2,0 0,2 -2,0 0,-2z M134,62l2,0 0,2 -2,0 0,-2z M140,62l2,0 0,2 -2,0 0,-2z M142,62l2,0 0,2 -2,0 0,-2z M144,62l2,0 0,2 -2,0 0,-2z M152,62l2,0 0,2 -2,0 0,-2z M158,62l2,0 0,2 -2,0 0,-2z M8,64l2,0 0,2 -2,0 0,-2z M10,64l2,0 0,2 -2,0 0,-2z M12,64l2,0 0,2 -2,0 0,-2z M14,64l2,0 0,2 -2,0 0,-2z M16,64l2,0 0,2 -2,0 0,-2z M18,64l2,0 0,2 -2,0 0,-2z M20,64l2,0 0,2 -2,0 0,-2z M22,64l2,0 0,2 -2,0 0,-2z M24,64l2,0 0,2 -2,0 0,-2z M26,64l2,0 0,2 -2,0 0,-2z M28,64l2,0 0,2 -2,0 0,-2z M30,64l2,0 0,2 -2,0 0,-2z M40,64l2,0 0,2 -2,0 0,-2z M42,64l2,0 0,2 -2,0 0,-2z M44,64l2,0 0,2 -2,0 0,-2z M46,64l2,0 0,2 -2,0 0,-2z M50,64l2,0 0,2 -2,0 0,-2z M54,64l2,0 0,2 -2,0 0,-2z M56,64l2,0 0,2 -2,0 0,-2z M58,64l2,0 0,2 -2,0 0,-2z M60,64l2,0 0,2 -2,0 0,-2z M62,64l2,0 0,2 -2,0 0,-2z M64,64l2,0 0,2 -2,0 0,-2z M66,64l2,0 0,2 -2,0 0,-2z M68,64l2,0 0,2 -2,0 0,-2z M72,64l2,0 0,2 -2,0 0,-2z M78,64l2,0 0,2 -2,0 0,-2z M80,64l2,0 0,2 -2,0 0,-2z M84,64l2,0 0,2 -2,0 0,-2z M86,64l2,0 0,2 -2,0 0,-2z M88,64l2,0 0,2 -2,0 0,-2z M96,64l2,0 0,2 -2,0 0,-2z M100,64l2,0 0,2 -2,0 0,-2z M102,64l2,0 0,2 -2,0 0,-2z M104,64l2,0 0,2 -2,0 0,-2z M106,64l2,0 0,2 -2,0 0,-2z M108,64l2,0 0,2 -2,0 0,-2z M112,64l2,0 0,2 -2,0 0,-2z M116,64l2,0 0,2 -2,0 0,-2z M118,64l2,0 0,2 -2,0 0,-2z M120,64l2,0 0,2 -2,0 0,-2z M122,64l2,0 0,2 -2,0 0,-2z M130,64l2,0 0,2 -2,0 0,-2z M132,64l2,0 0,2 -2,0 0,-2z M134,64l2,0 0,2 -2,0 0,-2z M138,64l2,0 0,2 -2,0 0,-2z M142,64l2,0 0,2 -2,0 0,-2z M144,64l2,0 0,2 -2,0 0,-2z M146,64l2,0 0,2 -2,0 0,-2z M148,64l2,0 0,2 -2,0 0,-2z M150,64l2,0 0,2 -2,0 0,-2z M152,64l2,0 0,2 -2,0 0,-2z M156,64l2,0 0,2 -2,0 0,-2z M8,66l2,0 0,2 -2,0 0,-2z M10,66l2,0 0,2 -2,0 0,-2z M14,66l2,0 0,2 -2,0 0,-2z M22,66l2,0 0,2 -2,0 0,-2z M26,66l2,0 0,2 -2,0 0,-2z M30,66l2,0 0,2 -2,0 0,-2z M34,66l2,0 0,2 -2,0 0,-2z M48,66l2,0 0,2 -2,0 0,-2z M52,66l2,0 0,2 -2,0 0,-2z M54,66l2,0 0,2 -2,0 0,-2z M56,66l2,0 0,2 -2,0 0,-2z M58,66l2,0 0,2 -2,0 0,-2z M60,66l2,0 0,2 -2,0 0,-2z M62,66l2,0 0,2 -2,0 0,-2z M64,66l2,0 0,2 -2,0 0,-2z M68,66l2,0 0,2 -2,0 0,-2z M72,66l2,0 0,2 -2,0 0,-2z M82,66l2,0 0,2 -2,0 0,-2z M84,66l2,0 0,2 -2,0 0,-2z M88,66l2,0 0,2 -2,0 0,-2z M90,66l2,0 0,2 -2,0 0,-2z M98,66l2,0 0,2 -2,0 0,-2z M104,66l2,0 0,2 -2,0 0,-2z M106,66l2,0 0,2 -2,0 0,-2z M108,66l2,0 0,2 -2,0 0,-2z M120,66l2,0 0,2 -2,0 0,-2z M124,66l2,0 0,2 -2,0 0,-2z M126,66l2,0 0,2 -2,0 0,-2z M128,66l2,0 0,2 -2,0 0,-2z M130,66l2,0 0,2 -2,0 0,-2z M134,66l2,0 0,2 -2,0 0,-2z M136,66l2,0 0,2 -2,0 0,-2z M138,66l2,0 0,2 -2,0 0,-2z M140,66l2,0 0,2 -2,0 0,-2z M142,66l2,0 0,2 -2,0 0,-2z M144,66l2,0 0,2 -2,0 0,-2z M146,66l2,0 0,2 -2,0 0,-2z M148,66l2,0 0,2 -2,0 0,-2z M150,66l2,0 0,2 -2,0 0,-2z M152,66l2,0 0,2 -2,0 0,-2z M158,66l2,0 0,2 -2,0 0,-2z M8,68l2,0 0,2 -2,0 0,-2z M14,68l2,0 0,2 -2,0 0,-2z M20,68l2,0 0,2 -2,0 0,-2z M26,68l2,0 0,2 -2,0 0,-2z M30,68l2,0 0,2 -2,0 0,-2z M32,68l2,0 0,2 -2,0 0,-2z M36,68l2,0 0,2 -2,0 0,-2z M38,68l2,0 0,2 -2,0 0,-2z M40,68l2,0 0,2 -2,0 0,-2z M42,68l2,0 0,2 -2,0 0,-2z M46,68l2,0 0,2 -2,0 0,-2z M48,68l2,0 0,2 -2,0 0,-2z M50,68l2,0 0,2 -2,0 0,-2z M52,68l2,0 0,2 -2,0 0,-2z M54,68l2,0 0,2 -2,0 0,-2z M56,68l2,0 0,2 -2,0 0,-2z M58,68l2,0 0,2 -2,0 0,-2z M64,68l2,0 0,2 -2,0 0,-2z M80,68l2,0 0,2 -2,0 0,-2z M82,68l2,0 0,2 -2,0 0,-2z M84,68l2,0 0,2 -2,0 0,-2z M90,68l2,0 0,2 -2,0 0,-2z M94,68l2,0 0,2 -2,0 0,-2z M102,68l2,0 0,2 -2,0 0,-2z M104,68l2,0 0,2 -2,0 0,-2z M108,68l2,0 0,2 -2,0 0,-2z M110,68l2,0 0,2 -2,0 0,-2z M112,68l2,0 0,2 -2,0 0,-2z M114,68l2,0 0,2 -2,0 0,-2z M122,68l2,0 0,2 -2,0 0,-2z M124,68l2,0 0,2 -2,0 0,-2z M126,68l2,0 0,2 -2,0 0,-2z M128,68l2,0 0,2 -2,0 0,-2z M132,68l2,0 0,2 -2,0 0,-2z M138,68l2,0 0,2 -2,0 0,-2z M140,68l2,0 0,2 -2,0 0,-2z M146,68l2,0 0,2 -2,0 0,-2z M152,68l2,0 0,2 -2,0 0,-2z M156,68l2,0 0,2 -2,0 0,-2z M158,68l2,0 0,2 -2,0 0,-2z M160,68l2,0 0,2 -2,0 0,-2z M10,70l2,0 0,2 -2,0 0,-2z M12,70l2,0 0,2 -2,0 0,-2z M18,70l2,0 0,2 -2,0 0,-2z M22,70l2,0 0,2 -2,0 0,-2z M26,70l2,0 0,2 -2,0 0,-2z M28,70l2,0 0,2 -2,0 0,-2z M30,70l2,0 0,2 -2,0 0,-2z M36,70l2,0 0,2 -2,0 0,-2z M38,70l2,0 0,2 -2,0 0,-2z M42,70l2,0 0,2 -2,0 0,-2z M46,70l2,0 0,2 -2,0 0,-2z M50,70l2,0 0,2 -2,0 0,-2z M52,70l2,0 0,2 -2,0 0,-2z M60,70l2,0 0,2 -2,0 0,-2z M64,70l2,0 0,2 -2,0 0,-2z M68,70l2,0 0,2 -2,0 0,-2z M88,70l2,0 0,2 -2,0 0,-2z M90,70l2,0 0,2 -2,0 0,-2z M94,70l2,0 0,2 -2,0 0,-2z M96,70l2,0 0,2 -2,0 0,-2z M98,70l2,0 0,2 -2,0 0,-2z M110,70l2,0 0,2 -2,0 0,-2z M116,70l2,0 0,2 -2,0 0,-2z M120,70l2,0 0,2 -2,0 0,-2z M124,70l2,0 0,2 -2,0 0,-2z M126,70l2,0 0,2 -2,0 0,-2z M130,70l2,0 0,2 -2,0 0,-2z M134,70l2,0 0,2 -2,0 0,-2z M136,70l2,0 0,2 -2,0 0,-2z M138,70l2,0 0,2 -2,0 0,-2z M142,70l2,0 0,2 -2,0 0,-2z M144,70l2,0 0,2 -2,0 0,-2z M152,70l2,0 0,2 -2,0 0,-2z M154,70l2,0 0,2 -2,0 0,-2z M156,70l2,0 0,2 -2,0 0,-2z M160,70l2,0 0,2 -2,0 0,-2z M16,72l2,0 0,2 -2,0 0,-2z M18,72l2,0 0,2 -2,0 0,-2z M20,72l2,0 0,2 -2,0 0,-2z M32,72l2,0 0,2 -2,0 0,-2z M34,72l2,0 0,2 -2,0 0,-2z M36,72l2,0 0,2 -2,0 0,-2z M38,72l2,0 0,2 -2,0 0,-2z M40,72l2,0 0,2 -2,0 0,-2z M52,72l2,0 0,2 -2,0 0,-2z M62,72l2,0 0,2 -2,0 0,-2z M72,72l2,0 0,2 -2,0 0,-2z M76,72l2,0 0,2 -2,0 0,-2z M80,72l2,0 0,2 -2,0 0,-2z M82,72l2,0 0,2 -2,0 0,-2z M90,72l2,0 0,2 -2,0 0,-2z M92,72l2,0 0,2 -2,0 0,-2z M94,72l2,0 0,2 -2,0 0,-2z M96,72l2,0 0,2 -2,0 0,-2z M98,72l2,0 0,2 -2,0 0,-2z M100,72l2,0 0,2 -2,0 0,-2z M102,72l2,0 0,2 -2,0 0,-2z M110,72l2,0 0,2 -2,0 0,-2z M114,72l2,0 0,2 -2,0 0,-2z M118,72l2,0 0,2 -2,0 0,-2z M122,72l2,0 0,2 -2,0 0,-2z M124,72l2,0 0,2 -2,0 0,-2z M130,72l2,0 0,2 -2,0 0,-2z M132,72l2,0 0,2 -2,0 0,-2z M136,72l2,0 0,2 -2,0 0,-2z M140,72l2,0 0,2 -2,0 0,-2z M142,72l2,0 0,2 -2,0 0,-2z M152,72l2,0 0,2 -2,0 0,-2z M154,72l2,0 0,2 -2,0 0,-2z M156,72l2,0 0,2 -2,0 0,-2z M8,74l2,0 0,2 -2,0 0,-2z M10,74l2,0 0,2 -2,0 0,-2z M14,74l2,0 0,2 -2,0 0,-2z M16,74l2,0 0,2 -2,0 0,-2z M18,74l2,0 0,2 -2,0 0,-2z M22,74l2,0 0,2 -2,0 0,-2z M26,74l2,0 0,2 -2,0 0,-2z M28,74l2,0 0,2 -2,0 0,-2z M30,74l2,0 0,2 -2,0 0,-2z M32,74l2,0 0,2 -2,0 0,-2z M34,74l2,0 0,2 -2,0 0,-2z M40,74l2,0 0,2 -2,0 0,-2z M44,74l2,0 0,2 -2,0 0,-2z M46,74l2,0 0,2 -2,0 0,-2z M54,74l2,0 0,2 -2,0 0,-2z M56,74l2,0 0,2 -2,0 0,-2z M60,74l2,0 0,2 -2,0 0,-2z M66,74l2,0 0,2 -2,0 0,-2z M70,74l2,0 0,2 -2,0 0,-2z M72,74l2,0 0,2 -2,0 0,-2z M74,74l2,0 0,2 -2,0 0,-2z M76,74l2,0 0,2 -2,0 0,-2z M78,74l2,0 0,2 -2,0 0,-2z M80,74l2,0 0,2 -2,0 0,-2z M82,74l2,0 0,2 -2,0 0,-2z M84,74l2,0 0,2 -2,0 0,-2z M86,74l2,0 0,2 -2,0 0,-2z M92,74l2,0 0,2 -2,0 0,-2z M96,74l2,0 0,2 -2,0 0,-2z M102,74l2,0 0,2 -2,0 0,-2z M110,74l2,0 0,2 -2,0 0,-2z M112,74l2,0 0,2 -2,0 0,-2z M114,74l2,0 0,2 -2,0 0,-2z M116,74l2,0 0,2 -2,0 0,-2z M118,74l2,0 0,2 -2,0 0,-2z M122,74l2,0 0,2 -2,0 0,-2z M128,74l2,0 0,2 -2,0 0,-2z M130,74l2,0 0,2 -2,0 0,-2z M132,74l2,0 0,2 -2,0 0,-2z M154,74l2,0 0,2 -2,0 0,-2z M156,74l2,0 0,2 -2,0 0,-2z M10,76l2,0 0,2 -2,0 0,-2z M12,76l2,0 0,2 -2,0 0,-2z M14,76l2,0 0,2 -2,0 0,-2z M20,76l2,0 0,2 -2,0 0,-2z M26,76l2,0 0,2 -2,0 0,-2z M30,76l2,0 0,2 -2,0 0,-2z M38,76l2,0 0,2 -2,0 0,-2z M40,76l2,0 0,2 -2,0 0,-2z M44,76l2,0 0,2 -2,0 0,-2z M48,76l2,0 0,2 -2,0 0,-2z M54,76l2,0 0,2 -2,0 0,-2z M58,76l2,0 0,2 -2,0 0,-2z M60,76l2,0 0,2 -2,0 0,-2z M64,76l2,0 0,2 -2,0 0,-2z M66,76l2,0 0,2 -2,0 0,-2z M70,76l2,0 0,2 -2,0 0,-2z M72,76l2,0 0,2 -2,0 0,-2z M74,76l2,0 0,2 -2,0 0,-2z M76,76l2,0 0,2 -2,0 0,-2z M78,76l2,0 0,2 -2,0 0,-2z M82,76l2,0 0,2 -2,0 0,-2z M84,76l2,0 0,2 -2,0 0,-2z M86,76l2,0 0,2 -2,0 0,-2z M88,76l2,0 0,2 -2,0 0,-2z M94,76l2,0 0,2 -2,0 0,-2z M98,76l2,0 0,2 -2,0 0,-2z M100,76l2,0 0,2 -2,0 0,-2z M102,76l2,0 0,2 -2,0 0,-2z M106,76l2,0 0,2 -2,0 0,-2z M114,76l2,0 0,2 -2,0 0,-2z M116,76l2,0 0,2 -2,0 0,-2z M120,76l2,0 0,2 -2,0 0,-2z M122,76l2,0 0,2 -2,0 0,-2z M126,76l2,0 0,2 -2,0 0,-2z M130,76l2,0 0,2 -2,0 0,-2z M132,76l2,0 0,2 -2,0 0,-2z M134,76l2,0 0,2 -2,0 0,-2z M136,76l2,0 0,2 -2,0 0,-2z M138,76l2,0 0,2 -2,0 0,-2z M142,76l2,0 0,2 -2,0 0,-2z M148,76l2,0 0,2 -2,0 0,-2z M152,76l2,0 0,2 -2,0 0,-2z M154,76l2,0 0,2 -2,0 0,-2z M8,78l2,0 0,2 -2,0 0,-2z M10,78l2,0 0,2 -2,0 0,-2z M12,78l2,0 0,2 -2,0 0,-2z M18,78l2,0 0,2 -2,0 0,-2z M24,78l2,0 0,2 -2,0 0,-2z M28,78l2,0 0,2 -2,0 0,-2z M30,78l2,0 0,2 -2,0 0,-2z M32,78l2,0 0,2 -2,0 0,-2z M40,78l2,0 0,2 -2,0 0,-2z M44,78l2,0 0,2 -2,0 0,-2z M54,78l2,0 0,2 -2,0 0,-2z M64,78l2,0 0,2 -2,0 0,-2z M74,78l2,0 0,2 -2,0 0,-2z M76,78l2,0 0,2 -2,0 0,-2z M78,78l2,0 0,2 -2,0 0,-2z M82,78l2,0 0,2 -2,0 0,-2z M84,78l2,0 0,2 -2,0 0,-2z M86,78l2,0 0,2 -2,0 0,-2z M92,78l2,0 0,2 -2,0 0,-2z M100,78l2,0 0,2 -2,0 0,-2z M102,78l2,0 0,2 -2,0 0,-2z M104,78l2,0 0,2 -2,0 0,-2z M108,78l2,0 0,2 -2,0 0,-2z M112,78l2,0 0,2 -2,0 0,-2z M114,78l2,0 0,2 -2,0 0,-2z M118,78l2,0 0,2 -2,0 0,-2z M122,78l2,0 0,2 -2,0 0,-2z M124,78l2,0 0,2 -2,0 0,-2z M126,78l2,0 0,2 -2,0 0,-2z M128,78l2,0 0,2 -2,0 0,-2z M132,78l2,0 0,2 -2,0 0,-2z M134,78l2,0 0,2 -2,0 0,-2z M140,78l2,0 0,2 -2,0 0,-2z M146,78l2,0 0,2 -2,0 0,-2z M148,78l2,0 0,2 -2,0 0,-2z M150,78l2,0 0,2 -2,0 0,-2z M158,78l2,0 0,2 -2,0 0,-2z M10,80l2,0 0,2 -2,0 0,-2z M16,80l2,0 0,2 -2,0 0,-2z M20,80l2,0 0,2 -2,0 0,-2z M24,80l2,0 0,2 -2,0 0,-2z M26,80l2,0 0,2 -2,0 0,-2z M30,80l2,0 0,2 -2,0 0,-2z M36,80l2,0 0,2 -2,0 0,-2z M44,80l2,0 0,2 -2,0 0,-2z M48,80l2,0 0,2 -2,0 0,-2z M50,80l2,0 0,2 -2,0 0,-2z M56,80l2,0 0,2 -2,0 0,-2z M58,80l2,0 0,2 -2,0 0,-2z M60,80l2,0 0,2 -2,0 0,-2z M64,80l2,0 0,2 -2,0 0,-2z M66,80l2,0 0,2 -2,0 0,-2z M68,80l2,0 0,2 -2,0 0,-2z M70,80l2,0 0,2 -2,0 0,-2z M72,80l2,0 0,2 -2,0 0,-2z M74,80l2,0 0,2 -2,0 0,-2z M78,80l2,0 0,2 -2,0 0,-2z M90,80l2,0 0,2 -2,0 0,-2z M92,80l2,0 0,2 -2,0 0,-2z M96,80l2,0 0,2 -2,0 0,-2z M104,80l2,0 0,2 -2,0 0,-2z M108,80l2,0 0,2 -2,0 0,-2z M112,80l2,0 0,2 -2,0 0,-2z M116,80l2,0 0,2 -2,0 0,-2z M118,80l2,0 0,2 -2,0 0,-2z M120,80l2,0 0,2 -2,0 0,-2z M126,80l2,0 0,2 -2,0 0,-2z M128,80l2,0 0,2 -2,0 0,-2z M144,80l2,0 0,2 -2,0 0,-2z M146,80l2,0 0,2 -2,0 0,-2z M150,80l2,0 0,2 -2,0 0,-2z M156,80l2,0 0,2 -2,0 0,-2z M158,80l2,0 0,2 -2,0 0,-2z M160,80l2,0 0,2 -2,0 0,-2z M8,82l2,0 0,2 -2,0 0,-2z M12,82l2,0 0,2 -2,0 0,-2z M16,82l2,0 0,2 -2,0 0,-2z M18,82l2,0 0,2 -2,0 0,-2z M22,82l2,0 0,2 -2,0 0,-2z M24,82l2,0 0,2 -2,0 0,-2z M26,82l2,0 0,2 -2,0 0,-2z M32,82l2,0 0,2 -2,0 0,-2z M36,82l2,0 0,2 -2,0 0,-2z M46,82l2,0 0,2 -2,0 0,-2z M52,82l2,0 0,2 -2,0 0,-2z M54,82l2,0 0,2 -2,0 0,-2z M60,82l2,0 0,2 -2,0 0,-2z M62,82l2,0 0,2 -2,0 0,-2z M66,82l2,0 0,2 -2,0 0,-2z M68,82l2,0 0,2 -2,0 0,-2z M84,82l2,0 0,2 -2,0 0,-2z M86,82l2,0 0,2 -2,0 0,-2z M88,82l2,0 0,2 -2,0 0,-2z M90,82l2,0 0,2 -2,0 0,-2z M92,82l2,0 0,2 -2,0 0,-2z M94,82l2,0 0,2 -2,0 0,-2z M98,82l2,0 0,2 -2,0 0,-2z M106,82l2,0 0,2 -2,0 0,-2z M112,82l2,0 0,2 -2,0 0,-2z M124,82l2,0 0,2 -2,0 0,-2z M126,82l2,0 0,2 -2,0 0,-2z M130,82l2,0 0,2 -2,0 0,-2z M134,82l2,0 0,2 -2,0 0,-2z M142,82l2,0 0,2 -2,0 0,-2z M144,82l2,0 0,2 -2,0 0,-2z M146,82l2,0 0,2 -2,0 0,-2z M148,82l2,0 0,2 -2,0 0,-2z M156,82l2,0 0,2 -2,0 0,-2z M158,82l2,0 0,2 -2,0 0,-2z M12,84l2,0 0,2 -2,0 0,-2z M14,84l2,0 0,2 -2,0 0,-2z M16,84l2,0 0,2 -2,0 0,-2z M18,84l2,0 0,2 -2,0 0,-2z M20,84l2,0 0,2 -2,0 0,-2z M22,84l2,0 0,2 -2,0 0,-2z M24,84l2,0 0,2 -2,0 0,-2z M26,84l2,0 0,2 -2,0 0,-2z M32,84l2,0 0,2 -2,0 0,-2z M34,84l2,0 0,2 -2,0 0,-2z M36,84l2,0 0,2 -2,0 0,-2z M38,84l2,0 0,2 -2,0 0,-2z M42,84l2,0 0,2 -2,0 0,-2z M44,84l2,0 0,2 -2,0 0,-2z M46,84l2,0 0,2 -2,0 0,-2z M50,84l2,0 0,2 -2,0 0,-2z M52,84l2,0 0,2 -2,0 0,-2z M54,84l2,0 0,2 -2,0 0,-2z M56,84l2,0 0,2 -2,0 0,-2z M62,84l2,0 0,2 -2,0 0,-2z M64,84l2,0 0,2 -2,0 0,-2z M66,84l2,0 0,2 -2,0 0,-2z M72,84l2,0 0,2 -2,0 0,-2z M76,84l2,0 0,2 -2,0 0,-2z M80,84l2,0 0,2 -2,0 0,-2z M84,84l2,0 0,2 -2,0 0,-2z M86,84l2,0 0,2 -2,0 0,-2z M88,84l2,0 0,2 -2,0 0,-2z M90,84l2,0 0,2 -2,0 0,-2z M92,84l2,0 0,2 -2,0 0,-2z M96,84l2,0 0,2 -2,0 0,-2z M98,84l2,0 0,2 -2,0 0,-2z M100,84l2,0 0,2 -2,0 0,-2z M108,84l2,0 0,2 -2,0 0,-2z M110,84l2,0 0,2 -2,0 0,-2z M116,84l2,0 0,2 -2,0 0,-2z M118,84l2,0 0,2 -2,0 0,-2z M120,84l2,0 0,2 -2,0 0,-2z M122,84l2,0 0,2 -2,0 0,-2z M124,84l2,0 0,2 -2,0 0,-2z M128,84l2,0 0,2 -2,0 0,-2z M130,84l2,0 0,2 -2,0 0,-2z M132,84l2,0 0,2 -2,0 0,-2z M134,84l2,0 0,2 -2,0 0,-2z M136,84l2,0 0,2 -2,0 0,-2z M138,84l2,0 0,2 -2,0 0,-2z M142,84l2,0 0,2 -2,0 0,-2z M144,84l2,0 0,2 -2,0 0,-2z M146,84l2,0 0,2 -2,0 0,-2z M152,84l2,0 0,2 -2,0 0,-2z M154,84l2,0 0,2 -2,0 0,-2z M158,84l2,0 0,2 -2,0 0,-2z M160,84l2,0 0,2 -2,0 0,-2z M8,86l2,0 0,2 -2,0 0,-2z M18,86l2,0 0,2 -2,0 0,-2z M30,86l2,0 0,2 -2,0 0,-2z M36,86l2,0 0,2 -2,0 0,-2z M42,86l2,0 0,2 -2,0 0,-2z M46,86l2,0 0,2 -2,0 0,-2z M50,86l2,0 0,2 -2,0 0,-2z M52,86l2,0 0,2 -2,0 0,-2z M56,86l2,0 0,2 -2,0 0,-2z M64,86l2,0 0,2 -2,0 0,-2z M66,86l2,0 0,2 -2,0 0,-2z M70,86l2,0 0,2 -2,0 0,-2z M82,86l2,0 0,2 -2,0 0,-2z M84,86l2,0 0,2 -2,0 0,-2z M98,86l2,0 0,2 -2,0 0,-2z M102,86l2,0 0,2 -2,0 0,-2z M104,86l2,0 0,2 -2,0 0,-2z M106,86l2,0 0,2 -2,0 0,-2z M108,86l2,0 0,2 -2,0 0,-2z M112,86l2,0 0,2 -2,0 0,-2z M114,86l2,0 0,2 -2,0 0,-2z M126,86l2,0 0,2 -2,0 0,-2z M130,86l2,0 0,2 -2,0 0,-2z M138,86l2,0 0,2 -2,0 0,-2z M142,86l2,0 0,2 -2,0 0,-2z M154,86l2,0 0,2 -2,0 0,-2z M160,86l2,0 0,2 -2,0 0,-2z M8,88l2,0 0,2 -2,0 0,-2z M10,88l2,0 0,2 -2,0 0,-2z M12,88l2,0 0,2 -2,0 0,-2z M16,88l2,0 0,2 -2,0 0,-2z M20,88l2,0 0,2 -2,0 0,-2z M26,88l2,0 0,2 -2,0 0,-2z M30,88l2,0 0,2 -2,0 0,-2z M40,88l2,0 0,2 -2,0 0,-2z M44,88l2,0 0,2 -2,0 0,-2z M46,88l2,0 0,2 -2,0 0,-2z M52,88l2,0 0,2 -2,0 0,-2z M54,88l2,0 0,2 -2,0 0,-2z M56,88l2,0 0,2 -2,0 0,-2z M60,88l2,0 0,2 -2,0 0,-2z M66,88l2,0 0,2 -2,0 0,-2z M70,88l2,0 0,2 -2,0 0,-2z M72,88l2,0 0,2 -2,0 0,-2z M76,88l2,0 0,2 -2,0 0,-2z M80,88l2,0 0,2 -2,0 0,-2z M82,88l2,0 0,2 -2,0 0,-2z M90,88l2,0 0,2 -2,0 0,-2z M92,88l2,0 0,2 -2,0 0,-2z M98,88l2,0 0,2 -2,0 0,-2z M102,88l2,0 0,2 -2,0 0,-2z M104,88l2,0 0,2 -2,0 0,-2z M108,88l2,0 0,2 -2,0 0,-2z M112,88l2,0 0,2 -2,0 0,-2z M118,88l2,0 0,2 -2,0 0,-2z M122,88l2,0 0,2 -2,0 0,-2z M124,88l2,0 0,2 -2,0 0,-2z M136,88l2,0 0,2 -2,0 0,-2z M140,88l2,0 0,2 -2,0 0,-2z M144,88l2,0 0,2 -2,0 0,-2z M152,88l2,0 0,2 -2,0 0,-2z M154,88l2,0 0,2 -2,0 0,-2z M156,88l2,0 0,2 -2,0 0,-2z M8,90l2,0 0,2 -2,0 0,-2z M10,90l2,0 0,2 -2,0 0,-2z M14,90l2,0 0,2 -2,0 0,-2z M16,90l2,0 0,2 -2,0 0,-2z M24,90l2,0 0,2 -2,0 0,-2z M32,90l2,0 0,2 -2,0 0,-2z M36,90l2,0 0,2 -2,0 0,-2z M38,90l2,0 0,2 -2,0 0,-2z M40,90l2,0 0,2 -2,0 0,-2z M48,90l2,0 0,2 -2,0 0,-2z M56,90l2,0 0,2 -2,0 0,-2z M58,90l2,0 0,2 -2,0 0,-2z M60,90l2,0 0,2 -2,0 0,-2z M66,90l2,0 0,2 -2,0 0,-2z M68,90l2,0 0,2 -2,0 0,-2z M72,90l2,0 0,2 -2,0 0,-2z M74,90l2,0 0,2 -2,0 0,-2z M76,90l2,0 0,2 -2,0 0,-2z M78,90l2,0 0,2 -2,0 0,-2z M80,90l2,0 0,2 -2,0 0,-2z M86,90l2,0 0,2 -2,0 0,-2z M92,90l2,0 0,2 -2,0 0,-2z M94,90l2,0 0,2 -2,0 0,-2z M100,90l2,0 0,2 -2,0 0,-2z M102,90l2,0 0,2 -2,0 0,-2z M104,90l2,0 0,2 -2,0 0,-2z M112,90l2,0 0,2 -2,0 0,-2z M116,90l2,0 0,2 -2,0 0,-2z M118,90l2,0 0,2 -2,0 0,-2z M120,90l2,0 0,2 -2,0 0,-2z M122,90l2,0 0,2 -2,0 0,-2z M128,90l2,0 0,2 -2,0 0,-2z M132,90l2,0 0,2 -2,0 0,-2z M136,90l2,0 0,2 -2,0 0,-2z M142,90l2,0 0,2 -2,0 0,-2z M146,90l2,0 0,2 -2,0 0,-2z M150,90l2,0 0,2 -2,0 0,-2z M152,90l2,0 0,2 -2,0 0,-2z M156,90l2,0 0,2 -2,0 0,-2z M158,90l2,0 0,2 -2,0 0,-2z M160,90l2,0 0,2 -2,0 0,-2z M8,92l2,0 0,2 -2,0 0,-2z M14,92l2,0 0,2 -2,0 0,-2z M16,92l2,0 0,2 -2,0 0,-2z M18,92l2,0 0,2 -2,0 0,-2z M20,92l2,0 0,2 -2,0 0,-2z M22,92l2,0 0,2 -2,0 0,-2z M24,92l2,0 0,2 -2,0 0,-2z M34,92l2,0 0,2 -2,0 0,-2z M36,92l2,0 0,2 -2,0 0,-2z M38,92l2,0 0,2 -2,0 0,-2z M40,92l2,0 0,2 -2,0 0,-2z M42,92l2,0 0,2 -2,0 0,-2z M44,92l2,0 0,2 -2,0 0,-2z M46,92l2,0 0,2 -2,0 0,-2z M48,92l2,0 0,2 -2,0 0,-2z M50,92l2,0 0,2 -2,0 0,-2z M58,92l2,0 0,2 -2,0 0,-2z M66,92l2,0 0,2 -2,0 0,-2z M68,92l2,0 0,2 -2,0 0,-2z M74,92l2,0 0,2 -2,0 0,-2z M76,92l2,0 0,2 -2,0 0,-2z M78,92l2,0 0,2 -2,0 0,-2z M86,92l2,0 0,2 -2,0 0,-2z M92,92l2,0 0,2 -2,0 0,-2z M94,92l2,0 0,2 -2,0 0,-2z M96,92l2,0 0,2 -2,0 0,-2z M108,92l2,0 0,2 -2,0 0,-2z M110,92l2,0 0,2 -2,0 0,-2z M112,92l2,0 0,2 -2,0 0,-2z M114,92l2,0 0,2 -2,0 0,-2z M116,92l2,0 0,2 -2,0 0,-2z M122,92l2,0 0,2 -2,0 0,-2z M126,92l2,0 0,2 -2,0 0,-2z M128,92l2,0 0,2 -2,0 0,-2z M132,92l2,0 0,2 -2,0 0,-2z M134,92l2,0 0,2 -2,0 0,-2z M138,92l2,0 0,2 -2,0 0,-2z M140,92l2,0 0,2 -2,0 0,-2z M144,92l2,0 0,2 -2,0 0,-2z M146,92l2,0 0,2 -2,0 0,-2z M150,92l2,0 0,2 -2,0 0,-2z M154,92l2,0 0,2 -2,0 0,-2z M160,92l2,0 0,2 -2,0 0,-2z M10,94l2,0 0,2 -2,0 0,-2z M12,94l2,0 0,2 -2,0 0,-2z M14,94l2,0 0,2 -2,0 0,-2z M16,94l2,0 0,2 -2,0 0,-2z M18,94l2,0 0,2 -2,0 0,-2z M22,94l2,0 0,2 -2,0 0,-2z M28,94l2,0 0,2 -2,0 0,-2z M36,94l2,0 0,2 -2,0 0,-2z M40,94l2,0 0,2 -2,0 0,-2z M42,94l2,0 0,2 -2,0 0,-2z M46,94l2,0 0,2 -2,0 0,-2z M48,94l2,0 0,2 -2,0 0,-2z M54,94l2,0 0,2 -2,0 0,-2z M58,94l2,0 0,2 -2,0 0,-2z M60,94l2,0 0,2 -2,0 0,-2z M62,94l2,0 0,2 -2,0 0,-2z M68,94l2,0 0,2 -2,0 0,-2z M78,94l2,0 0,2 -2,0 0,-2z M86,94l2,0 0,2 -2,0 0,-2z M94,94l2,0 0,2 -2,0 0,-2z M102,94l2,0 0,2 -2,0 0,-2z M104,94l2,0 0,2 -2,0 0,-2z M108,94l2,0 0,2 -2,0 0,-2z M114,94l2,0 0,2 -2,0 0,-2z M116,94l2,0 0,2 -2,0 0,-2z M120,94l2,0 0,2 -2,0 0,-2z M124,94l2,0 0,2 -2,0 0,-2z M126,94l2,0 0,2 -2,0 0,-2z M128,94l2,0 0,2 -2,0 0,-2z M134,94l2,0 0,2 -2,0 0,-2z M142,94l2,0 0,2 -2,0 0,-2z M148,94l2,0 0,2 -2,0 0,-2z M150,94l2,0 0,2 -2,0 0,-2z M154,94l2,0 0,2 -2,0 0,-2z M160,94l2,0 0,2 -2,0 0,-2z M10,96l2,0 0,2 -2,0 0,-2z M16,96l2,0 0,2 -2,0 0,-2z M20,96l2,0 0,2 -2,0 0,-2z M28,96l2,0 0,2 -2,0 0,-2z M32,96l2,0 0,2 -2,0 0,-2z M46,96l2,0 0,2 -2,0 0,-2z M48,96l2,0 0,2 -2,0 0,-2z M52,96l2,0 0,2 -2,0 0,-2z M56,96l2,0 0,2 -2,0 0,-2z M58,96l2,0 0,2 -2,0 0,-2z M62,96l2,0 0,2 -2,0 0,-2z M64,96l2,0 0,2 -2,0 0,-2z M66,96l2,0 0,2 -2,0 0,-2z M68,96l2,0 0,2 -2,0 0,-2z M78,96l2,0 0,2 -2,0 0,-2z M80,96l2,0 0,2 -2,0 0,-2z M84,96l2,0 0,2 -2,0 0,-2z M86,96l2,0 0,2 -2,0 0,-2z M90,96l2,0 0,2 -2,0 0,-2z M92,96l2,0 0,2 -2,0 0,-2z M94,96l2,0 0,2 -2,0 0,-2z M96,96l2,0 0,2 -2,0 0,-2z M98,96l2,0 0,2 -2,0 0,-2z M102,96l2,0 0,2 -2,0 0,-2z M104,96l2,0 0,2 -2,0 0,-2z M112,96l2,0 0,2 -2,0 0,-2z M120,96l2,0 0,2 -2,0 0,-2z M124,96l2,0 0,2 -2,0 0,-2z M130,96l2,0 0,2 -2,0 0,-2z M132,96l2,0 0,2 -2,0 0,-2z M136,96l2,0 0,2 -2,0 0,-2z M144,96l2,0 0,2 -2,0 0,-2z M150,96l2,0 0,2 -2,0 0,-2z M156,96l2,0 0,2 -2,0 0,-2z M158,96l2,0 0,2 -2,0 0,-2z M8,98l2,0 0,2 -2,0 0,-2z M12,98l2,0 0,2 -2,0 0,-2z M16,98l2,0 0,2 -2,0 0,-2z M18,98l2,0 0,2 -2,0 0,-2z M22,98l2,0 0,2 -2,0 0,-2z M26,98l2,0 0,2 -2,0 0,-2z M28,98l2,0 0,2 -2,0 0,-2z M30,98l2,0 0,2 -2,0 0,-2z M36,98l2,0 0,2 -2,0 0,-2z M38,98l2,0 0,2 -2,0 0,-2z M44,98l2,0 0,2 -2,0 0,-2z M46,98l2,0 0,2 -2,0 0,-2z M52,98l2,0 0,2 -2,0 0,-2z M54,98l2,0 0,2 -2,0 0,-2z M62,98l2,0 0,2 -2,0 0,-2z M68,98l2,0 0,2 -2,0 0,-2z M70,98l2,0 0,2 -2,0 0,-2z M82,98l2,0 0,2 -2,0 0,-2z M84,98l2,0 0,2 -2,0 0,-2z M86,98l2,0 0,2 -2,0 0,-2z M90,98l2,0 0,2 -2,0 0,-2z M92,98l2,0 0,2 -2,0 0,-2z M96,98l2,0 0,2 -2,0 0,-2z M102,98l2,0 0,2 -2,0 0,-2z M104,98l2,0 0,2 -2,0 0,-2z M112,98l2,0 0,2 -2,0 0,-2z M116,98l2,0 0,2 -2,0 0,-2z M124,98l2,0 0,2 -2,0 0,-2z M130,98l2,0 0,2 -2,0 0,-2z M136,98l2,0 0,2 -2,0 0,-2z M144,98l2,0 0,2 -2,0 0,-2z M146,98l2,0 0,2 -2,0 0,-2z M148,98l2,0 0,2 -2,0 0,-2z M156,98l2,0 0,2 -2,0 0,-2z M158,98l2,0 0,2 -2,0 0,-2z M10,100l2,0 0,2 -2,0 0,-2z M12,100l2,0 0,2 -2,0 0,-2z M16,100l2,0 0,2 -2,0 0,-2z M18,100l2,0 0,2 -2,0 0,-2z M20,100l2,0 0,2 -2,0 0,-2z M22,100l2,0 0,2 -2,0 0,-2z M24,100l2,0 0,2 -2,0 0,-2z M36,100l2,0 0,2 -2,0 0,-2z M38,100l2,0 0,2 -2,0 0,-2z M40,100l2,0 0,2 -2,0 0,-2z M44,100l2,0 0,2 -2,0 0,-2z M52,100l2,0 0,2 -2,0 0,-2z M54,100l2,0 0,2 -2,0 0,-2z M56,100l2,0 0,2 -2,0 0,-2z M58,100l2,0 0,2 -2,0 0,-2z M60,100l2,0 0,2 -2,0 0,-2z M62,100l2,0 0,2 -2,0 0,-2z M64,100l2,0 0,2 -2,0 0,-2z M66,100l2,0 0,2 -2,0 0,-2z M70,100l2,0 0,2 -2,0 0,-2z M72,100l2,0 0,2 -2,0 0,-2z M78,100l2,0 0,2 -2,0 0,-2z M80,100l2,0 0,2 -2,0 0,-2z M82,100l2,0 0,2 -2,0 0,-2z M88,100l2,0 0,2 -2,0 0,-2z M92,100l2,0 0,2 -2,0 0,-2z M98,100l2,0 0,2 -2,0 0,-2z M100,100l2,0 0,2 -2,0 0,-2z M102,100l2,0 0,2 -2,0 0,-2z M104,100l2,0 0,2 -2,0 0,-2z M106,100l2,0 0,2 -2,0 0,-2z M108,100l2,0 0,2 -2,0 0,-2z M110,100l2,0 0,2 -2,0 0,-2z M116,100l2,0 0,2 -2,0 0,-2z M118,100l2,0 0,2 -2,0 0,-2z M120,100l2,0 0,2 -2,0 0,-2z M122,100l2,0 0,2 -2,0 0,-2z M124,100l2,0 0,2 -2,0 0,-2z M126,100l2,0 0,2 -2,0 0,-2z M134,100l2,0 0,2 -2,0 0,-2z M136,100l2,0 0,2 -2,0 0,-2z M138,100l2,0 0,2 -2,0 0,-2z M142,100l2,0 0,2 -2,0 0,-2z M144,100l2,0 0,2 -2,0 0,-2z M146,100l2,0 0,2 -2,0 0,-2z M148,100l2,0 0,2 -2,0 0,-2z M150,100l2,0 0,2 -2,0 0,-2z M152,100l2,0 0,2 -2,0 0,-2z M154,100l2,0 0,2 -2,0 0,-2z M160,100l2,0 0,2 -2,0 0,-2z M16,102l2,0 0,2 -2,0 0,-2z M24,102l2,0 0,2 -2,0 0,-2z M26,102l2,0 0,2 -2,0 0,-2z M28,102l2,0 0,2 -2,0 0,-2z M36,102l2,0 0,2 -2,0 0,-2z M38,102l2,0 0,2 -2,0 0,-2z M44,102l2,0 0,2 -2,0 0,-2z M56,102l2,0 0,2 -2,0 0,-2z M64,102l2,0 0,2 -2,0 0,-2z M66,102l2,0 0,2 -2,0 0,-2z M70,102l2,0 0,2 -2,0 0,-2z M76,102l2,0 0,2 -2,0 0,-2z M80,102l2,0 0,2 -2,0 0,-2z M82,102l2,0 0,2 -2,0 0,-2z M84,102l2,0 0,2 -2,0 0,-2z M86,102l2,0 0,2 -2,0 0,-2z M88,102l2,0 0,2 -2,0 0,-2z M92,102l2,0 0,2 -2,0 0,-2z M100,102l2,0 0,2 -2,0 0,-2z M108,102l2,0 0,2 -2,0 0,-2z M110,102l2,0 0,2 -2,0 0,-2z M112,102l2,0 0,2 -2,0 0,-2z M114,102l2,0 0,2 -2,0 0,-2z M116,102l2,0 0,2 -2,0 0,-2z M124,102l2,0 0,2 -2,0 0,-2z M128,102l2,0 0,2 -2,0 0,-2z M130,102l2,0 0,2 -2,0 0,-2z M132,102l2,0 0,2 -2,0 0,-2z M134,102l2,0 0,2 -2,0 0,-2z M144,102l2,0 0,2 -2,0 0,-2z M152,102l2,0 0,2 -2,0 0,-2z M154,102l2,0 0,2 -2,0 0,-2z M160,102l2,0 0,2 -2,0 0,-2z M16,104l2,0 0,2 -2,0 0,-2z M20,104l2,0 0,2 -2,0 0,-2z M24,104l2,0 0,2 -2,0 0,-2z M32,104l2,0 0,2 -2,0 0,-2z M42,104l2,0 0,2 -2,0 0,-2z M44,104l2,0 0,2 -2,0 0,-2z M46,104l2,0 0,2 -2,0 0,-2z M52,104l2,0 0,2 -2,0 0,-2z M54,104l2,0 0,2 -2,0 0,-2z M56,104l2,0 0,2 -2,0 0,-2z M60,104l2,0 0,2 -2,0 0,-2z M64,104l2,0 0,2 -2,0 0,-2z M66,104l2,0 0,2 -2,0 0,-2z M68,104l2,0 0,2 -2,0 0,-2z M70,104l2,0 0,2 -2,0 0,-2z M72,104l2,0 0,2 -2,0 0,-2z M80,104l2,0 0,2 -2,0 0,-2z M82,104l2,0 0,2 -2,0 0,-2z M86,104l2,0 0,2 -2,0 0,-2z M88,104l2,0 0,2 -2,0 0,-2z M98,104l2,0 0,2 -2,0 0,-2z M100,104l2,0 0,2 -2,0 0,-2z M104,104l2,0 0,2 -2,0 0,-2z M108,104l2,0 0,2 -2,0 0,-2z M112,104l2,0 0,2 -2,0 0,-2z M116,104l2,0 0,2 -2,0 0,-2z M118,104l2,0 0,2 -2,0 0,-2z M124,104l2,0 0,2 -2,0 0,-2z M128,104l2,0 0,2 -2,0 0,-2z M134,104l2,0 0,2 -2,0 0,-2z M138,104l2,0 0,2 -2,0 0,-2z M144,104l2,0 0,2 -2,0 0,-2z M148,104l2,0 0,2 -2,0 0,-2z M152,104l2,0 0,2 -2,0 0,-2z M158,104l2,0 0,2 -2,0 0,-2z M12,106l2,0 0,2 -2,0 0,-2z M14,106l2,0 0,2 -2,0 0,-2z M16,106l2,0 0,2 -2,0 0,-2z M24,106l2,0 0,2 -2,0 0,-2z M26,106l2,0 0,2 -2,0 0,-2z M28,106l2,0 0,2 -2,0 0,-2z M36,106l2,0 0,2 -2,0 0,-2z M48,106l2,0 0,2 -2,0 0,-2z M50,106l2,0 0,2 -2,0 0,-2z M52,106l2,0 0,2 -2,0 0,-2z M54,106l2,0 0,2 -2,0 0,-2z M56,106l2,0 0,2 -2,0 0,-2z M64,106l2,0 0,2 -2,0 0,-2z M68,106l2,0 0,2 -2,0 0,-2z M72,106l2,0 0,2 -2,0 0,-2z M74,106l2,0 0,2 -2,0 0,-2z M80,106l2,0 0,2 -2,0 0,-2z M88,106l2,0 0,2 -2,0 0,-2z M90,106l2,0 0,2 -2,0 0,-2z M94,106l2,0 0,2 -2,0 0,-2z M98,106l2,0 0,2 -2,0 0,-2z M100,106l2,0 0,2 -2,0 0,-2z M108,106l2,0 0,2 -2,0 0,-2z M118,106l2,0 0,2 -2,0 0,-2z M120,106l2,0 0,2 -2,0 0,-2z M124,106l2,0 0,2 -2,0 0,-2z M126,106l2,0 0,2 -2,0 0,-2z M132,106l2,0 0,2 -2,0 0,-2z M134,106l2,0 0,2 -2,0 0,-2z M136,106l2,0 0,2 -2,0 0,-2z M138,106l2,0 0,2 -2,0 0,-2z M140,106l2,0 0,2 -2,0 0,-2z M142,106l2,0 0,2 -2,0 0,-2z M144,106l2,0 0,2 -2,0 0,-2z M152,106l2,0 0,2 -2,0 0,-2z M158,106l2,0 0,2 -2,0 0,-2z M160,106l2,0 0,2 -2,0 0,-2z M8,108l2,0 0,2 -2,0 0,-2z M14,108l2,0 0,2 -2,0 0,-2z M16,108l2,0 0,2 -2,0 0,-2z M18,108l2,0 0,2 -2,0 0,-2z M20,108l2,0 0,2 -2,0 0,-2z M22,108l2,0 0,2 -2,0 0,-2z M24,108l2,0 0,2 -2,0 0,-2z M26,108l2,0 0,2 -2,0 0,-2z M28,108l2,0 0,2 -2,0 0,-2z M30,108l2,0 0,2 -2,0 0,-2z M32,108l2,0 0,2 -2,0 0,-2z M34,108l2,0 0,2 -2,0 0,-2z M40,108l2,0 0,2 -2,0 0,-2z M42,108l2,0 0,2 -2,0 0,-2z M46,108l2,0 0,2 -2,0 0,-2z M48,108l2,0 0,2 -2,0 0,-2z M50,108l2,0 0,2 -2,0 0,-2z M56,108l2,0 0,2 -2,0 0,-2z M58,108l2,0 0,2 -2,0 0,-2z M60,108l2,0 0,2 -2,0 0,-2z M62,108l2,0 0,2 -2,0 0,-2z M64,108l2,0 0,2 -2,0 0,-2z M74,108l2,0 0,2 -2,0 0,-2z M76,108l2,0 0,2 -2,0 0,-2z M90,108l2,0 0,2 -2,0 0,-2z M94,108l2,0 0,2 -2,0 0,-2z M96,108l2,0 0,2 -2,0 0,-2z M98,108l2,0 0,2 -2,0 0,-2z M100,108l2,0 0,2 -2,0 0,-2z M102,108l2,0 0,2 -2,0 0,-2z M104,108l2,0 0,2 -2,0 0,-2z M106,108l2,0 0,2 -2,0 0,-2z M108,108l2,0 0,2 -2,0 0,-2z M110,108l2,0 0,2 -2,0 0,-2z M112,108l2,0 0,2 -2,0 0,-2z M114,108l2,0 0,2 -2,0 0,-2z M120,108l2,0 0,2 -2,0 0,-2z M122,108l2,0 0,2 -2,0 0,-2z M124,108l2,0 0,2 -2,0 0,-2z M128,108l2,0 0,2 -2,0 0,-2z M132,108l2,0 0,2 -2,0 0,-2z M138,108l2,0 0,2 -2,0 0,-2z M140,108l2,0 0,2 -2,0 0,-2z M142,108l2,0 0,2 -2,0 0,-2z M144,108l2,0 0,2 -2,0 0,-2z M146,108l2,0 0,2 -2,0 0,-2z M148,108l2,0 0,2 -2,0 0,-2z M150,108l2,0 0,2 -2,0 0,-2z M152,108l2,0 0,2 -2,0 0,-2z M156,108l2,0 0,2 -2,0 0,-2z M12,110l2,0 0,2 -2,0 0,-2z M18,110l2,0 0,2 -2,0 0,-2z M26,110l2,0 0,2 -2,0 0,-2z M30,110l2,0 0,2 -2,0 0,-2z M36,110l2,0 0,2 -2,0 0,-2z M38,110l2,0 0,2 -2,0 0,-2z M40,110l2,0 0,2 -2,0 0,-2z M42,110l2,0 0,2 -2,0 0,-2z M46,110l2,0 0,2 -2,0 0,-2z M48,110l2,0 0,2 -2,0 0,-2z M50,110l2,0 0,2 -2,0 0,-2z M52,110l2,0 0,2 -2,0 0,-2z M54,110l2,0 0,2 -2,0 0,-2z M62,110l2,0 0,2 -2,0 0,-2z M64,110l2,0 0,2 -2,0 0,-2z M68,110l2,0 0,2 -2,0 0,-2z M74,110l2,0 0,2 -2,0 0,-2z M78,110l2,0 0,2 -2,0 0,-2z M80,110l2,0 0,2 -2,0 0,-2z M84,110l2,0 0,2 -2,0 0,-2z M88,110l2,0 0,2 -2,0 0,-2z M90,110l2,0 0,2 -2,0 0,-2z M96,110l2,0 0,2 -2,0 0,-2z M104,110l2,0 0,2 -2,0 0,-2z M108,110l2,0 0,2 -2,0 0,-2z M110,110l2,0 0,2 -2,0 0,-2z M116,110l2,0 0,2 -2,0 0,-2z M120,110l2,0 0,2 -2,0 0,-2z M124,110l2,0 0,2 -2,0 0,-2z M130,110l2,0 0,2 -2,0 0,-2z M134,110l2,0 0,2 -2,0 0,-2z M136,110l2,0 0,2 -2,0 0,-2z M138,110l2,0 0,2 -2,0 0,-2z M152,110l2,0 0,2 -2,0 0,-2z M154,110l2,0 0,2 -2,0 0,-2z M156,110l2,0 0,2 -2,0 0,-2z M158,110l2,0 0,2 -2,0 0,-2z M160,110l2,0 0,2 -2,0 0,-2z M10,112l2,0 0,2 -2,0 0,-2z M14,112l2,0 0,2 -2,0 0,-2z M16,112l2,0 0,2 -2,0 0,-2z M20,112l2,0 0,2 -2,0 0,-2z M22,112l2,0 0,2 -2,0 0,-2z M24,112l2,0 0,2 -2,0 0,-2z M26,112l2,0 0,2 -2,0 0,-2z M30,112l2,0 0,2 -2,0 0,-2z M32,112l2,0 0,2 -2,0 0,-2z M34,112l2,0 0,2 -2,0 0,-2z M36,112l2,0 0,2 -2,0 0,-2z M40,112l2,0 0,2 -2,0 0,-2z M46,112l2,0 0,2 -2,0 0,-2z M48,112l2,0 0,2 -2,0 0,-2z M52,112l2,0 0,2 -2,0 0,-2z M58,112l2,0 0,2 -2,0 0,-2z M60,112l2,0 0,2 -2,0 0,-2z M62,112l2,0 0,2 -2,0 0,-2z M72,112l2,0 0,2 -2,0 0,-2z M76,112l2,0 0,2 -2,0 0,-2z M78,112l2,0 0,2 -2,0 0,-2z M80,112l2,0 0,2 -2,0 0,-2z M90,112l2,0 0,2 -2,0 0,-2z M92,112l2,0 0,2 -2,0 0,-2z M96,112l2,0 0,2 -2,0 0,-2z M98,112l2,0 0,2 -2,0 0,-2z M100,112l2,0 0,2 -2,0 0,-2z M104,112l2,0 0,2 -2,0 0,-2z M106,112l2,0 0,2 -2,0 0,-2z M110,112l2,0 0,2 -2,0 0,-2z M114,112l2,0 0,2 -2,0 0,-2z M118,112l2,0 0,2 -2,0 0,-2z M124,112l2,0 0,2 -2,0 0,-2z M128,112l2,0 0,2 -2,0 0,-2z M136,112l2,0 0,2 -2,0 0,-2z M140,112l2,0 0,2 -2,0 0,-2z M142,112l2,0 0,2 -2,0 0,-2z M144,112l2,0 0,2 -2,0 0,-2z M146,112l2,0 0,2 -2,0 0,-2z M154,112l2,0 0,2 -2,0 0,-2z M156,112l2,0 0,2 -2,0 0,-2z M8,114l2,0 0,2 -2,0 0,-2z M10,114l2,0 0,2 -2,0 0,-2z M16,114l2,0 0,2 -2,0 0,-2z M22,114l2,0 0,2 -2,0 0,-2z M24,114l2,0 0,2 -2,0 0,-2z M26,114l2,0 0,2 -2,0 0,-2z M34,114l2,0 0,2 -2,0 0,-2z M38,114l2,0 0,2 -2,0 0,-2z M44,114l2,0 0,2 -2,0 0,-2z M46,114l2,0 0,2 -2,0 0,-2z M56,114l2,0 0,2 -2,0 0,-2z M60,114l2,0 0,2 -2,0 0,-2z M66,114l2,0 0,2 -2,0 0,-2z M74,114l2,0 0,2 -2,0 0,-2z M78,114l2,0 0,2 -2,0 0,-2z M80,114l2,0 0,2 -2,0 0,-2z M84,114l2,0 0,2 -2,0 0,-2z M86,114l2,0 0,2 -2,0 0,-2z M92,114l2,0 0,2 -2,0 0,-2z M94,114l2,0 0,2 -2,0 0,-2z M98,114l2,0 0,2 -2,0 0,-2z M100,114l2,0 0,2 -2,0 0,-2z M102,114l2,0 0,2 -2,0 0,-2z M104,114l2,0 0,2 -2,0 0,-2z M106,114l2,0 0,2 -2,0 0,-2z M110,114l2,0 0,2 -2,0 0,-2z M112,114l2,0 0,2 -2,0 0,-2z M114,114l2,0 0,2 -2,0 0,-2z M116,114l2,0 0,2 -2,0 0,-2z M118,114l2,0 0,2 -2,0 0,-2z M124,114l2,0 0,2 -2,0 0,-2z M126,114l2,0 0,2 -2,0 0,-2z M128,114l2,0 0,2 -2,0 0,-2z M130,114l2,0 0,2 -2,0 0,-2z M142,114l2,0 0,2 -2,0 0,-2z M146,114l2,0 0,2 -2,0 0,-2z M148,114l2,0 0,2 -2,0 0,-2z M150,114l2,0 0,2 -2,0 0,-2z M152,114l2,0 0,2 -2,0 0,-2z M154,114l2,0 0,2 -2,0 0,-2z M156,114l2,0 0,2 -2,0 0,-2z M14,116l2,0 0,2 -2,0 0,-2z M16,116l2,0 0,2 -2,0 0,-2z M18,116l2,0 0,2 -2,0 0,-2z M20,116l2,0 0,2 -2,0 0,-2z M24,116l2,0 0,2 -2,0 0,-2z M26,116l2,0 0,2 -2,0 0,-2z M28,116l2,0 0,2 -2,0 0,-2z M30,116l2,0 0,2 -2,0 0,-2z M32,116l2,0 0,2 -2,0 0,-2z M34,116l2,0 0,2 -2,0 0,-2z M44,116l2,0 0,2 -2,0 0,-2z M54,116l2,0 0,2 -2,0 0,-2z M56,116l2,0 0,2 -2,0 0,-2z M62,116l2,0 0,2 -2,0 0,-2z M64,116l2,0 0,2 -2,0 0,-2z M66,116l2,0 0,2 -2,0 0,-2z M76,116l2,0 0,2 -2,0 0,-2z M78,116l2,0 0,2 -2,0 0,-2z M86,116l2,0 0,2 -2,0 0,-2z M88,116l2,0 0,2 -2,0 0,-2z M94,116l2,0 0,2 -2,0 0,-2z M96,116l2,0 0,2 -2,0 0,-2z M100,116l2,0 0,2 -2,0 0,-2z M102,116l2,0 0,2 -2,0 0,-2z M114,116l2,0 0,2 -2,0 0,-2z M116,116l2,0 0,2 -2,0 0,-2z M122,116l2,0 0,2 -2,0 0,-2z M124,116l2,0 0,2 -2,0 0,-2z M132,116l2,0 0,2 -2,0 0,-2z M134,116l2,0 0,2 -2,0 0,-2z M136,116l2,0 0,2 -2,0 0,-2z M138,116l2,0 0,2 -2,0 0,-2z M142,116l2,0 0,2 -2,0 0,-2z M146,116l2,0 0,2 -2,0 0,-2z M148,116l2,0 0,2 -2,0 0,-2z M154,116l2,0 0,2 -2,0 0,-2z M12,118l2,0 0,2 -2,0 0,-2z M24,118l2,0 0,2 -2,0 0,-2z M26,118l2,0 0,2 -2,0 0,-2z M28,118l2,0 0,2 -2,0 0,-2z M34,118l2,0 0,2 -2,0 0,-2z M36,118l2,0 0,2 -2,0 0,-2z M40,118l2,0 0,2 -2,0 0,-2z M44,118l2,0 0,2 -2,0 0,-2z M56,118l2,0 0,2 -2,0 0,-2z M58,118l2,0 0,2 -2,0 0,-2z M66,118l2,0 0,2 -2,0 0,-2z M74,118l2,0 0,2 -2,0 0,-2z M76,118l2,0 0,2 -2,0 0,-2z M78,118l2,0 0,2 -2,0 0,-2z M82,118l2,0 0,2 -2,0 0,-2z M86,118l2,0 0,2 -2,0 0,-2z M88,118l2,0 0,2 -2,0 0,-2z M92,118l2,0 0,2 -2,0 0,-2z M98,118l2,0 0,2 -2,0 0,-2z M102,118l2,0 0,2 -2,0 0,-2z M104,118l2,0 0,2 -2,0 0,-2z M108,118l2,0 0,2 -2,0 0,-2z M110,118l2,0 0,2 -2,0 0,-2z M112,118l2,0 0,2 -2,0 0,-2z M114,118l2,0 0,2 -2,0 0,-2z M120,118l2,0 0,2 -2,0 0,-2z M122,118l2,0 0,2 -2,0 0,-2z M124,118l2,0 0,2 -2,0 0,-2z M126,118l2,0 0,2 -2,0 0,-2z M128,118l2,0 0,2 -2,0 0,-2z M134,118l2,0 0,2 -2,0 0,-2z M140,118l2,0 0,2 -2,0 0,-2z M142,118l2,0 0,2 -2,0 0,-2z M144,118l2,0 0,2 -2,0 0,-2z M148,118l2,0 0,2 -2,0 0,-2z M158,118l2,0 0,2 -2,0 0,-2z M14,120l2,0 0,2 -2,0 0,-2z M18,120l2,0 0,2 -2,0 0,-2z M20,120l2,0 0,2 -2,0 0,-2z M22,120l2,0 0,2 -2,0 0,-2z M24,120l2,0 0,2 -2,0 0,-2z M26,120l2,0 0,2 -2,0 0,-2z M30,120l2,0 0,2 -2,0 0,-2z M32,120l2,0 0,2 -2,0 0,-2z M36,120l2,0 0,2 -2,0 0,-2z M40,120l2,0 0,2 -2,0 0,-2z M42,120l2,0 0,2 -2,0 0,-2z M44,120l2,0 0,2 -2,0 0,-2z M50,120l2,0 0,2 -2,0 0,-2z M64,120l2,0 0,2 -2,0 0,-2z M66,120l2,0 0,2 -2,0 0,-2z M68,120l2,0 0,2 -2,0 0,-2z M72,120l2,0 0,2 -2,0 0,-2z M74,120l2,0 0,2 -2,0 0,-2z M78,120l2,0 0,2 -2,0 0,-2z M82,120l2,0 0,2 -2,0 0,-2z M86,120l2,0 0,2 -2,0 0,-2z M88,120l2,0 0,2 -2,0 0,-2z M96,120l2,0 0,2 -2,0 0,-2z M102,120l2,0 0,2 -2,0 0,-2z M104,120l2,0 0,2 -2,0 0,-2z M106,120l2,0 0,2 -2,0 0,-2z M108,120l2,0 0,2 -2,0 0,-2z M112,120l2,0 0,2 -2,0 0,-2z M116,120l2,0 0,2 -2,0 0,-2z M118,120l2,0 0,2 -2,0 0,-2z M120,120l2,0 0,2 -2,0 0,-2z M126,120l2,0 0,2 -2,0 0,-2z M128,120l2,0 0,2 -2,0 0,-2z M130,120l2,0 0,2 -2,0 0,-2z M134,120l2,0 0,2 -2,0 0,-2z M138,120l2,0 0,2 -2,0 0,-2z M146,120l2,0 0,2 -2,0 0,-2z M156,120l2,0 0,2 -2,0 0,-2z M158,120l2,0 0,2 -2,0 0,-2z M160,120l2,0 0,2 -2,0 0,-2z M8,122l2,0 0,2 -2,0 0,-2z M14,122l2,0 0,2 -2,0 0,-2z M24,122l2,0 0,2 -2,0 0,-2z M26,122l2,0 0,2 -2,0 0,-2z M34,122l2,0 0,2 -2,0 0,-2z M40,122l2,0 0,2 -2,0 0,-2z M46,122l2,0 0,2 -2,0 0,-2z M52,122l2,0 0,2 -2,0 0,-2z M58,122l2,0 0,2 -2,0 0,-2z M62,122l2,0 0,2 -2,0 0,-2z M64,122l2,0 0,2 -2,0 0,-2z M68,122l2,0 0,2 -2,0 0,-2z M70,122l2,0 0,2 -2,0 0,-2z M72,122l2,0 0,2 -2,0 0,-2z M82,122l2,0 0,2 -2,0 0,-2z M84,122l2,0 0,2 -2,0 0,-2z M88,122l2,0 0,2 -2,0 0,-2z M90,122l2,0 0,2 -2,0 0,-2z M102,122l2,0 0,2 -2,0 0,-2z M118,122l2,0 0,2 -2,0 0,-2z M124,122l2,0 0,2 -2,0 0,-2z M126,122l2,0 0,2 -2,0 0,-2z M130,122l2,0 0,2 -2,0 0,-2z M134,122l2,0 0,2 -2,0 0,-2z M136,122l2,0 0,2 -2,0 0,-2z M138,122l2,0 0,2 -2,0 0,-2z M140,122l2,0 0,2 -2,0 0,-2z M142,122l2,0 0,2 -2,0 0,-2z M144,122l2,0 0,2 -2,0 0,-2z M146,122l2,0 0,2 -2,0 0,-2z M148,122l2,0 0,2 -2,0 0,-2z M150,122l2,0 0,2 -2,0 0,-2z M152,122l2,0 0,2 -2,0 0,-2z M158,122l2,0 0,2 -2,0 0,-2z M10,124l2,0 0,2 -2,0 0,-2z M14,124l2,0 0,2 -2,0 0,-2z M16,124l2,0 0,2 -2,0 0,-2z M18,124l2,0 0,2 -2,0 0,-2z M20,124l2,0 0,2 -2,0 0,-2z M24,124l2,0 0,2 -2,0 0,-2z M26,124l2,0 0,2 -2,0 0,-2z M28,124l2,0 0,2 -2,0 0,-2z M30,124l2,0 0,2 -2,0 0,-2z M32,124l2,0 0,2 -2,0 0,-2z M34,124l2,0 0,2 -2,0 0,-2z M38,124l2,0 0,2 -2,0 0,-2z M42,124l2,0 0,2 -2,0 0,-2z M48,124l2,0 0,2 -2,0 0,-2z M50,124l2,0 0,2 -2,0 0,-2z M52,124l2,0 0,2 -2,0 0,-2z M54,124l2,0 0,2 -2,0 0,-2z M56,124l2,0 0,2 -2,0 0,-2z M58,124l2,0 0,2 -2,0 0,-2z M60,124l2,0 0,2 -2,0 0,-2z M62,124l2,0 0,2 -2,0 0,-2z M70,124l2,0 0,2 -2,0 0,-2z M76,124l2,0 0,2 -2,0 0,-2z M80,124l2,0 0,2 -2,0 0,-2z M82,124l2,0 0,2 -2,0 0,-2z M84,124l2,0 0,2 -2,0 0,-2z M90,124l2,0 0,2 -2,0 0,-2z M98,124l2,0 0,2 -2,0 0,-2z M104,124l2,0 0,2 -2,0 0,-2z M106,124l2,0 0,2 -2,0 0,-2z M108,124l2,0 0,2 -2,0 0,-2z M110,124l2,0 0,2 -2,0 0,-2z M112,124l2,0 0,2 -2,0 0,-2z M114,124l2,0 0,2 -2,0 0,-2z M122,124l2,0 0,2 -2,0 0,-2z M124,124l2,0 0,2 -2,0 0,-2z M128,124l2,0 0,2 -2,0 0,-2z M130,124l2,0 0,2 -2,0 0,-2z M132,124l2,0 0,2 -2,0 0,-2z M138,124l2,0 0,2 -2,0 0,-2z M140,124l2,0 0,2 -2,0 0,-2z M144,124l2,0 0,2 -2,0 0,-2z M146,124l2,0 0,2 -2,0 0,-2z M148,124l2,0 0,2 -2,0 0,-2z M150,124l2,0 0,2 -2,0 0,-2z M152,124l2,0 0,2 -2,0 0,-2z M156,124l2,0 0,2 -2,0 0,-2z M158,124l2,0 0,2 -2,0 0,-2z M160,124l2,0 0,2 -2,0 0,-2z M10,126l2,0 0,2 -2,0 0,-2z M12,126l2,0 0,2 -2,0 0,-2z M16,126l2,0 0,2 -2,0 0,-2z M28,126l2,0 0,2 -2,0 0,-2z M30,126l2,0 0,2 -2,0 0,-2z M40,126l2,0 0,2 -2,0 0,-2z M42,126l2,0 0,2 -2,0 0,-2z M46,126l2,0 0,2 -2,0 0,-2z M50,126l2,0 0,2 -2,0 0,-2z M52,126l2,0 0,2 -2,0 0,-2z M56,126l2,0 0,2 -2,0 0,-2z M64,126l2,0 0,2 -2,0 0,-2z M68,126l2,0 0,2 -2,0 0,-2z M70,126l2,0 0,2 -2,0 0,-2z M72,126l2,0 0,2 -2,0 0,-2z M82,126l2,0 0,2 -2,0 0,-2z M84,126l2,0 0,2 -2,0 0,-2z M92,126l2,0 0,2 -2,0 0,-2z M98,126l2,0 0,2 -2,0 0,-2z M100,126l2,0 0,2 -2,0 0,-2z M102,126l2,0 0,2 -2,0 0,-2z M106,126l2,0 0,2 -2,0 0,-2z M116,126l2,0 0,2 -2,0 0,-2z M120,126l2,0 0,2 -2,0 0,-2z M126,126l2,0 0,2 -2,0 0,-2z M132,126l2,0 0,2 -2,0 0,-2z M134,126l2,0 0,2 -2,0 0,-2z M148,126l2,0 0,2 -2,0 0,-2z M150,126l2,0 0,2 -2,0 0,-2z M152,126l2,0 0,2 -2,0 0,-2z M154,126l2,0 0,2 -2,0 0,-2z M156,126l2,0 0,2 -2,0 0,-2z M160,126l2,0 0,2 -2,0 0,-2z M16,128l2,0 0,2 -2,0 0,-2z M20,128l2,0 0,2 -2,0 0,-2z M22,128l2,0 0,2 -2,0 0,-2z M24,128l2,0 0,2 -2,0 0,-2z M28,128l2,0 0,2 -2,0 0,-2z M30,128l2,0 0,2 -2,0 0,-2z M34,128l2,0 0,2 -2,0 0,-2z M36,128l2,0 0,2 -2,0 0,-2z M46,128l2,0 0,2 -2,0 0,-2z M52,128l2,0 0,2 -2,0 0,-2z M60,128l2,0 0,2 -2,0 0,-2z M66,128l2,0 0,2 -2,0 0,-2z M68,128l2,0 0,2 -2,0 0,-2z M70,128l2,0 0,2 -2,0 0,-2z M72,128l2,0 0,2 -2,0 0,-2z M76,128l2,0 0,2 -2,0 0,-2z M80,128l2,0 0,2 -2,0 0,-2z M84,128l2,0 0,2 -2,0 0,-2z M86,128l2,0 0,2 -2,0 0,-2z M90,128l2,0 0,2 -2,0 0,-2z M94,128l2,0 0,2 -2,0 0,-2z M96,128l2,0 0,2 -2,0 0,-2z M98,128l2,0 0,2 -2,0 0,-2z M100,128l2,0 0,2 -2,0 0,-2z M106,128l2,0 0,2 -2,0 0,-2z M114,128l2,0 0,2 -2,0 0,-2z M118,128l2,0 0,2 -2,0 0,-2z M120,128l2,0 0,2 -2,0 0,-2z M122,128l2,0 0,2 -2,0 0,-2z M124,128l2,0 0,2 -2,0 0,-2z M130,128l2,0 0,2 -2,0 0,-2z M136,128l2,0 0,2 -2,0 0,-2z M138,128l2,0 0,2 -2,0 0,-2z M140,128l2,0 0,2 -2,0 0,-2z M142,128l2,0 0,2 -2,0 0,-2z M144,128l2,0 0,2 -2,0 0,-2z M152,128l2,0 0,2 -2,0 0,-2z M154,128l2,0 0,2 -2,0 0,-2z M156,128l2,0 0,2 -2,0 0,-2z M8,130l2,0 0,2 -2,0 0,-2z M12,130l2,0 0,2 -2,0 0,-2z M18,130l2,0 0,2 -2,0 0,-2z M26,130l2,0 0,2 -2,0 0,-2z M28,130l2,0 0,2 -2,0 0,-2z M30,130l2,0 0,2 -2,0 0,-2z M34,130l2,0 0,2 -2,0 0,-2z M36,130l2,0 0,2 -2,0 0,-2z M38,130l2,0 0,2 -2,0 0,-2z M40,130l2,0 0,2 -2,0 0,-2z M44,130l2,0 0,2 -2,0 0,-2z M46,130l2,0 0,2 -2,0 0,-2z M48,130l2,0 0,2 -2,0 0,-2z M56,130l2,0 0,2 -2,0 0,-2z M58,130l2,0 0,2 -2,0 0,-2z M60,130l2,0 0,2 -2,0 0,-2z M62,130l2,0 0,2 -2,0 0,-2z M64,130l2,0 0,2 -2,0 0,-2z M66,130l2,0 0,2 -2,0 0,-2z M68,130l2,0 0,2 -2,0 0,-2z M74,130l2,0 0,2 -2,0 0,-2z M76,130l2,0 0,2 -2,0 0,-2z M78,130l2,0 0,2 -2,0 0,-2z M80,130l2,0 0,2 -2,0 0,-2z M82,130l2,0 0,2 -2,0 0,-2z M84,130l2,0 0,2 -2,0 0,-2z M86,130l2,0 0,2 -2,0 0,-2z M90,130l2,0 0,2 -2,0 0,-2z M92,130l2,0 0,2 -2,0 0,-2z M96,130l2,0 0,2 -2,0 0,-2z M98,130l2,0 0,2 -2,0 0,-2z M100,130l2,0 0,2 -2,0 0,-2z M104,130l2,0 0,2 -2,0 0,-2z M106,130l2,0 0,2 -2,0 0,-2z M108,130l2,0 0,2 -2,0 0,-2z M116,130l2,0 0,2 -2,0 0,-2z M122,130l2,0 0,2 -2,0 0,-2z M128,130l2,0 0,2 -2,0 0,-2z M130,130l2,0 0,2 -2,0 0,-2z M134,130l2,0 0,2 -2,0 0,-2z M136,130l2,0 0,2 -2,0 0,-2z M140,130l2,0 0,2 -2,0 0,-2z M142,130l2,0 0,2 -2,0 0,-2z M146,130l2,0 0,2 -2,0 0,-2z M150,130l2,0 0,2 -2,0 0,-2z M152,130l2,0 0,2 -2,0 0,-2z M156,130l2,0 0,2 -2,0 0,-2z M12,132l2,0 0,2 -2,0 0,-2z M14,132l2,0 0,2 -2,0 0,-2z M16,132l2,0 0,2 -2,0 0,-2z M20,132l2,0 0,2 -2,0 0,-2z M22,132l2,0 0,2 -2,0 0,-2z M24,132l2,0 0,2 -2,0 0,-2z M32,132l2,0 0,2 -2,0 0,-2z M38,132l2,0 0,2 -2,0 0,-2z M40,132l2,0 0,2 -2,0 0,-2z M44,132l2,0 0,2 -2,0 0,-2z M46,132l2,0 0,2 -2,0 0,-2z M56,132l2,0 0,2 -2,0 0,-2z M58,132l2,0 0,2 -2,0 0,-2z M62,132l2,0 0,2 -2,0 0,-2z M64,132l2,0 0,2 -2,0 0,-2z M66,132l2,0 0,2 -2,0 0,-2z M72,132l2,0 0,2 -2,0 0,-2z M74,132l2,0 0,2 -2,0 0,-2z M76,132l2,0 0,2 -2,0 0,-2z M78,132l2,0 0,2 -2,0 0,-2z M88,132l2,0 0,2 -2,0 0,-2z M92,132l2,0 0,2 -2,0 0,-2z M94,132l2,0 0,2 -2,0 0,-2z M96,132l2,0 0,2 -2,0 0,-2z M100,132l2,0 0,2 -2,0 0,-2z M102,132l2,0 0,2 -2,0 0,-2z M110,132l2,0 0,2 -2,0 0,-2z M112,132l2,0 0,2 -2,0 0,-2z M116,132l2,0 0,2 -2,0 0,-2z M122,132l2,0 0,2 -2,0 0,-2z M126,132l2,0 0,2 -2,0 0,-2z M130,132l2,0 0,2 -2,0 0,-2z M132,132l2,0 0,2 -2,0 0,-2z M136,132l2,0 0,2 -2,0 0,-2z M138,132l2,0 0,2 -2,0 0,-2z M140,132l2,0 0,2 -2,0 0,-2z M142,132l2,0 0,2 -2,0 0,-2z M154,132l2,0 0,2 -2,0 0,-2z M156,132l2,0 0,2 -2,0 0,-2z M8,134l2,0 0,2 -2,0 0,-2z M10,134l2,0 0,2 -2,0 0,-2z M12,134l2,0 0,2 -2,0 0,-2z M14,134l2,0 0,2 -2,0 0,-2z M22,134l2,0 0,2 -2,0 0,-2z M26,134l2,0 0,2 -2,0 0,-2z M48,134l2,0 0,2 -2,0 0,-2z M54,134l2,0 0,2 -2,0 0,-2z M58,134l2,0 0,2 -2,0 0,-2z M60,134l2,0 0,2 -2,0 0,-2z M64,134l2,0 0,2 -2,0 0,-2z M66,134l2,0 0,2 -2,0 0,-2z M74,134l2,0 0,2 -2,0 0,-2z M76,134l2,0 0,2 -2,0 0,-2z M78,134l2,0 0,2 -2,0 0,-2z M90,134l2,0 0,2 -2,0 0,-2z M92,134l2,0 0,2 -2,0 0,-2z M94,134l2,0 0,2 -2,0 0,-2z M98,134l2,0 0,2 -2,0 0,-2z M102,134l2,0 0,2 -2,0 0,-2z M104,134l2,0 0,2 -2,0 0,-2z M108,134l2,0 0,2 -2,0 0,-2z M110,134l2,0 0,2 -2,0 0,-2z M116,134l2,0 0,2 -2,0 0,-2z M120,134l2,0 0,2 -2,0 0,-2z M122,134l2,0 0,2 -2,0 0,-2z M124,134l2,0 0,2 -2,0 0,-2z M126,134l2,0 0,2 -2,0 0,-2z M128,134l2,0 0,2 -2,0 0,-2z M138,134l2,0 0,2 -2,0 0,-2z M140,134l2,0 0,2 -2,0 0,-2z M142,134l2,0 0,2 -2,0 0,-2z M144,134l2,0 0,2 -2,0 0,-2z M146,134l2,0 0,2 -2,0 0,-2z M150,134l2,0 0,2 -2,0 0,-2z M152,134l2,0 0,2 -2,0 0,-2z M154,134l2,0 0,2 -2,0 0,-2z M158,134l2,0 0,2 -2,0 0,-2z M8,136l2,0 0,2 -2,0 0,-2z M10,136l2,0 0,2 -2,0 0,-2z M12,136l2,0 0,2 -2,0 0,-2z M16,136l2,0 0,2 -2,0 0,-2z M20,136l2,0 0,2 -2,0 0,-2z M22,136l2,0 0,2 -2,0 0,-2z M30,136l2,0 0,2 -2,0 0,-2z M42,136l2,0 0,2 -2,0 0,-2z M44,136l2,0 0,2 -2,0 0,-2z M46,136l2,0 0,2 -2,0 0,-2z M48,136l2,0 0,2 -2,0 0,-2z M50,136l2,0 0,2 -2,0 0,-2z M60,136l2,0 0,2 -2,0 0,-2z M62,136l2,0 0,2 -2,0 0,-2z M66,136l2,0 0,2 -2,0 0,-2z M68,136l2,0 0,2 -2,0 0,-2z M74,136l2,0 0,2 -2,0 0,-2z M78,136l2,0 0,2 -2,0 0,-2z M84,136l2,0 0,2 -2,0 0,-2z M90,136l2,0 0,2 -2,0 0,-2z M92,136l2,0 0,2 -2,0 0,-2z M94,136l2,0 0,2 -2,0 0,-2z M96,136l2,0 0,2 -2,0 0,-2z M102,136l2,0 0,2 -2,0 0,-2z M104,136l2,0 0,2 -2,0 0,-2z M106,136l2,0 0,2 -2,0 0,-2z M108,136l2,0 0,2 -2,0 0,-2z M116,136l2,0 0,2 -2,0 0,-2z M120,136l2,0 0,2 -2,0 0,-2z M126,136l2,0 0,2 -2,0 0,-2z M128,136l2,0 0,2 -2,0 0,-2z M130,136l2,0 0,2 -2,0 0,-2z M132,136l2,0 0,2 -2,0 0,-2z M136,136l2,0 0,2 -2,0 0,-2z M140,136l2,0 0,2 -2,0 0,-2z M144,136l2,0 0,2 -2,0 0,-2z M146,136l2,0 0,2 -2,0 0,-2z M148,136l2,0 0,2 -2,0 0,-2z M150,136l2,0 0,2 -2,0 0,-2z M152,136l2,0 0,2 -2,0 0,-2z M154,136l2,0 0,2 -2,0 0,-2z M156,136l2,0 0,2 -2,0 0,-2z M158,136l2,0 0,2 -2,0 0,-2z M160,136l2,0 0,2 -2,0 0,-2z M8,138l2,0 0,2 -2,0 0,-2z M10,138l2,0 0,2 -2,0 0,-2z M12,138l2,0 0,2 -2,0 0,-2z M16,138l2,0 0,2 -2,0 0,-2z M22,138l2,0 0,2 -2,0 0,-2z M24,138l2,0 0,2 -2,0 0,-2z M26,138l2,0 0,2 -2,0 0,-2z M28,138l2,0 0,2 -2,0 0,-2z M36,138l2,0 0,2 -2,0 0,-2z M38,138l2,0 0,2 -2,0 0,-2z M42,138l2,0 0,2 -2,0 0,-2z M46,138l2,0 0,2 -2,0 0,-2z M52,138l2,0 0,2 -2,0 0,-2z M56,138l2,0 0,2 -2,0 0,-2z M58,138l2,0 0,2 -2,0 0,-2z M60,138l2,0 0,2 -2,0 0,-2z M66,138l2,0 0,2 -2,0 0,-2z M68,138l2,0 0,2 -2,0 0,-2z M70,138l2,0 0,2 -2,0 0,-2z M82,138l2,0 0,2 -2,0 0,-2z M84,138l2,0 0,2 -2,0 0,-2z M92,138l2,0 0,2 -2,0 0,-2z M96,138l2,0 0,2 -2,0 0,-2z M102,138l2,0 0,2 -2,0 0,-2z M124,138l2,0 0,2 -2,0 0,-2z M126,138l2,0 0,2 -2,0 0,-2z M130,138l2,0 0,2 -2,0 0,-2z M134,138l2,0 0,2 -2,0 0,-2z M136,138l2,0 0,2 -2,0 0,-2z M140,138l2,0 0,2 -2,0 0,-2z M152,138l2,0 0,2 -2,0 0,-2z M156,138l2,0 0,2 -2,0 0,-2z M160,138l2,0 0,2 -2,0 0,-2z M10,140l2,0 0,2 -2,0 0,-2z M16,140l2,0 0,2 -2,0 0,-2z M18,140l2,0 0,2 -2,0 0,-2z M20,140l2,0 0,2 -2,0 0,-2z M24,140l2,0 0,2 -2,0 0,-2z M26,140l2,0 0,2 -2,0 0,-2z M30,140l2,0 0,2 -2,0 0,-2z M34,140l2,0 0,2 -2,0 0,-2z M36,140l2,0 0,2 -2,0 0,-2z M40,140l2,0 0,2 -2,0 0,-2z M42,140l2,0 0,2 -2,0 0,-2z M44,140l2,0 0,2 -2,0 0,-2z M52,140l2,0 0,2 -2,0 0,-2z M54,140l2,0 0,2 -2,0 0,-2z M58,140l2,0 0,2 -2,0 0,-2z M62,140l2,0 0,2 -2,0 0,-2z M64,140l2,0 0,2 -2,0 0,-2z M66,140l2,0 0,2 -2,0 0,-2z M68,140l2,0 0,2 -2,0 0,-2z M70,140l2,0 0,2 -2,0 0,-2z M72,140l2,0 0,2 -2,0 0,-2z M76,140l2,0 0,2 -2,0 0,-2z M80,140l2,0 0,2 -2,0 0,-2z M82,140l2,0 0,2 -2,0 0,-2z M86,140l2,0 0,2 -2,0 0,-2z M92,140l2,0 0,2 -2,0 0,-2z M98,140l2,0 0,2 -2,0 0,-2z M106,140l2,0 0,2 -2,0 0,-2z M108,140l2,0 0,2 -2,0 0,-2z M110,140l2,0 0,2 -2,0 0,-2z M112,140l2,0 0,2 -2,0 0,-2z M114,140l2,0 0,2 -2,0 0,-2z M116,140l2,0 0,2 -2,0 0,-2z M118,140l2,0 0,2 -2,0 0,-2z M120,140l2,0 0,2 -2,0 0,-2z M122,140l2,0 0,2 -2,0 0,-2z M124,140l2,0 0,2 -2,0 0,-2z M134,140l2,0 0,2 -2,0 0,-2z M136,140l2,0 0,2 -2,0 0,-2z M140,140l2,0 0,2 -2,0 0,-2z M146,140l2,0 0,2 -2,0 0,-2z M148,140l2,0 0,2 -2,0 0,-2z M160,140l2,0 0,2 -2,0 0,-2z M16,142l2,0 0,2 -2,0 0,-2z M22,142l2,0 0,2 -2,0 0,-2z M24,142l2,0 0,2 -2,0 0,-2z M28,142l2,0 0,2 -2,0 0,-2z M34,142l2,0 0,2 -2,0 0,-2z M40,142l2,0 0,2 -2,0 0,-2z M42,142l2,0 0,2 -2,0 0,-2z M44,142l2,0 0,2 -2,0 0,-2z M54,142l2,0 0,2 -2,0 0,-2z M56,142l2,0 0,2 -2,0 0,-2z M60,142l2,0 0,2 -2,0 0,-2z M66,142l2,0 0,2 -2,0 0,-2z M68,142l2,0 0,2 -2,0 0,-2z M70,142l2,0 0,2 -2,0 0,-2z M74,142l2,0 0,2 -2,0 0,-2z M78,142l2,0 0,2 -2,0 0,-2z M82,142l2,0 0,2 -2,0 0,-2z M84,142l2,0 0,2 -2,0 0,-2z M86,142l2,0 0,2 -2,0 0,-2z M90,142l2,0 0,2 -2,0 0,-2z M92,142l2,0 0,2 -2,0 0,-2z M98,142l2,0 0,2 -2,0 0,-2z M100,142l2,0 0,2 -2,0 0,-2z M102,142l2,0 0,2 -2,0 0,-2z M104,142l2,0 0,2 -2,0 0,-2z M108,142l2,0 0,2 -2,0 0,-2z M116,142l2,0 0,2 -2,0 0,-2z M128,142l2,0 0,2 -2,0 0,-2z M130,142l2,0 0,2 -2,0 0,-2z M132,142l2,0 0,2 -2,0 0,-2z M134,142l2,0 0,2 -2,0 0,-2z M144,142l2,0 0,2 -2,0 0,-2z M148,142l2,0 0,2 -2,0 0,-2z M150,142l2,0 0,2 -2,0 0,-2z M158,142l2,0 0,2 -2,0 0,-2z M10,144l2,0 0,2 -2,0 0,-2z M12,144l2,0 0,2 -2,0 0,-2z M14,144l2,0 0,2 -2,0 0,-2z M16,144l2,0 0,2 -2,0 0,-2z M20,144l2,0 0,2 -2,0 0,-2z M28,144l2,0 0,2 -2,0 0,-2z M30,144l2,0 0,2 -2,0 0,-2z M34,144l2,0 0,2 -2,0 0,-2z M36,144l2,0 0,2 -2,0 0,-2z M44,144l2,0 0,2 -2,0 0,-2z M46,144l2,0 0,2 -2,0 0,-2z M52,144l2,0 0,2 -2,0 0,-2z M54,144l2,0 0,2 -2,0 0,-2z M56,144l2,0 0,2 -2,0 0,-2z M58,144l2,0 0,2 -2,0 0,-2z M60,144l2,0 0,2 -2,0 0,-2z M62,144l2,0 0,2 -2,0 0,-2z M64,144l2,0 0,2 -2,0 0,-2z M70,144l2,0 0,2 -2,0 0,-2z M72,144l2,0 0,2 -2,0 0,-2z M74,144l2,0 0,2 -2,0 0,-2z M76,144l2,0 0,2 -2,0 0,-2z M80,144l2,0 0,2 -2,0 0,-2z M82,144l2,0 0,2 -2,0 0,-2z M86,144l2,0 0,2 -2,0 0,-2z M92,144l2,0 0,2 -2,0 0,-2z M100,144l2,0 0,2 -2,0 0,-2z M102,144l2,0 0,2 -2,0 0,-2z M104,144l2,0 0,2 -2,0 0,-2z M106,144l2,0 0,2 -2,0 0,-2z M108,144l2,0 0,2 -2,0 0,-2z M112,144l2,0 0,2 -2,0 0,-2z M116,144l2,0 0,2 -2,0 0,-2z M118,144l2,0 0,2 -2,0 0,-2z M122,144l2,0 0,2 -2,0 0,-2z M128,144l2,0 0,2 -2,0 0,-2z M138,144l2,0 0,2 -2,0 0,-2z M140,144l2,0 0,2 -2,0 0,-2z M142,144l2,0 0,2 -2,0 0,-2z M144,144l2,0 0,2 -2,0 0,-2z M146,144l2,0 0,2 -2,0 0,-2z M148,144l2,0 0,2 -2,0 0,-2z M150,144l2,0 0,2 -2,0 0,-2z M152,144l2,0 0,2 -2,0 0,-2z M24,146l2,0 0,2 -2,0 0,-2z M38,146l2,0 0,2 -2,0 0,-2z M40,146l2,0 0,2 -2,0 0,-2z M42,146l2,0 0,2 -2,0 0,-2z M44,146l2,0 0,2 -2,0 0,-2z M48,146l2,0 0,2 -2,0 0,-2z M52,146l2,0 0,2 -2,0 0,-2z M56,146l2,0 0,2 -2,0 0,-2z M64,146l2,0 0,2 -2,0 0,-2z M68,146l2,0 0,2 -2,0 0,-2z M72,146l2,0 0,2 -2,0 0,-2z M78,146l2,0 0,2 -2,0 0,-2z M80,146l2,0 0,2 -2,0 0,-2z M88,146l2,0 0,2 -2,0 0,-2z M90,146l2,0 0,2 -2,0 0,-2z M92,146l2,0 0,2 -2,0 0,-2z M94,146l2,0 0,2 -2,0 0,-2z M98,146l2,0 0,2 -2,0 0,-2z M100,146l2,0 0,2 -2,0 0,-2z M108,146l2,0 0,2 -2,0 0,-2z M112,146l2,0 0,2 -2,0 0,-2z M118,146l2,0 0,2 -2,0 0,-2z M120,146l2,0 0,2 -2,0 0,-2z M126,146l2,0 0,2 -2,0 0,-2z M132,146l2,0 0,2 -2,0 0,-2z M134,146l2,0 0,2 -2,0 0,-2z M136,146l2,0 0,2 -2,0 0,-2z M140,146l2,0 0,2 -2,0 0,-2z M142,146l2,0 0,2 -2,0 0,-2z M144,146l2,0 0,2 -2,0 0,-2z M152,146l2,0 0,2 -2,0 0,-2z M154,146l2,0 0,2 -2,0 0,-2z M156,146l2,0 0,2 -2,0 0,-2z M8,148l2,0 0,2 -2,0 0,-2z M10,148l2,0 0,2 -2,0 0,-2z M12,148l2,0 0,2 -2,0 0,-2z M14,148l2,0 0,2 -2,0 0,-2z M16,148l2,0 0,2 -2,0 0,-2z M18,148l2,0 0,2 -2,0 0,-2z M20,148l2,0 0,2 -2,0 0,-2z M26,148l2,0 0,2 -2,0 0,-2z M28,148l2,0 0,2 -2,0 0,-2z M32,148l2,0 0,2 -2,0 0,-2z M34,148l2,0 0,2 -2,0 0,-2z M36,148l2,0 0,2 -2,0 0,-2z M40,148l2,0 0,2 -2,0 0,-2z M42,148l2,0 0,2 -2,0 0,-2z M46,148l2,0 0,2 -2,0 0,-2z M48,148l2,0 0,2 -2,0 0,-2z M50,148l2,0 0,2 -2,0 0,-2z M56,148l2,0 0,2 -2,0 0,-2z M60,148l2,0 0,2 -2,0 0,-2z M64,148l2,0 0,2 -2,0 0,-2z M66,148l2,0 0,2 -2,0 0,-2z M80,148l2,0 0,2 -2,0 0,-2z M86,148l2,0 0,2 -2,0 0,-2z M88,148l2,0 0,2 -2,0 0,-2z M92,148l2,0 0,2 -2,0 0,-2z M94,148l2,0 0,2 -2,0 0,-2z M96,148l2,0 0,2 -2,0 0,-2z M98,148l2,0 0,2 -2,0 0,-2z M100,148l2,0 0,2 -2,0 0,-2z M104,148l2,0 0,2 -2,0 0,-2z M108,148l2,0 0,2 -2,0 0,-2z M110,148l2,0 0,2 -2,0 0,-2z M112,148l2,0 0,2 -2,0 0,-2z M116,148l2,0 0,2 -2,0 0,-2z M122,148l2,0 0,2 -2,0 0,-2z M132,148l2,0 0,2 -2,0 0,-2z M134,148l2,0 0,2 -2,0 0,-2z M138,148l2,0 0,2 -2,0 0,-2z M140,148l2,0 0,2 -2,0 0,-2z M142,148l2,0 0,2 -2,0 0,-2z M144,148l2,0 0,2 -2,0 0,-2z M148,148l2,0 0,2 -2,0 0,-2z M152,148l2,0 0,2 -2,0 0,-2z M154,148l2,0 0,2 -2,0 0,-2z M156,148l2,0 0,2 -2,0 0,-2z M160,148l2,0 0,2 -2,0 0,-2z M8,150l2,0 0,2 -2,0 0,-2z M20,150l2,0 0,2 -2,0 0,-2z M24,150l2,0 0,2 -2,0 0,-2z M32,150l2,0 0,2 -2,0 0,-2z M34,150l2,0 0,2 -2,0 0,-2z M46,150l2,0 0,2 -2,0 0,-2z M48,150l2,0 0,2 -2,0 0,-2z M50,150l2,0 0,2 -2,0 0,-2z M52,150l2,0 0,2 -2,0 0,-2z M56,150l2,0 0,2 -2,0 0,-2z M64,150l2,0 0,2 -2,0 0,-2z M68,150l2,0 0,2 -2,0 0,-2z M74,150l2,0 0,2 -2,0 0,-2z M80,150l2,0 0,2 -2,0 0,-2z M88,150l2,0 0,2 -2,0 0,-2z M90,150l2,0 0,2 -2,0 0,-2z M94,150l2,0 0,2 -2,0 0,-2z M98,150l2,0 0,2 -2,0 0,-2z M100,150l2,0 0,2 -2,0 0,-2z M108,150l2,0 0,2 -2,0 0,-2z M110,150l2,0 0,2 -2,0 0,-2z M116,150l2,0 0,2 -2,0 0,-2z M120,150l2,0 0,2 -2,0 0,-2z M124,150l2,0 0,2 -2,0 0,-2z M134,150l2,0 0,2 -2,0 0,-2z M136,150l2,0 0,2 -2,0 0,-2z M138,150l2,0 0,2 -2,0 0,-2z M142,150l2,0 0,2 -2,0 0,-2z M144,150l2,0 0,2 -2,0 0,-2z M152,150l2,0 0,2 -2,0 0,-2z M154,150l2,0 0,2 -2,0 0,-2z M158,150l2,0 0,2 -2,0 0,-2z M160,150l2,0 0,2 -2,0 0,-2z M8,152l2,0 0,2 -2,0 0,-2z M12,152l2,0 0,2 -2,0 0,-2z M14,152l2,0 0,2 -2,0 0,-2z M16,152l2,0 0,2 -2,0 0,-2z M20,152l2,0 0,2 -2,0 0,-2z M24,152l2,0 0,2 -2,0 0,-2z M34,152l2,0 0,2 -2,0 0,-2z M36,152l2,0 0,2 -2,0 0,-2z M38,152l2,0 0,2 -2,0 0,-2z M40,152l2,0 0,2 -2,0 0,-2z M46,152l2,0 0,2 -2,0 0,-2z M48,152l2,0 0,2 -2,0 0,-2z M54,152l2,0 0,2 -2,0 0,-2z M56,152l2,0 0,2 -2,0 0,-2z M58,152l2,0 0,2 -2,0 0,-2z M60,152l2,0 0,2 -2,0 0,-2z M62,152l2,0 0,2 -2,0 0,-2z M64,152l2,0 0,2 -2,0 0,-2z M74,152l2,0 0,2 -2,0 0,-2z M80,152l2,0 0,2 -2,0 0,-2z M84,152l2,0 0,2 -2,0 0,-2z M90,152l2,0 0,2 -2,0 0,-2z M92,152l2,0 0,2 -2,0 0,-2z M94,152l2,0 0,2 -2,0 0,-2z M96,152l2,0 0,2 -2,0 0,-2z M98,152l2,0 0,2 -2,0 0,-2z M100,152l2,0 0,2 -2,0 0,-2z M102,152l2,0 0,2 -2,0 0,-2z M104,152l2,0 0,2 -2,0 0,-2z M106,152l2,0 0,2 -2,0 0,-2z M108,152l2,0 0,2 -2,0 0,-2z M110,152l2,0 0,2 -2,0 0,-2z M114,152l2,0 0,2 -2,0 0,-2z M120,152l2,0 0,2 -2,0 0,-2z M122,152l2,0 0,2 -2,0 0,-2z M130,152l2,0 0,2 -2,0 0,-2z M132,152l2,0 0,2 -2,0 0,-2z M136,152l2,0 0,2 -2,0 0,-2z M140,152l2,0 0,2 -2,0 0,-2z M142,152l2,0 0,2 -2,0 0,-2z M144,152l2,0 0,2 -2,0 0,-2z M146,152l2,0 0,2 -2,0 0,-2z M148,152l2,0 0,2 -2,0 0,-2z M150,152l2,0 0,2 -2,0 0,-2z M152,152l2,0 0,2 -2,0 0,-2z M154,152l2,0 0,2 -2,0 0,-2z M158,152l2,0 0,2 -2,0 0,-2z M8,154l2,0 0,2 -2,0 0,-2z M12,154l2,0 0,2 -2,0 0,-2z M14,154l2,0 0,2 -2,0 0,-2z M16,154l2,0 0,2 -2,0 0,-2z M20,154l2,0 0,2 -2,0 0,-2z M30,154l2,0 0,2 -2,0 0,-2z M38,154l2,0 0,2 -2,0 0,-2z M44,154l2,0 0,2 -2,0 0,-2z M46,154l2,0 0,2 -2,0 0,-2z M50,154l2,0 0,2 -2,0 0,-2z M52,154l2,0 0,2 -2,0 0,-2z M54,154l2,0 0,2 -2,0 0,-2z M56,154l2,0 0,2 -2,0 0,-2z M64,154l2,0 0,2 -2,0 0,-2z M66,154l2,0 0,2 -2,0 0,-2z M70,154l2,0 0,2 -2,0 0,-2z M74,154l2,0 0,2 -2,0 0,-2z M80,154l2,0 0,2 -2,0 0,-2z M82,154l2,0 0,2 -2,0 0,-2z M84,154l2,0 0,2 -2,0 0,-2z M86,154l2,0 0,2 -2,0 0,-2z M92,154l2,0 0,2 -2,0 0,-2z M96,154l2,0 0,2 -2,0 0,-2z M98,154l2,0 0,2 -2,0 0,-2z M104,154l2,0 0,2 -2,0 0,-2z M110,154l2,0 0,2 -2,0 0,-2z M112,154l2,0 0,2 -2,0 0,-2z M114,154l2,0 0,2 -2,0 0,-2z M116,154l2,0 0,2 -2,0 0,-2z M126,154l2,0 0,2 -2,0 0,-2z M128,154l2,0 0,2 -2,0 0,-2z M130,154l2,0 0,2 -2,0 0,-2z M142,154l2,0 0,2 -2,0 0,-2z M152,154l2,0 0,2 -2,0 0,-2z M154,154l2,0 0,2 -2,0 0,-2z M156,154l2,0 0,2 -2,0 0,-2z M8,156l2,0 0,2 -2,0 0,-2z M12,156l2,0 0,2 -2,0 0,-2z M14,156l2,0 0,2 -2,0 0,-2z M16,156l2,0 0,2 -2,0 0,-2z M20,156l2,0 0,2 -2,0 0,-2z M30,156l2,0 0,2 -2,0 0,-2z M34,156l2,0 0,2 -2,0 0,-2z M52,156l2,0 0,2 -2,0 0,-2z M54,156l2,0 0,2 -2,0 0,-2z M60,156l2,0 0,2 -2,0 0,-2z M66,156l2,0 0,2 -2,0 0,-2z M70,156l2,0 0,2 -2,0 0,-2z M72,156l2,0 0,2 -2,0 0,-2z M76,156l2,0 0,2 -2,0 0,-2z M78,156l2,0 0,2 -2,0 0,-2z M82,156l2,0 0,2 -2,0 0,-2z M86,156l2,0 0,2 -2,0 0,-2z M88,156l2,0 0,2 -2,0 0,-2z M98,156l2,0 0,2 -2,0 0,-2z M100,156l2,0 0,2 -2,0 0,-2z M108,156l2,0 0,2 -2,0 0,-2z M114,156l2,0 0,2 -2,0 0,-2z M116,156l2,0 0,2 -2,0 0,-2z M118,156l2,0 0,2 -2,0 0,-2z M120,156l2,0 0,2 -2,0 0,-2z M122,156l2,0 0,2 -2,0 0,-2z M126,156l2,0 0,2 -2,0 0,-2z M128,156l2,0 0,2 -2,0 0,-2z M134,156l2,0 0,2 -2,0 0,-2z M136,156l2,0 0,2 -2,0 0,-2z M138,156l2,0 0,2 -2,0 0,-2z M148,156l2,0 0,2 -2,0 0,-2z M152,156l2,0 0,2 -2,0 0,-2z M154,156l2,0 0,2 -2,0 0,-2z M158,156l2,0 0,2 -2,0 0,-2z M160,156l2,0 0,2 -2,0 0,-2z M8,158l2,0 0,2 -2,0 0,-2z M20,158l2,0 0,2 -2,0 0,-2z M24,158l2,0 0,2 -2,0 0,-2z M40,158l2,0 0,2 -2,0 0,-2z M58,158l2,0 0,2 -2,0 0,-2z M60,158l2,0 0,2 -2,0 0,-2z M64,158l2,0 0,2 -2,0 0,-2z M66,158l2,0 0,2 -2,0 0,-2z M76,158l2,0 0,2 -2,0 0,-2z M78,158l2,0 0,2 -2,0 0,-2z M80,158l2,0 0,2 -2,0 0,-2z M82,158l2,0 0,2 -2,0 0,-2z M84,158l2,0 0,2 -2,0 0,-2z M86,158l2,0 0,2 -2,0 0,-2z M88,158l2,0 0,2 -2,0 0,-2z M92,158l2,0 0,2 -2,0 0,-2z M96,158l2,0 0,2 -2,0 0,-2z M100,158l2,0 0,2 -2,0 0,-2z M102,158l2,0 0,2 -2,0 0,-2z M106,158l2,0 0,2 -2,0 0,-2z M110,158l2,0 0,2 -2,0 0,-2z M112,158l2,0 0,2 -2,0 0,-2z M114,158l2,0 0,2 -2,0 0,-2z M120,158l2,0 0,2 -2,0 0,-2z M130,158l2,0 0,2 -2,0 0,-2z M132,158l2,0 0,2 -2,0 0,-2z M134,158l2,0 0,2 -2,0 0,-2z M140,158l2,0 0,2 -2,0 0,-2z M146,158l2,0 0,2 -2,0 0,-2z M148,158l2,0 0,2 -2,0 0,-2z M150,158l2,0 0,2 -2,0 0,-2z M152,158l2,0 0,2 -2,0 0,-2z M158,158l2,0 0,2 -2,0 0,-2z M160,158l2,0 0,2 -2,0 0,-2z M8,160l2,0 0,2 -2,0 0,-2z M10,160l2,0 0,2 -2,0 0,-2z M12,160l2,0 0,2 -2,0 0,-2z M14,160l2,0 0,2 -2,0 0,-2z M16,160l2,0 0,2 -2,0 0,-2z M18,160l2,0 0,2 -2,0 0,-2z M20,160l2,0 0,2 -2,0 0,-2z M24,160l2,0 0,2 -2,0 0,-2z M28,160l2,0 0,2 -2,0 0,-2z M30,160l2,0 0,2 -2,0 0,-2z M36,160l2,0 0,2 -2,0 0,-2z M40,160l2,0 0,2 -2,0 0,-2z M46,160l2,0 0,2 -2,0 0,-2z M50,160l2,0 0,2 -2,0 0,-2z M56,160l2,0 0,2 -2,0 0,-2z M58,160l2,0 0,2 -2,0 0,-2z M60,160l2,0 0,2 -2,0 0,-2z M66,160l2,0 0,2 -2,0 0,-2z M68,160l2,0 0,2 -2,0 0,-2z M72,160l2,0 0,2 -2,0 0,-2z M76,160l2,0 0,2 -2,0 0,-2z M78,160l2,0 0,2 -2,0 0,-2z M80,160l2,0 0,2 -2,0 0,-2z M84,160l2,0 0,2 -2,0 0,-2z M86,160l2,0 0,2 -2,0 0,-2z M88,160l2,0 0,2 -2,0 0,-2z M94,160l2,0 0,2 -2,0 0,-2z M96,160l2,0 0,2 -2,0 0,-2z M98,160l2,0 0,2 -2,0 0,-2z M100,160l2,0 0,2 -2,0 0,-2z M106,160l2,0 0,2 -2,0 0,-2z M108,160l2,0 0,2 -2,0 0,-2z M112,160l2,0 0,2 -2,0 0,-2z M116,160l2,0 0,2 -2,0 0,-2z M118,160l2,0 0,2 -2,0 0,-2z M120,160l2,0 0,2 -2,0 0,-2z M122,160l2,0 0,2 -2,0 0,-2z M128,160l2,0 0,2 -2,0 0,-2z M134,160l2,0 0,2 -2,0 0,-2z M138,160l2,0 0,2 -2,0 0,-2z M144,160l2,0 0,2 -2,0 0,-2z M146,160l2,0 0,2 -2,0 0,-2z M148,160l2,0 0,2 -2,0 0,-2z M150,160l2,0 0,2 -2,0 0,-2z M156,160l2,0 0,2 -2,0 0,-2z M158,160l2,0 0,2 -2,0 0,-2z " stroke="transparent" fill="black"></path></svg>