<svg width="20" height="20" viewBox="0 0 20 20" fill="none" xmlns="http://www.w3.org/2000/svg">
<circle cx="10" cy="10" r="10" fill="#B5FFDB"/>
<g clip-path="url(#clip0_5608_7170)">
<path d="M10.1005 5.75891C9.24428 5.75891 8.42311 6.09905 7.81765 6.70451L7.69105 6.8311C7.0856 7.43656 6.74546 8.25774 6.74546 9.11396V9.70681C6.74546 10.7966 6.31254 11.8417 5.54195 12.6123C5.40817 12.7461 5.33301 12.9275 5.33301 13.1167C5.33301 13.5107 5.65238 13.8301 6.04634 13.8301H14.3051C14.699 13.8301 15.0184 13.5107 15.0184 13.1167C15.0184 12.9275 14.9432 12.7461 14.8094 12.6123C14.0388 11.8417 13.6059 10.7966 13.6059 9.70681V9.11396C13.6059 8.25774 13.2658 7.43656 12.6603 6.8311L12.5337 6.70451C11.9283 6.09905 11.1071 5.75891 10.2509 5.75891H10.1005Z" stroke="#111111" stroke-linecap="round" stroke-linejoin="round"/>
<path d="M11.4354 13.83C11.5247 14.0159 11.5733 14.2222 11.5733 14.4354C11.5733 14.9348 11.3068 15.3963 10.8743 15.6461C10.4418 15.8958 9.90886 15.8958 9.47632 15.6461C9.04379 15.3963 8.77734 14.9348 8.77734 14.4354C8.77734 14.2222 8.82589 14.0159 8.9152 13.83" stroke="#111111" stroke-linecap="round" stroke-linejoin="round"/>
<path d="M10.4777 5.75889C10.5334 5.75889 10.5786 5.71371 10.5786 5.658V5.15356C10.5786 4.93067 10.3979 4.75 10.175 4.75C9.95216 4.75 9.77148 4.93067 9.77148 5.15356V5.658C9.77148 5.71371 9.81666 5.75889 9.87237 5.75889" stroke="#111111" stroke-linecap="round" stroke-linejoin="round"/>
</g>
<defs>
<clipPath id="clip0_5608_7170">
<rect width="14" height="14" fill="white" transform="translate(3 3)"/>
</clipPath>
</defs>
</svg>
