<svg width="484" height="323" viewBox="0 0 484 323" fill="none" xmlns="http://www.w3.org/2000/svg">
<rect width="484" height="323" fill="#030B1F"/>
<path d="M267.011 117.094C274.762 119.844 282.192 123.947 288.94 129.541C306.856 144.32 316.202 165.952 316.202 187.77" stroke="white" stroke-miterlimit="10"/>
<g filter="url(#filter0_d_134_735)">
<path fill-rule="evenodd" clip-rule="evenodd" d="M251.725 115.523C256.662 116.133 261.559 117.279 266.34 118.979L267.68 115.21C256.756 111.326 245.273 110.177 234.032 111.566L234.032 111.567C220.563 113.234 207.383 118.643 196.038 127.997C177.585 143.132 168.047 165.344 168 187.766L172 187.775C172.044 166.468 181.106 145.417 198.576 131.088L198.58 131.085C214.143 118.254 233.329 113.27 251.724 115.536L251.725 115.523Z" fill="url(#paint0_linear_134_735)"/>
</g>
<path d="M275.856 154.017L239.34 196.162" stroke="white" stroke-miterlimit="10"/>
<path d="M239.34 212.059C247.926 212.059 254.886 204.942 254.886 196.162C254.886 187.382 247.926 180.264 239.34 180.264C230.754 180.264 223.794 187.382 223.794 196.162C223.794 204.942 230.754 212.059 239.34 212.059Z" fill="#404040"/>
<defs>
<filter id="filter0_d_134_735" x="164.01" y="110.55" width="104.12" height="81.2147" filterUnits="userSpaceOnUse" color-interpolation-filters="sRGB">
<feFlood flood-opacity="0" result="BackgroundImageFix"/>
<feColorMatrix in="SourceAlpha" type="matrix" values="0 0 0 0 0 0 0 0 0 0 0 0 0 0 0 0 0 0 127 0" result="hardAlpha"/>
<feOffset dx="-1.77" dy="1.77"/>
<feGaussianBlur stdDeviation="1.11"/>
<feColorMatrix type="matrix" values="0 0 0 0 0 0 0 0 0 0 0 0 0 0 0 0 0 0 0.15 0"/>
<feBlend mode="normal" in2="BackgroundImageFix" result="effect1_dropShadow_134_735"/>
<feBlend mode="normal" in="SourceGraphic" in2="effect1_dropShadow_134_735" result="shape"/>
</filter>
<linearGradient id="paint0_linear_134_735" x1="168" y1="149.395" x2="267.68" y2="149.395" gradientUnits="userSpaceOnUse">
<stop stop-color="#93F5EB"/>
<stop offset="1" stop-color="#1AA3FF"/>
</linearGradient>
</defs>
</svg>
