<svg width="177" height="40" viewBox="0 0 177 40" fill="none" xmlns="http://www.w3.org/2000/svg">
<g clip-path="url(#clip0_30_315)">
<path d="M49.8336 20.0172C49.8336 12.3536 54.9319 7.31604 62.5045 7.31604C68.8751 7.31604 73.062 10.8646 73.6432 16.1167H68.655C68.2191 13.2761 65.9253 11.431 62.5001 11.431C57.9125 11.431 54.8174 14.838 54.8174 20.0172C54.8174 25.1963 57.9477 28.6033 62.6101 28.6033C66.4669 28.6033 69.0556 26.2948 69.3066 22.9951H61.6636V19.1976H73.8941V32.4308H69.3066V29.5902C68.2147 31.401 65.4498 32.714 62.3548 32.714C55.5086 32.714 49.8336 28.2086 49.8336 20.0129V20.0172Z" fill="#010B20"/>
<path d="M78.0811 7.59921H95.3747V11.7142H83.034V17.4598H93.0105V21.5748H83.034V28.3158H95.52V32.4308H78.0811V7.59921Z" fill="#010B20"/>
<path d="M99.7466 7.59922H109.177C113.289 7.59922 116.314 10.0837 116.314 13.6666C116.314 16.3613 114.24 18.5969 111.982 19.0946C114.857 19.558 117.406 22.1455 117.406 25.3765C117.406 29.5301 113.91 32.4394 109.212 32.4394H99.7466V7.59922ZM108.922 18.1721C111.726 18.1721 113.945 16.3999 113.945 13.8811C113.945 11.3624 111.726 9.6932 108.922 9.6932H102.186V18.1721H108.922ZM109.032 30.3411C112.417 30.3411 114.967 28.2128 114.967 25.2693C114.967 22.3257 112.417 20.2317 109.032 20.2317H102.186V30.3454H109.032V30.3411ZM121.593 14.5505H123.886V18.5582C124.798 15.9322 127.091 14.2673 129.746 14.2673C130.512 14.2673 131.349 14.4089 131.93 14.6921V16.8204C130.983 16.4643 130.182 16.3613 129.491 16.3613C126.215 16.3613 123.882 19.6953 123.882 25.2693V32.4351H121.588V14.5505H121.593ZM133.317 27.7151C133.317 24.0592 135.901 22.3557 141.871 21.755L146.023 21.3302V20.5492C146.023 17.9232 143.984 16.2583 141.035 16.2583C138.085 16.2583 136.227 17.8545 135.831 20.5492H133.462C133.973 17.0736 136.738 14.2673 141.035 14.2673C145.332 14.2673 148.317 16.7861 148.317 20.7252V32.4351H146.023V28.7449C145.367 30.9805 142.672 32.7183 139.652 32.7183C135.756 32.7183 133.317 30.7659 133.317 27.7151ZM139.798 30.7316C143.509 30.7316 146.023 27.9983 146.023 24.0592V23.1367L142.016 23.5615C137.539 24.0592 135.646 25.0504 135.646 27.6421C135.646 29.5216 137.248 30.7273 139.798 30.7273V30.7316ZM154.577 7.2774C155.599 7.2774 156.325 7.98541 156.325 8.94657C156.325 9.90774 155.599 10.5814 154.577 10.5814C153.556 10.5814 152.829 9.87341 152.829 8.94657C152.829 8.01974 153.556 7.2774 154.577 7.2774ZM153.411 14.5505H155.74V32.4351H153.411V14.5505ZM161.093 14.5505H163.387V18.5582C164.479 16.1124 167.028 14.2673 170.378 14.2673C174.2 14.2673 177.004 16.5372 177.004 20.6522V32.4308H174.675V21.1113C174.675 17.9189 172.857 16.2841 169.978 16.2841C165.971 16.2841 163.387 19.6567 163.387 24.8015V32.4308H161.093V14.5462V14.5505Z" fill="#010B20"/>
<path d="M41.0416 38.1506V1.84939C41.0416 0.828148 40.1918 0 39.144 0H1.89754C0.849713 0 0 0.828148 0 1.84939V38.1463C0 39.1676 0.849713 39.9957 1.89754 39.9957H39.1396C40.1874 39.9957 41.0372 39.1676 41.0372 38.1463L41.0416 38.1506Z" fill="#010B20"/>
<path d="M35.5603 27.5134H32.9055C32.9055 20.8582 27.3493 15.4431 20.5208 15.4431C13.6923 15.4431 8.13613 20.8582 8.13613 27.5134H5.48132C5.48132 19.4336 12.2262 12.8556 20.5208 12.8556C28.8154 12.8556 35.5603 19.4293 35.5603 27.5134Z" fill="url(#paint0_linear_30_315)"/>
</g>
<defs>
<linearGradient id="paint0_linear_30_315" x1="35.5603" y1="20.1845" x2="5.48132" y2="20.1845" gradientUnits="userSpaceOnUse">
<stop stop-color="#93F5EB"/>
<stop offset="1" stop-color="#1AA3FF"/>
</linearGradient>
<clipPath id="clip0_30_315">
<rect width="177" height="40" fill="white"/>
</clipPath>
</defs>
</svg>
