<svg width="484" height="323" viewBox="0 0 484 323" fill="none" xmlns="http://www.w3.org/2000/svg">
<rect width="484" height="323" fill="#030B1F"/>
<path d="M301.155 205.931H233.898" stroke="white" stroke-miterlimit="10"/>
<path d="M178.905 147.065V95.6452C178.905 93.6287 180.484 92 182.44 92H314.133C316.089 92 317.669 93.6287 317.669 95.6452V147.065" stroke="white" stroke-miterlimit="10"/>
<path d="M179.092 105.728H317.443" stroke="white" stroke-miterlimit="10"/>
<path d="M185.35 101.205C186.364 101.205 187.185 100.358 187.185 99.3133C187.185 98.2687 186.364 97.4219 185.35 97.4219C184.337 97.4219 183.516 98.2687 183.516 99.3133C183.516 100.358 184.337 101.205 185.35 101.205Z" fill="white"/>
<path d="M191.205 101.205C192.219 101.205 193.04 100.358 193.04 99.3133C193.04 98.2687 192.219 97.4219 191.205 97.4219C190.192 97.4219 189.371 98.2687 189.371 99.3133C189.371 100.358 190.192 101.205 191.205 101.205Z" fill="#31363D"/>
<path d="M197.062 101.205C198.075 101.205 198.896 100.358 198.896 99.3133C198.896 98.2687 198.075 97.4219 197.062 97.4219C196.048 97.4219 195.227 98.2687 195.227 99.3133C195.227 100.358 196.048 101.205 197.062 101.205Z" fill="#31363D"/>
<path d="M176.759 192.436C186.201 190.459 196.959 182.781 205.046 173.164C213.134 163.547 217.008 155.442 222.162 147.027C229.421 135.083 239.314 128.879 250.712 129.615C262.11 130.352 268.805 139.737 274.034 147.919C278.661 155.132 282.422 162.577 288.629 169.867C301.832 185.379 311.311 192.514 331.398 192.049" stroke="url(#paint0_linear_134_759)" stroke-miterlimit="10"/>
<path d="M137 149.664V217.72C137 219.155 138.128 220.318 139.52 220.318H231.378C232.77 220.318 233.898 219.155 233.898 217.72V149.664C233.898 148.229 232.77 147.066 231.378 147.066H139.52C138.128 147.066 137 148.229 137 149.664Z" stroke="white" stroke-miterlimit="10"/>
<path d="M144.297 185.998C145.543 185.998 146.554 184.957 146.554 183.672C146.554 182.387 145.543 181.345 144.297 181.345C143.05 181.345 142.04 182.387 142.04 183.672C142.04 184.957 143.05 185.998 144.297 185.998Z" fill="white"/>
<path d="M344.64 147.065H302.999C301.981 147.065 301.156 147.916 301.156 148.966V228.19C301.156 229.239 301.981 230.09 302.999 230.09H344.64C345.658 230.09 346.483 229.239 346.483 228.19V148.966C346.483 147.916 345.658 147.065 344.64 147.065Z" stroke="white" stroke-miterlimit="10"/>
<path d="M317.255 154.821H330.345" stroke="white" stroke-miterlimit="10"/>
<path d="M323.801 224.545C324.881 224.545 325.757 223.642 325.757 222.528C325.757 221.415 324.881 220.512 323.801 220.512C322.72 220.512 321.845 221.415 321.845 222.528C321.845 223.642 322.72 224.545 323.801 224.545Z" fill="white"/>
<defs>
<linearGradient id="paint0_linear_134_759" x1="176.759" y1="161.003" x2="331.398" y2="161.003" gradientUnits="userSpaceOnUse">
<stop stop-color="#93F5EB"/>
<stop offset="1" stop-color="#1AA3FF"/>
</linearGradient>
</defs>
</svg>
