<svg width="484" height="323" viewBox="0 0 484 323" fill="none" xmlns="http://www.w3.org/2000/svg">
<rect width="484" height="323" fill="#030B1F"/>
<g clip-path="url(#clip0_134_801)">
<g opacity="0.7">
<path d="M256.926 173.858C257.353 173.16 257.577 172.759 257.585 172.737C258.917 170.316 261.984 169.417 264.424 170.746C266.863 172.068 267.768 175.106 266.437 177.527C266.197 177.965 260.428 188.392 249.526 199.02C234.883 213.309 217.883 221.136 200.359 221.656C198.915 221.701 197.59 221.136 196.64 220.193C195.764 219.324 195.203 218.129 195.166 216.807C195.084 214.044 197.268 211.734 200.052 211.653C215.122 211.207 229.316 204.62 242.246 192.083C247.162 187.315 250.963 182.54 253.552 178.923L256.919 173.858H256.926Z" stroke="#989898" stroke-width="0.3" stroke-miterlimit="10" stroke-linecap="round"/>
<path d="M244.782 173.88C247.356 170.368 248.733 167.939 248.763 167.895C252.744 160.676 261.94 158.002 269.25 161.961C270.522 162.651 271.682 163.513 272.707 164.523C276.201 167.991 277.683 172.908 276.92 177.594" stroke="#989898" stroke-width="0.3" stroke-miterlimit="10" stroke-linecap="round"/>
<path d="M180.485 212.455C181.241 208.912 182.969 205.637 185.528 202.934C189.225 199.042 194.223 196.807 199.603 196.651C210.759 196.316 221.549 191.17 231.68 181.344C239.492 173.769 244.109 165.867 244.356 165.451C246.93 160.809 251.112 157.579 255.841 156.079C255.841 156.079 258.58 155.336 259.987 155.225C264.184 154.89 267.955 155.566 271.659 157.571C273.35 158.485 274.907 159.636 276.268 160.988C282.539 167.211 283.96 176.962 279.725 184.701C279.441 185.221 272.625 197.542 260.129 209.729C242.717 226.714 222.207 236.027 200.808 236.666C196.251 236.799 191.769 235.373 188.147 232.7" stroke="#989898" stroke-width="0.3" stroke-miterlimit="10" stroke-linecap="round"/>
<path d="M179.602 194.668C184.975 189.692 191.896 186.862 199.304 186.639C204.526 186.484 209.734 184.857 214.89 181.79L219.087 178.96C220.951 177.557 222.799 175.96 224.639 174.178C231.231 167.791 235.22 161.129 235.579 160.512C243.608 146.164 261.947 140.891 276.493 148.771C279.03 150.145 281.357 151.868 283.399 153.895C292.812 163.238 294.945 177.861 288.585 189.469C288.585 189.469 280.421 205.384 267.2 216.859C246.877 234.497 225.096 245.949 201.114 246.662" stroke="#989898" stroke-width="0.3" stroke-miterlimit="10" stroke-linecap="round"/>
<path d="M181.742 181.04C187.025 178.336 192.891 176.821 199.004 176.636C204.945 176.457 211.201 173.227 217.598 167.018C223.016 161.767 226.473 156.138 226.839 155.529C237.577 136.495 262.007 129.521 281.327 139.985C282.374 140.549 283.399 141.166 284.387 141.819L287.582 144.166C288.607 144.998 289.595 145.889 290.53 146.818C303.078 159.272 305.922 178.775 297.444 194.252C297.249 194.608 294.443 199.681 289.318 206.632L284.282 213.078C281.387 216.584 278.034 220.312 274.263 223.996C257.233 240.609 237.532 251.177 216.596 255.047" stroke="#989898" stroke-width="0.3" stroke-miterlimit="10" stroke-linecap="round"/>
<path d="M185.596 168.734C189.801 167.479 194.193 166.766 198.698 166.632C201.982 166.536 206.075 164.196 210.542 159.859C214.8 155.737 217.651 151.244 218.13 150.479C221.025 145.392 224.707 140.995 228.949 137.364" stroke="#989898" stroke-width="0.3" stroke-miterlimit="10" stroke-linecap="round"/>
<path d="M233.461 133.925C248.643 123.639 269.033 121.931 286.16 131.207C290.388 133.494 294.264 136.368 297.668 139.755C313.352 155.321 316.906 179.703 306.311 199.049C305.937 199.733 297.017 215.863 281.349 231.148C268.906 243.29 255.101 252.462 240.427 258.455" stroke="#989898" stroke-width="0.3" stroke-miterlimit="10" stroke-linecap="round"/>
<path d="M321.68 184.812C320.625 191.363 318.47 197.794 315.163 203.825C314.759 204.56 305.144 221.953 288.405 238.277C283.467 243.097 278.326 247.479 273.006 251.422" stroke="#989898" stroke-width="0.3" stroke-miterlimit="10" stroke-linecap="round"/>
<path d="M190.848 157.319C193.25 156.948 195.697 156.725 198.159 156.643C198.78 156.443 200.673 155.44 203.494 152.707C205.641 150.628 207.385 148.355 208.44 146.877L211.35 142.295C228.373 116.405 263.286 107.419 290.987 122.421C296.06 125.169 300.706 128.622 304.792 132.677C317.145 144.939 323.229 161.753 322.353 178.418" stroke="#989898" stroke-width="0.3" stroke-miterlimit="10" stroke-linecap="round"/>
</g>
<path d="M197.695 160.728C205.902 160.728 212.555 154.124 212.555 145.978C212.555 137.833 205.902 131.229 197.695 131.229C189.488 131.229 182.835 137.833 182.835 145.978C182.835 154.124 189.488 160.728 197.695 160.728Z" fill="#282828"/>
<path d="M183.897 188.979H183.62C166.111 188.979 150.525 197.378 141.457 211.147C150.593 225.072 166.336 233.643 183.905 233.643H184.182C201.691 233.643 217.277 225.243 226.345 211.474C217.209 197.549 201.466 188.979 183.897 188.979Z" fill="black" stroke="white" stroke-miterlimit="10"/>
<path d="M171.125 211.095V211.029C171.125 204.278 176.37 198.626 183.792 198.626C191.215 198.626 196.393 204.211 196.393 210.954V211.021C196.393 217.772 191.148 223.424 183.725 223.424C176.302 223.424 171.125 217.839 171.125 211.095Z" fill="url(#paint0_linear_134_801)"/>
<path d="M304.897 231.37L302.644 234.311V234.356L306.221 233.888V235.485L302.644 235.061V235.106L304.919 237.928L303.43 238.775L302.008 235.485H301.964L300.422 238.797L299.075 237.95L301.327 235.084V235.039L297.826 235.485V233.888L301.305 234.334V234.289L299.075 231.422L300.519 230.598L301.986 233.866H302.031L303.475 230.576L304.897 231.378V231.37Z" fill="white"/>
<path d="M321.253 231.37L319.001 234.311V234.356L322.578 233.888V235.485L319.001 235.061V235.106L321.276 237.928L319.787 238.775L318.365 235.485H318.32L316.779 238.797L315.432 237.95L317.684 235.084V235.039L314.182 235.485V233.888L317.662 234.334V234.289L315.432 231.422L316.876 230.598L318.343 233.866H318.388L319.832 230.576L321.253 231.378V231.37Z" fill="white"/>
<path d="M335.418 231.37L333.165 234.311V234.356L336.742 233.888V235.485L333.165 235.061V235.106L335.44 237.928L333.951 238.775L332.529 235.485H332.484L330.943 238.797L329.596 237.95L331.848 235.084V235.039L328.347 235.485V233.888L331.826 234.334V234.289L329.596 231.422L331.04 230.598L332.507 233.866H332.552L333.996 230.576L335.418 231.378V231.37Z" fill="white"/>
<path fill-rule="evenodd" clip-rule="evenodd" d="M269.707 250.412V205.109C278.947 200.854 285.352 191.563 285.352 180.787C285.352 165.978 273.261 153.977 258.341 153.977C243.421 153.977 231.329 165.978 231.329 180.787C231.329 190.65 236.694 199.257 244.685 203.914V212.581L250.806 218.656L244.685 224.731V225.087L250.806 231.162L244.685 237.237V237.594L250.806 243.669L244.685 249.744V251.095L253.08 259.978H262.583L269.692 250.39L269.707 250.412ZM248.396 180.2C248.396 174.749 252.849 170.33 258.341 170.33C263.833 170.33 268.285 174.749 268.285 180.2C268.285 185.652 263.833 190.07 258.341 190.07C252.849 190.07 248.396 185.652 248.396 180.2Z" fill="url(#paint1_linear_134_801)"/>
<path d="M235.803 92.7959V84.3518C235.803 72.7588 245.269 63.364 256.949 63.364C268.629 63.364 278.094 72.7588 278.094 84.3518V92.7959" stroke="url(#paint2_linear_134_801)" stroke-miterlimit="10"/>
<path d="M227.49 90.5977H286.407V134.987C286.407 139.383 282.816 142.948 278.386 142.948H235.511C231.082 142.948 227.49 139.383 227.49 134.987V90.5977Z" fill="white"/>
<path d="M265.442 110.063C265.442 105.407 261.64 101.634 256.949 101.634C252.257 101.634 248.456 105.407 248.456 110.063C248.456 112.38 249.399 114.482 250.933 116.012V124.04C250.933 127.226 253.559 129.833 256.769 129.833H257.129C260.338 129.833 262.965 127.226 262.965 124.04V116.012C264.491 114.489 265.442 112.388 265.442 110.063Z" fill="#030B1F"/>
<path d="M320.55 205.117C346.297 197.156 343.776 164.709 343.379 160.899C343.042 156.383 330.068 160.111 320.55 150.071C311.032 160.111 298.058 156.383 297.721 160.899C297.324 164.716 294.803 197.163 320.55 205.117Z" fill="black" stroke="url(#paint3_linear_134_801)" stroke-miterlimit="10"/>
<path d="M333.607 167.969L318.238 183.223L310.726 175.774" stroke="url(#paint4_linear_134_801)" stroke-miterlimit="10"/>
<path d="M204.669 141.329L195.301 150.628L190.729 146.09" stroke="url(#paint5_linear_134_801)" stroke-miterlimit="10"/>
</g>
<defs>
<linearGradient id="paint0_linear_134_801" x1="171.125" y1="211.027" x2="196.393" y2="211.027" gradientUnits="userSpaceOnUse">
<stop stop-color="#93F5EB"/>
<stop offset="1" stop-color="#1AA3FF"/>
</linearGradient>
<linearGradient id="paint1_linear_134_801" x1="231.329" y1="206.988" x2="285.352" y2="206.988" gradientUnits="userSpaceOnUse">
<stop stop-color="#93F5EB"/>
<stop offset="1" stop-color="#1AA3FF"/>
</linearGradient>
<linearGradient id="paint2_linear_134_801" x1="235.803" y1="78.0829" x2="278.094" y2="78.0829" gradientUnits="userSpaceOnUse">
<stop stop-color="#93F5EB"/>
<stop offset="1" stop-color="#1AA3FF"/>
</linearGradient>
<linearGradient id="paint3_linear_134_801" x1="297.471" y1="177.599" x2="343.629" y2="177.599" gradientUnits="userSpaceOnUse">
<stop stop-color="#93F5EB"/>
<stop offset="1" stop-color="#1AA3FF"/>
</linearGradient>
<linearGradient id="paint4_linear_134_801" x1="310.726" y1="175.597" x2="333.607" y2="175.597" gradientUnits="userSpaceOnUse">
<stop stop-color="#93F5EB"/>
<stop offset="1" stop-color="#1AA3FF"/>
</linearGradient>
<linearGradient id="paint5_linear_134_801" x1="190.729" y1="145.979" x2="204.669" y2="145.979" gradientUnits="userSpaceOnUse">
<stop stop-color="#93F5EB"/>
<stop offset="1" stop-color="#1AA3FF"/>
</linearGradient>
<clipPath id="clip0_134_801">
<rect width="203" height="197" fill="white" transform="translate(141 63)"/>
</clipPath>
</defs>
</svg>
