<svg width="175" height="51" viewBox="0 0 175 51" fill="none" xmlns="http://www.w3.org/2000/svg">
<path d="M9.17492 28.42C11.3232 28.005 13.5457 28.2195 15.5753 29.0372C16.2624 29.3148 16.9205 29.6599 17.5402 30.0665C18.1779 30.4858 18.7719 30.9681 19.3136 31.506L19.3194 31.5109L19.6261 31.8321C19.6819 31.8904 19.7129 31.9682 19.712 32.0489C19.7111 32.1298 19.6785 32.2078 19.6212 32.2648L17.1896 34.6827C17.1318 34.7405 17.0534 34.7735 16.9718 34.7735C16.8902 34.7735 16.8117 34.7404 16.754 34.6827L16.4415 34.3702C15.4256 33.3374 14.1215 32.6364 12.7003 32.3595C11.3306 32.0913 9.91238 32.2256 8.6173 32.7462C7.50768 33.1927 6.52662 33.909 5.76281 34.8302C4.99897 35.7513 4.47642 36.8486 4.2423 38.0226C3.96797 39.3954 4.09724 40.8186 4.61437 42.1192C4.971 43.0154 5.5043 43.8301 6.18273 44.5148L6.213 44.545C7.23287 45.5608 8.53263 46.2492 9.94542 46.5216C11.3216 46.7875 12.7457 46.6499 14.046 46.1261C14.9416 45.7648 15.7553 45.2272 16.4396 44.545L16.7521 44.2355C16.8098 44.1779 16.8884 44.1456 16.9698 44.1456C17.0512 44.1456 17.1289 44.178 17.1866 44.2355L19.6232 46.6603C19.6518 46.6888 19.675 46.7234 19.6905 46.7609C19.706 46.7982 19.714 46.8384 19.714 46.879C19.714 46.9192 19.7061 46.9598 19.6905 46.9972C19.675 47.0349 19.6518 47.0683 19.6232 47.0968L19.3185 47.4093C18.7754 47.9528 18.1789 48.4407 17.5382 48.8644C16.3019 49.6818 14.9168 50.2478 13.462 50.5294C12.7483 50.6674 12.023 50.737 11.296 50.7374C9.84934 50.7378 8.41548 50.4611 7.07238 49.923C6.38839 49.6486 5.73198 49.3081 5.11437 48.9054C4.47875 48.4906 3.88592 48.0122 3.34484 47.4796C2.29165 46.4434 1.45411 45.2088 0.879995 43.8468C0.305804 42.4846 0.00676916 41.0216 0.000111846 39.5431C-0.00648831 38.0647 0.279084 36.5997 0.840932 35.2325C1.40279 33.8653 2.22963 32.6231 3.27355 31.5773L3.34581 31.505C3.88715 30.9674 4.481 30.4856 5.11828 30.0665C6.35007 29.2581 7.72849 28.6982 9.17492 28.42ZM144.633 28.42C146.781 28.0049 149.003 28.219 151.032 29.0362C151.719 29.3135 152.378 29.6582 152.997 30.0646C153.634 30.4829 154.227 30.9635 154.769 31.5001L155.09 31.8038C155.12 31.8322 155.145 31.8666 155.161 31.9044C155.178 31.9422 155.186 31.9832 155.187 32.0245C155.187 32.0658 155.179 32.1064 155.163 32.1446C155.148 32.1828 155.125 32.2181 155.096 32.2472L152.649 34.6837C152.591 34.7414 152.512 34.7745 152.431 34.7745C152.349 34.7744 152.272 34.7413 152.214 34.6837L151.901 34.3712C151.23 33.6955 150.43 33.1595 149.55 32.795C148.67 32.4306 147.726 32.245 146.774 32.2482H146.77C145.347 32.2421 143.955 32.6582 142.77 33.4444C141.584 34.2308 140.658 35.3517 140.109 36.6651C139.56 37.9786 139.413 39.426 139.686 40.8234C139.958 42.2204 140.639 43.5051 141.642 44.5148L141.674 44.545C142.879 45.7419 144.465 46.479 146.155 46.6271C147.846 46.775 149.535 46.3246 150.929 45.3556V41.4845H146.347C146.265 41.4845 146.187 41.4515 146.129 41.3937C146.071 41.3359 146.039 41.2576 146.039 41.1759V37.7433C146.039 37.6615 146.071 37.5834 146.129 37.5255C146.187 37.4676 146.265 37.4347 146.347 37.4347H154.688C154.769 37.4347 154.847 37.4676 154.905 37.5255C154.963 37.5834 154.996 37.6615 154.996 37.7433V47.0616C154.996 47.1022 154.987 47.1424 154.972 47.1798C154.956 47.2173 154.934 47.251 154.905 47.2794L154.777 47.4083C153.727 48.4675 152.477 49.3068 151.1 49.878C149.723 50.4497 148.245 50.7412 146.755 50.7364H146.71C144.493 50.7368 142.325 50.0798 140.48 48.8487C138.634 47.6182 137.194 45.8682 136.341 43.8194C135.488 41.771 135.259 39.5145 135.685 37.336C136.11 35.1576 137.171 33.1537 138.732 31.5773L138.804 31.505C139.345 30.9676 139.94 30.4864 140.577 30.0675C141.809 29.2588 143.187 28.6987 144.633 28.42ZM34.1925 28.215C35.6677 28.2136 37.1289 28.5027 38.4923 29.0665C39.8557 29.6304 41.0949 30.4579 42.1388 31.5011C43.183 32.5442 44.0117 33.7829 44.5773 35.1466C45.1433 36.5104 45.435 37.9726 45.4366 39.4493C45.4378 40.926 45.1482 42.3885 44.5851 43.753C44.0219 45.118 43.1958 46.3592 42.1534 47.4044C41.1116 48.4495 39.8741 49.2794 38.5118 49.8458C37.1494 50.4122 35.6882 50.7036 34.213 50.7052H34.1788C33.4189 50.7052 32.6607 50.6287 31.9161 50.4767C30.479 50.1822 29.1137 49.6066 27.8985 48.7843C26.0925 47.5637 24.6783 45.8453 23.8282 43.837C23.5409 43.1568 23.3221 42.4494 23.1739 41.7257C22.8697 40.2303 22.8696 38.6888 23.1739 37.1935C23.4683 35.755 24.0427 34.3884 24.8644 33.172C26.0836 31.3643 27.8004 29.9496 29.8068 29.0987C30.4864 28.8111 31.1932 28.5908 31.9161 28.4425C32.661 28.2905 33.4196 28.2148 34.1798 28.215H34.1925ZM174.692 28.4982C174.773 28.4982 174.851 28.5304 174.909 28.588C174.967 28.6459 174.999 28.7249 174.999 28.8067V32.2394C174.999 32.2798 174.992 32.3201 174.977 32.3575C174.961 32.395 174.938 32.4294 174.909 32.4581C174.881 32.4866 174.847 32.509 174.81 32.5245C174.772 32.5401 174.732 32.5489 174.692 32.5489H163.313V36.1583H172.126C172.208 36.1583 172.286 36.1913 172.344 36.2491C172.401 36.307 172.435 36.3851 172.435 36.4669V39.8995C172.435 39.9813 172.401 40.0595 172.344 40.1173C172.286 40.1751 172.208 40.2081 172.126 40.2081H163.313V46.3712H174.692C174.773 46.3713 174.851 46.4033 174.909 46.461C174.967 46.519 174.999 46.5981 174.999 46.6798V50.1114C175 50.1519 174.992 50.1923 174.977 50.2296C174.961 50.2674 174.938 50.3016 174.909 50.3302C174.881 50.3591 174.847 50.3823 174.81 50.3976C174.772 50.4132 174.732 50.4219 174.692 50.422H159.555C159.473 50.4219 159.395 50.389 159.337 50.3312C159.279 50.2737 159.247 50.1949 159.247 50.1134V28.8067C159.247 28.7249 159.279 28.6459 159.337 28.588C159.395 28.5304 159.473 28.4983 159.555 28.4982H174.692ZM52.8292 28.4982C52.873 28.4982 52.9164 28.5075 52.9562 28.5255C52.9959 28.5435 53.0317 28.5699 53.0607 28.6026L62.1407 38.9298V28.8067C62.1407 28.7252 62.1733 28.6468 62.2306 28.589C62.2885 28.5311 62.3677 28.4982 62.4493 28.4982H65.8976C65.9792 28.4982 66.0584 28.5302 66.1163 28.588C66.1743 28.6459 66.2062 28.7249 66.2062 28.8067V50.1124C66.2061 50.153 66.1984 50.1932 66.1827 50.2306C66.1675 50.2678 66.1447 50.3017 66.1163 50.3302C66.0878 50.3587 66.0532 50.3823 66.0157 50.3976C65.9784 50.4132 65.9381 50.421 65.8976 50.421H62.4493C62.4088 50.421 62.3685 50.4132 62.3312 50.3976C62.2938 50.3823 62.2601 50.3587 62.2316 50.3302C62.2031 50.3017 62.1804 50.2678 62.1652 50.2306C62.1495 50.1932 62.1408 50.153 62.1407 50.1124V45.0773L53.38 35.1124V50.1124C53.38 50.153 53.3712 50.1932 53.3556 50.2306C53.3403 50.2678 53.3176 50.3017 53.2892 50.3302C53.2606 50.3587 53.2269 50.3823 53.1896 50.3976C53.1522 50.4132 53.1119 50.421 53.0714 50.421H49.6222C49.582 50.421 49.5414 50.4132 49.504 50.3976C49.4666 50.3823 49.4324 50.3587 49.4034 50.3302C49.3751 50.3017 49.3526 50.2678 49.337 50.2306C49.3218 50.1932 49.3136 50.153 49.3136 50.1124V28.8067C49.3136 28.7249 49.3459 28.6459 49.4034 28.588C49.4614 28.5302 49.5406 28.4982 49.6222 28.4982H52.8292ZM73.6896 28.4982C73.7493 28.4982 73.8074 28.5154 73.8575 28.548C73.9078 28.5807 73.9477 28.6279 73.9718 28.6827L80.8614 44.3556L87.7521 28.6827C87.7758 28.6282 87.8156 28.5816 87.8653 28.5489C87.9151 28.5163 87.9735 28.4984 88.0333 28.4982H91.7989C91.85 28.4982 91.9013 28.5108 91.9464 28.5353C91.9913 28.5597 92.0296 28.5949 92.0577 28.6378C92.0855 28.6807 92.1021 28.7303 92.1066 28.7814C92.1106 28.8324 92.1021 28.8839 92.0812 28.9308L82.7159 50.2364C82.6918 50.2911 82.6525 50.3382 82.6027 50.3712C82.5524 50.4038 82.4936 50.4206 82.4337 50.421H79.2902C79.2305 50.4209 79.1719 50.4036 79.1222 50.3712C79.0719 50.3382 79.0321 50.2916 79.0079 50.2364L69.6417 28.9308C69.6208 28.8839 69.6123 28.8324 69.6163 28.7814C69.6208 28.7303 69.6374 28.6807 69.6652 28.6378C69.6932 28.5949 69.7316 28.5597 69.7765 28.5353C69.8215 28.5108 69.8728 28.4982 69.9239 28.4982H73.6896ZM110.567 28.4972C110.649 28.4972 110.727 28.5302 110.785 28.588C110.843 28.6458 110.875 28.724 110.875 28.8058V32.2384C110.875 32.279 110.867 32.319 110.852 32.3566C110.836 32.3941 110.814 32.4284 110.785 32.4571C110.757 32.4859 110.722 32.509 110.685 32.5245C110.647 32.5399 110.607 32.5479 110.567 32.548H99.1886V36.1583H108.002C108.084 36.1584 108.162 36.1903 108.22 36.2482C108.278 36.306 108.31 36.3851 108.31 36.4669V39.8995C108.31 39.9811 108.278 40.0596 108.22 40.1173C108.162 40.1751 108.084 40.208 108.002 40.2081H99.1886V46.3702H110.567C110.649 46.3703 110.727 46.4027 110.785 46.4601C110.843 46.518 110.875 46.5968 110.875 46.6788V50.1114C110.875 50.1519 110.867 50.1923 110.852 50.2296C110.836 50.267 110.814 50.3012 110.785 50.3302C110.756 50.3586 110.723 50.3819 110.686 50.3976C110.648 50.4132 110.608 50.421 110.567 50.421H95.4308C95.3488 50.4209 95.2704 50.388 95.213 50.3302C95.1552 50.2723 95.1222 50.194 95.1222 50.1124V28.8058C95.1223 28.7241 95.1552 28.6458 95.213 28.588C95.2704 28.5302 95.3488 28.4973 95.4308 28.4972H110.567ZM124.52 28.4982C126.527 28.4951 128.453 29.2887 129.876 30.7052C131.299 32.1218 132.103 34.0458 132.111 36.0548C132.113 37.0489 131.918 38.0336 131.536 38.9513C131.154 39.8691 130.593 40.7018 129.887 41.4005C129.315 41.9706 128.656 42.4461 127.935 42.8077L132.419 49.9484C132.448 49.995 132.464 50.0489 132.466 50.1036C132.467 50.1587 132.454 50.2136 132.428 50.2618C132.401 50.31 132.362 50.3503 132.315 50.378C132.267 50.4061 132.213 50.421 132.158 50.421H128.092C128.04 50.421 127.988 50.4082 127.942 50.3829C127.897 50.3576 127.859 50.3207 127.831 50.2765L123.646 43.6114H119.283V50.1114C119.283 50.1519 119.275 50.1919 119.26 50.2296C119.244 50.267 119.222 50.3016 119.193 50.3302C119.165 50.3591 119.13 50.3809 119.093 50.3966C119.056 50.4118 119.016 50.42 118.976 50.42H115.526C115.444 50.4199 115.366 50.3876 115.308 50.3302C115.25 50.2723 115.217 50.194 115.217 50.1124V28.8067C115.217 28.725 115.25 28.6468 115.308 28.589C115.366 28.5312 115.444 28.4983 115.526 28.4982H124.52ZM35.5782 32.3761C34.2059 32.1052 32.7846 32.2386 31.4864 32.7599C30.3732 33.2076 29.3892 33.9266 28.6241 34.8517C27.8591 35.7767 27.3372 36.8784 27.1056 38.0567C26.8351 39.4304 26.9676 40.8532 27.4884 42.1525C27.8481 43.0483 28.3851 43.8619 29.0665 44.545L29.0763 44.5558C29.7472 45.2238 30.5428 45.7534 31.4181 46.1134C32.2934 46.4734 33.2315 46.6576 34.1778 46.6544H34.2003C36.0719 46.6499 37.8692 45.9214 39.2169 44.6212L39.2921 44.547C39.9622 43.8804 40.4937 43.087 40.8566 42.214C41.2194 41.3408 41.4073 40.4047 41.4073 39.4591C41.4073 38.5135 41.2194 37.5773 40.8566 36.7042C40.4937 35.8311 39.9622 35.0379 39.2921 34.3712C38.2816 33.3489 36.9878 32.654 35.5782 32.3761ZM34.1788 36.7228C34.2191 36.7229 34.2588 36.7316 34.296 36.7472C34.3332 36.7628 34.3672 36.7849 34.3956 36.8136L36.8351 39.2403C36.8638 39.269 36.8859 39.3035 36.9015 39.3409C36.9171 39.3784 36.9259 39.4185 36.9259 39.4591C36.9259 39.4998 36.9171 39.5407 36.9015 39.5782C36.886 39.6154 36.8636 39.6494 36.8351 39.6778L34.3956 42.1056C34.3379 42.1626 34.2601 42.1943 34.1788 42.1944C34.0974 42.1944 34.0188 42.1627 33.961 42.1056L31.5216 39.6778C31.4929 39.6493 31.4698 39.6156 31.4542 39.5782C31.4386 39.5407 31.4308 39.4997 31.4308 39.4591C31.4308 39.4185 31.4387 39.3784 31.4542 39.3409C31.4698 39.3033 31.4928 39.269 31.5216 39.2403L33.961 36.8136C33.9894 36.7849 34.0235 36.7628 34.0607 36.7472C34.098 36.7315 34.1384 36.7229 34.1788 36.7228ZM119.283 39.5626H124.521C125.449 39.5625 126.34 39.1928 126.997 38.5353C127.654 37.8777 128.023 36.9857 128.023 36.0558C128.023 35.1258 127.654 34.2339 126.997 33.5763C126.34 32.9188 125.449 32.5491 124.521 32.5489H119.283V39.5626Z" fill="white"/>
<path d="M7.53821 0.586945C11.1796 0.586945 13.9904 2.75867 14.2208 5.8262H10.9952C10.8327 4.39637 9.28976 3.24429 7.53821 3.24124C4.97752 3.24126 3.2735 5.2249 3.27063 8.86917C3.27063 11.3844 4.53684 14.2458 7.50989 14.2461C10.2834 14.2461 11.2441 12.8828 11.2443 10.7412H7.85266V8.1846H14.2355V10.7588C14.2407 14.4021 12.6921 16.9529 7.58313 16.9512C2.88722 16.9512 -0.00149456 13.0036 0.00012207 8.72757C0.000288575 4.20675 2.58423 0.585135 7.53821 0.586945ZM73.588 2.03128V4.79984H78.2218V7.22269H73.5782V11.8828C73.5782 13.313 74.0836 14.1444 75.3048 14.1446C76.43 14.1446 76.9856 13.4377 77.0519 12.1866L79.8497 12.1885V12.21C79.8497 14.609 78.4656 16.7549 75.2618 16.7549C71.9438 16.7531 70.6311 14.629 70.631 12.1836V2.03128H73.588ZM51.2804 4.79495C54.875 4.7951 56.1199 6.4038 56.1183 9.2637V16.4473L53.3282 16.4453C53.23 16.1148 53.1701 15.7739 53.1495 15.4297C52.4354 16.2127 51.2366 16.7442 49.715 16.7442C47.1349 16.7442 45.9357 15.4729 45.9357 13.628C45.9357 10.3511 48.1264 9.98253 51.1447 9.56937C52.6424 9.36373 53.0585 9.06378 53.0587 8.27933C53.0587 7.54095 52.3212 7.10269 51.1466 7.10257C49.7874 7.10257 49.2333 7.76966 49.0939 8.78519H46.299C46.347 6.43068 47.6389 4.79313 51.2804 4.79495ZM36.4298 6.55569C36.7935 5.99771 37.2941 5.54204 37.8829 5.23148C38.4721 4.92091 39.1304 4.76611 39.796 4.78128C42.7221 4.78128 44.4504 7.20495 44.4396 10.6426C44.4396 14.4719 42.3872 16.7315 39.5294 16.7315C38.1458 16.7314 37.0867 16.1953 36.3722 15.0459L36.3497 16.4307H33.4796V0.926788H36.4298V6.55569ZM25.5148 4.81253C29.5149 4.45506 32.0525 6.87378 32.0509 10.753C32.0509 14.3515 29.8131 16.7273 26.2882 16.7256C22.3254 16.7256 20.1144 13.8636 20.504 9.86429C20.7478 7.33468 22.988 5.03772 25.5148 4.81253ZM64.6866 4.78909C66.8527 4.78927 68.4357 6.1054 68.4357 8.57327V16.4395L65.4249 16.4463V9.56448C65.4249 7.8108 64.9191 7.3262 63.4884 7.3262C61.9225 7.32631 61.1671 8.20234 61.1671 9.93265V16.4463H58.1652V5.09476H61.0216V6.75589C61.7123 5.48651 62.8651 4.78909 64.6866 4.78909ZM19.0822 16.4239H16.0851V0.920929H19.0822V16.4239ZM53.1232 10.8838C52.8233 11.1841 52.292 11.3453 51.1866 11.5528C49.4815 11.8762 48.9279 12.3605 48.9279 13.3291C48.9279 14.1816 49.4348 14.5967 50.379 14.5987C51.9221 14.5987 53.0762 13.4697 53.0997 12.1299L53.1232 10.8838ZM38.8282 7.3389C37.1695 7.33908 36.3156 8.56214 36.3156 11.0313C36.3156 12.9459 37.4212 14.285 38.8497 14.2852C40.3479 14.2858 41.4083 12.879 41.4083 10.8467C41.4083 8.52272 40.5799 7.34043 38.8282 7.3389ZM26.2911 7.32034C24.4714 7.32037 23.5481 8.44934 23.548 10.7559C23.548 13.0628 24.4693 14.2169 26.2892 14.2188C27.9955 14.2205 28.9136 13.2001 29.0216 11.17L29.0323 10.7578C29.0323 8.45176 28.111 7.32034 26.2911 7.32034Z" fill="white"/>
<path d="M83.4533 0.0928341C83.3325 0.0235816 83.1938 -0.00810559 83.0548 0.00180981C82.9162 0.0117252 82.7832 0.0627938 82.6737 0.14851C82.5638 0.234226 82.4821 0.35071 82.4389 0.483121C82.3952 0.615531 82.3924 0.757871 82.43 0.892011L83.7677 2.88888C85.0429 4.79609 85.7235 7.03945 85.7235 9.33446C85.7235 11.6295 85.0429 13.8728 83.7677 15.7801L82.432 17.7751C82.394 17.9091 82.3968 18.0514 82.4401 18.1838C82.4829 18.3162 82.5646 18.4328 82.6741 18.5187C82.7836 18.6046 82.9162 18.6559 83.0548 18.6661C83.1938 18.6764 83.3325 18.645 83.4533 18.5761L94.6537 10.0369C94.7612 9.95505 94.8486 9.84932 94.9088 9.72807C94.9686 9.60683 95.0001 9.47333 95.0001 9.33798C95.0001 9.20263 94.9686 9.06913 94.9088 8.94789C94.8486 8.82664 94.7612 8.72095 94.6537 8.63907L83.4533 0.0928341Z" fill="#BFD732"/>
</svg>
